<svg xmlns="http://www.w3.org/2000/svg" xmlns:xlink="http://www.w3.org/1999/xlink" viewBox="0 0 1080 1080"><defs><style>.cls-1{mask:url(#mask);filter:url(#luminosity-noclip-3);}.cls-2,.cls-25,.cls-33,.cls-4{mix-blend-mode:multiply;}.cls-2{fill:url(#radial-gradient);}.cls-3{mask:url(#mask-2);filter:url(#luminosity-noclip-4);}.cls-4{fill:url(#radial-gradient-2);}.cls-5{fill:none;}.cls-6{isolation:isolate;}.cls-7{fill:#e3e0fc;}.cls-8{fill:#fff;}.cls-9{fill:#f4f3ff;}.cls-10,.cls-20{fill:#311b92;}.cls-11{fill:#768597;}.cls-12{fill:#beb7f9;}.cls-13{fill:#8d8f93;}.cls-14{opacity:0.6;}.cls-15{fill:#a2a4a5;}.cls-16{fill:#ff8479;}.cls-17{fill:#c2c6d0;}.cls-18{fill:#d2d6e2;}.cls-19{fill:#1d1140;}.cls-20{opacity:0.1;}.cls-21{clip-path:url(#clip-path);}.cls-22{fill:#b4b0ff;}.cls-23{fill:#8e694a;}.cls-24{mask:url(#mask-3);}.cls-25,.cls-33{opacity:0.46;}.cls-25{fill:url(#radial-gradient-3);}.cls-26{fill:#000204;}.cls-27{fill:#181b1f;}.cls-28{fill:#825f45;}.cls-29{fill:#4e555c;}.cls-30{fill:#5f656a;}.cls-31{clip-path:url(#clip-path-2);}.cls-32{mask:url(#mask-4);}.cls-33{fill:url(#radial-gradient-4);}.cls-34{fill:#010101;}.cls-35{fill:#2c3241;}.cls-36{fill:#281c84;}.cls-37{fill:#e91e63;}.cls-38{fill:#fc7d77;}.cls-39{fill:#0156bd;}.cls-40{fill:#ef357d;}.cls-41{fill:#c61459;}.cls-42{fill:#130b35;}.cls-43{fill:#25187f;}.cls-44{fill:#f4f7ff;}.cls-45{fill:#d83030;}.cls-46{filter:url(#luminosity-noclip-2);}.cls-47{filter:url(#luminosity-noclip);}</style><filter id="luminosity-noclip" x="649.93" y="-8182" width="171.85" height="32766" filterUnits="userSpaceOnUse" color-interpolation-filters="sRGB"><feFlood flood-color="#fff" result="bg"/><feBlend in="SourceGraphic" in2="bg"/></filter><mask id="mask" x="649.93" y="-8182" width="171.85" height="32766" maskUnits="userSpaceOnUse"><g class="cls-47"/></mask><radialGradient id="radial-gradient" cx="-19782.05" cy="-165.51" r="155.42" gradientTransform="translate(11671.37 515.47) scale(0.55 0.21)" gradientUnits="userSpaceOnUse"><stop offset="0" stop-color="#fff"/><stop offset="0.1" stop-color="#f9f9f9"/><stop offset="0.22" stop-color="#e9e9e9"/><stop offset="0.36" stop-color="#cfcfcf"/><stop offset="0.51" stop-color="#aaa"/><stop offset="0.67" stop-color="#7b7b7b"/><stop offset="0.83" stop-color="#414141"/><stop offset="1"/></radialGradient><filter id="luminosity-noclip-2" x="358.52" y="-8182" width="174.63" height="32766" filterUnits="userSpaceOnUse" color-interpolation-filters="sRGB"><feFlood flood-color="#fff" result="bg"/><feBlend in="SourceGraphic" in2="bg"/></filter><mask id="mask-2" x="358.52" y="-8182" width="174.63" height="32766" maskUnits="userSpaceOnUse"><g class="cls-46"/></mask><radialGradient id="radial-gradient-2" cx="-4080.29" cy="-141.18" r="157.94" gradientTransform="matrix(-0.55, 0, 0, 0.21, -1809.75, 515.47)" xlink:href="#radial-gradient"/><clipPath id="clip-path"><path class="cls-5" d="M778.29,453.76,698.42,407l-24.56-80,5.95-132.26L686,139.22s53.76,13.12,55.7,14.52,41.76,49,42.93,50.26,19.23,59.39,19.11,63.14.12,109.51,0,110.28-11.27,54.69-11.27,54.69Z"/></clipPath><filter id="luminosity-noclip-3" x="649.93" y="449.52" width="171.85" height="63.87" filterUnits="userSpaceOnUse" color-interpolation-filters="sRGB"><feFlood flood-color="#fff" result="bg"/><feBlend in="SourceGraphic" in2="bg"/></filter><mask id="mask-3" x="649.93" y="449.52" width="171.85" height="63.87" maskUnits="userSpaceOnUse"><g class="cls-1"><ellipse class="cls-2" cx="735.85" cy="481.45" rx="85.93" ry="31.94"/></g></mask><radialGradient id="radial-gradient-3" cx="-19782.05" cy="-165.51" r="155.42" gradientTransform="translate(11671.37 515.47) scale(0.55 0.21)" gradientUnits="userSpaceOnUse"><stop offset="0"/><stop offset="0.1" stop-color="#060606"/><stop offset="0.22" stop-color="#161616"/><stop offset="0.36" stop-color="#303030"/><stop offset="0.51" stop-color="#555"/><stop offset="0.67" stop-color="#848484"/><stop offset="0.83" stop-color="#bebebe"/><stop offset="1" stop-color="#fff"/></radialGradient><clipPath id="clip-path-2"><polygon class="cls-5" points="475.56 411.35 397.55 454.68 355.81 320.35 399.91 198.75 436.36 155.15 471.62 148.59 491.09 185.14 505.25 308.85 475.56 411.35"/></clipPath><filter id="luminosity-noclip-4" x="358.52" y="454" width="174.63" height="64.91" filterUnits="userSpaceOnUse" color-interpolation-filters="sRGB"><feFlood flood-color="#fff" result="bg"/><feBlend in="SourceGraphic" in2="bg"/></filter><mask id="mask-4" x="358.52" y="454" width="174.63" height="64.91" maskUnits="userSpaceOnUse"><g class="cls-3"><ellipse class="cls-4" cx="445.84" cy="486.45" rx="87.32" ry="32.45"/></g></mask><radialGradient id="radial-gradient-4" cx="-4080.29" cy="-141.18" r="157.94" gradientTransform="matrix(-0.55, 0, 0, 0.21, -1809.75, 515.47)" xlink:href="#radial-gradient-3"/></defs><title>Virtual Networking</title><g class="cls-6"><g id="Layer_1" data-name="Layer 1"><path class="cls-7" d="M1028.11,640.55,585,399.59a90.11,90.11,0,0,0-86.94.44L66.61,640.69c-22.77,12.7-22.77,45.45,0,58.19L498.09,939.54A90.19,90.19,0,0,0,585,940l443.08-241C1051.28,686.41,1051.28,653.12,1028.11,640.55Z"/><rect class="cls-7" x="49.52" y="635.95" width="995.96" height="35.29"/><path class="cls-8" d="M1028.11,611.15,585,370.19a90.11,90.11,0,0,0-86.94.44L66.61,611.32c-22.77,12.67-22.77,45.42,0,58.13L498.09,910.14a90.11,90.11,0,0,0,86.94.47l443.08-241C1051.28,657,1051.28,623.76,1028.11,611.15Z"/><path class="cls-9" d="M66.59,661.54l159.26,88.81L498.07,902.2a90.19,90.19,0,0,0,86.94.47L870.47,747.42,994.9,679.76l33.21-18c23.2-12.64,23.2-45.9,0-58.54L585,362.25a90.19,90.19,0,0,0-86.94.47L217.44,519.26,66.59,603.38C43.86,616.09,43.86,648.83,66.59,661.54Z"/><polygon class="cls-10" points="700.65 105.56 686.21 108.18 696.29 113.45 700.65 105.56"/><polygon class="cls-10" points="818.15 510.62 802.31 513.5 804.63 505.77 818.15 510.62"/><polygon class="cls-9" points="685.61 424.63 729.47 447.2 794.47 480.65 810.23 488.77 810.23 224 696.99 153.97 686.71 147.61 685.9 147.11 685.9 147.92 685.62 414.02 685.61 424.63"/><path class="cls-9" d="M685.62,414c13.06,9.93,28.21,21.4,43.85,33.18l65,33.45C713.9,384.36,699.38,199.39,697,154c-.35-6.61-.44-10.26-.44-10.26l-9.84,3.9-.81.31Z"/><path class="cls-11" d="M813.06,480.84l-13.31,7.42a4,4,0,0,1-4,0l-110.17-63.6a4,4,0,0,1,0-7L699,409.9a4,4,0,0,1,4,0l110,63.92A4,4,0,0,1,813.06,480.84Z"/><path class="cls-10" d="M805.32,226.06v243L692.39,403.81v16.62a38.28,38.28,0,0,0,19.14,33.15L724,460.75l2,1.18,17.76,10.26,1.27.73,59.2,34.19,3.14,1.81a15.17,15.17,0,0,0,3,1.32,14.71,14.71,0,0,0,6.71.58c.37-.05.74-.12,1.1-.2h0a15.12,15.12,0,0,0,12-14.82V209.48a55.39,55.39,0,0,0-27.71-48l-94.8-54.74a10,10,0,0,0-7-1.18h0a10.33,10.33,0,0,0-6.31,4.07,10.05,10.05,0,0,0-1.17,2.14,10.17,10.17,0,0,0-.7,3.75v45Z"/><path class="cls-12" d="M687.41,108a10,10,0,0,1,6.21,1.31l.64.37,3.14,1.81,91,52.56a55.41,55.41,0,0,1,27.71,48V498.32a15,15,0,0,1-5.8,11.92,15.3,15.3,0,0,1-8,3.19,14.94,14.94,0,0,1-8.94-2L697.55,456.1A38.27,38.27,0,0,1,678.42,423V118.05A10.14,10.14,0,0,1,687.41,108Zm117.91,118.1L692.39,160.57V403.81l112.93,65.28Z"/><polygon class="cls-13" points="805.32 469.09 692.39 403.81 692.39 403.81 805.32 469.09"/><polygon class="cls-10" points="691.76 160.2 691.76 403.44 692.39 403.81 692.39 160.57 691.76 160.2"/><path class="cls-9" d="M768.75,184.44a3.74,3.74,0,0,0,3.67-4.05,7.64,7.64,0,0,0-3.56-6.16,4.44,4.44,0,0,0-2.23-.63,3.75,3.75,0,0,0-3.67,4,7.64,7.64,0,0,0,3.56,6.16,4.46,4.46,0,0,0,2.23.64Z"/><path class="cls-10" d="M768.75,183.61a2.92,2.92,0,0,0,2.85-3.22,6.85,6.85,0,0,0-3.15-5.44,3.62,3.62,0,0,0-1.82-.53,2.91,2.91,0,0,0-2.84,3.22,6.86,6.86,0,0,0,3.14,5.45,3.63,3.63,0,0,0,1.82.52Z"/><path class="cls-8" d="M768.75,182.38c1,0,1.61-.78,1.61-2a5.56,5.56,0,0,0-2.53-4.37,2.4,2.4,0,0,0-1.2-.36c-1,0-1.61.78-1.61,2a5.59,5.59,0,0,0,2.53,4.38,2.4,2.4,0,0,0,1.2.36Z"/><path class="cls-8" d="M755.33,173.42a1.21,1.21,0,0,0,1-.58,1.2,1.2,0,0,0-.4-1.65L734,157.7a1.2,1.2,0,0,0-1.26,2.05l22,13.49A1.17,1.17,0,0,0,755.33,173.42Z"/><path class="cls-12" d="M822.69,230.28v14.44a2.41,2.41,0,0,0,1.46,2.21,2.29,2.29,0,0,0,.94.19,2.4,2.4,0,0,0,2.41-2.4V230.28a2.41,2.41,0,1,0-4.81,0Z"/><path class="cls-8" d="M824.15,232.68v14.25a2.29,2.29,0,0,0,.94.19,2.4,2.4,0,0,0,2.41-2.4V230.47a2.48,2.48,0,0,0-1-.19A2.39,2.39,0,0,0,824.15,232.68Z"/><path class="cls-12" d="M822.69,261.37v23a2.41,2.41,0,0,0,1.46,2.21,2.47,2.47,0,0,0,.94.19,2.41,2.41,0,0,0,2.41-2.4v-23a2.41,2.41,0,0,0-4.81,0Z"/><path class="cls-8" d="M824.15,263.78v22.84a2.47,2.47,0,0,0,.94.19,2.41,2.41,0,0,0,2.41-2.4V261.57a2.31,2.31,0,0,0-1-.2A2.4,2.4,0,0,0,824.15,263.78Z"/><path class="cls-12" d="M823.42,294.62v23a2.41,2.41,0,0,0,1.46,2.21,2.29,2.29,0,0,0,.94.19,2.4,2.4,0,0,0,2.41-2.4v-23a2.41,2.41,0,1,0-4.81,0Z"/><path class="cls-8" d="M824.88,297v22.84a2.29,2.29,0,0,0,.94.19,2.4,2.4,0,0,0,2.41-2.4V294.81a2.3,2.3,0,0,0-1-.19A2.39,2.39,0,0,0,824.88,297Z"/><path class="cls-10" d="M559.19,141.64l-7.76,1-.44.06V362.16c0,5-2.58,10.74-6.26,14.83-1.91-.47-3.86-.94-5.82-1.4-22.7-5.5-47.85-11.5-73.53-17.59C404.29,343.52,340.23,304,299,294.34L288.1,291.8l-1.33-.32c-3.14-.74-6.34-1.46-9.08-2.1l0-.08c2-4,5.1-7.77,8.48-9.7L515.48,148l24.79-14.24a8.37,8.37,0,0,1,1.15-.59l.4-.16,0-.33a7.19,7.19,0,0,1,6-.33l.68.39h0l7.29,4.21h0l.7.41a5.07,5.07,0,0,1,.46.35,6,6,0,0,1,1.49,1.95A8,8,0,0,1,559.19,141.64Z"/><path class="cls-10" d="M543.77,378a18.12,18.12,0,0,1-3.48,2.7l-107,61.73L321.11,507.16l-19.58,11.3-12.75,7.36,1,2.43,1.91,4.57a6.45,6.45,0,0,1-5.18-.22l-2.24-1.31-5.08-3,0,0a4.58,4.58,0,0,1-1.13-.66c-1.6-1.23-2.57-3.47-2.57-6.52v-223a20.67,20.67,0,0,1,2.2-8.72l0-.08,9,2.18,1.33.32,10.81,2.6L465,359l72.33,17.42Z"/><path class="cls-12" d="M559.42,144.05V366.28c0,6.8-4.82,15.13-10.7,18.52L294,531.81a11.59,11.59,0,0,1-2.25,1,6.47,6.47,0,0,1-5.19-.22,6.3,6.3,0,0,1-2.94-4.17,10.57,10.57,0,0,1-.25-1.46,11.84,11.84,0,0,1-.07-1.35v-223c0-6.79,4.82-15.12,10.71-18.51L540.71,142.42l8-4.57a10.93,10.93,0,0,1,1.92-.89,5.17,5.17,0,0,1,.51-.18,6.5,6.5,0,0,1,4.73.14h0l.7.41a6.63,6.63,0,0,1,2.63,4.3A13,13,0,0,1,559.42,144.05Z"/><path class="cls-7" d="M752.85,504.94a4.84,4.84,0,0,1-.88,2.7,8.43,8.43,0,0,1-2.84,2.51l-4.75,2.74-256,147.76a19,19,0,0,1-9.89,2.13h0c-.35,0-.7,0-1-.07h-.07l-.81-.09q-.31,0-.63-.09l-.39-.07a4.38,4.38,0,0,1-.63-.12c-.22,0-.43-.1-.65-.15l-.34-.1a5.6,5.6,0,0,1-.7-.2,3,3,0,0,1-.4-.12l-.6-.21a13.75,13.75,0,0,1-1.89-.91L352.83,585.72l-62.55-39.9-6.21-4c-2.5-1.43-3.73-3.33-3.73-5.22,0-.14,0-.3,0-.44s0-.23.06-.34a6.8,6.8,0,0,1,3.65-4.43l.23-.13.48-.26,5-2.78,11.37-6.31.63-.35,24.4-13.52.79-.44,102.72-56.92,90.26-50,.56-.32,24.33-13.48.86-.48,3.34-1.85,1.06-.59c5-2.87,13.1-2.87,18.07,0L749.13,499.72a7.89,7.89,0,0,1,3.19,3.11h0A4.45,4.45,0,0,1,752.85,504.94Z"/><path class="cls-12" d="M330.81,545.34c-4.83,2.79-4.93,7.53-.23,10.53l79.81,50.88c4.7,3,12.5,3.17,17.33.37L664.09,470.65c4.83-2.8,4.94-7.54.24-10.56l-79.6-51c-4.7-3-12.49-3.19-17.31-.39Z"/><g class="cls-14"><path class="cls-8" d="M515.79,572.75c-4.85-3.11-4.74-8,.23-10.93l51.4-29.94c5-2.89,13-2.73,17.87.37l49,31.31c4.85,3.09,4.74,8-.24,10.88l-51.74,29.93c-5,2.88-13,2.7-17.87-.41Z"/></g><path class="cls-12" d="M517.94,572.9c-4.7-3-4.59-7.77.22-10.58l49.8-29c4.82-2.81,12.61-2.65,17.31.35l36.66,23.44c4.7,3,4.6,7.74-.23,10.53l-50.11,29c-4.83,2.79-12.62,2.62-17.32-.4Z"/><path class="cls-10" d="M565.59,492l-.51-.3h-1.21v.66l-8.34-4.81a3.84,3.84,0,0,0-3.49,0l-23.68,13.75h-2.3a1.15,1.15,0,0,0-.52.89v1.36a1.21,1.21,0,0,0,.73,1l.06,0,9.48,6a4.83,4.83,0,0,0,3.91-.28l25.88-15,.14-.08a1.17,1.17,0,0,0,.58-.93V493A1.22,1.22,0,0,0,565.59,492Z"/><path class="cls-8" d="M566.32,493a1,1,0,0,1-.3.68,1.81,1.81,0,0,1-.42.33l-1.73,1-24.15,14a4.87,4.87,0,0,1-3.91.27l-7.33-4.65-2.21-1.39a2.3,2.3,0,0,1-.43-.34,1,1,0,0,1-.3-.68,1.15,1.15,0,0,1,.52-.89l.2-.12,25.78-15a3.87,3.87,0,0,1,3.49,0l9.55,5.51.51.3A1.22,1.22,0,0,1,566.32,493Z"/><path class="cls-10" d="M518.68,539.3l-.52-.29H517v.65l-8.33-4.81a3.87,3.87,0,0,0-3.49,0L449.64,567h-2.3a1.13,1.13,0,0,0-.51.89v1.36a1.21,1.21,0,0,0,.72,1l.07.05,9.48,6A4.8,4.8,0,0,0,461,576l57.68-33.36.13-.09a1.17,1.17,0,0,0,.58-.92v-1.36A1.24,1.24,0,0,0,518.68,539.3Z"/><path class="cls-8" d="M519.4,540.31a1,1,0,0,1-.29.68,2,2,0,0,1-.42.33l-1.74,1L461,574.69a4.83,4.83,0,0,1-3.91.27l-7.34-4.64-2.21-1.4a2.22,2.22,0,0,1-.43-.34,1,1,0,0,1-.29-.68,1.13,1.13,0,0,1,.51-.89l.2-.12,57.59-33.38a3.83,3.83,0,0,1,3.49,0l9.54,5.51.52.29A1.24,1.24,0,0,1,519.4,540.31Z"/><path class="cls-10" d="M372.7,543l-.51-.3H371v.65l-8.34-4.8a3.84,3.84,0,0,0-3.49,0l-7.78,4.55h-2.3a1.15,1.15,0,0,0-.52.88v1.37a1.23,1.23,0,0,0,.73,1l.06,0,9.48,6a4.81,4.81,0,0,0,3.92-.27l10-5.77.14-.08a1.19,1.19,0,0,0,.58-.93V544A1.24,1.24,0,0,0,372.7,543Z"/><path class="cls-8" d="M373.43,544a1,1,0,0,1-.3.69,1.78,1.78,0,0,1-.42.32L371,546l-8.24,4.78a4.89,4.89,0,0,1-3.92.27l-7.33-4.65-2.21-1.4a1.94,1.94,0,0,1-.43-.33,1,1,0,0,1-.3-.69,1.15,1.15,0,0,1,.52-.88l.2-.12,9.88-5.79a3.9,3.9,0,0,1,3.49,0l9.55,5.51.51.3A1.24,1.24,0,0,1,373.43,544Z"/><path class="cls-10" d="M388.6,533.78l-.51-.3h-1.21v.65l-8.34-4.8a3.84,3.84,0,0,0-3.49,0l-7.78,4.55H365a1.16,1.16,0,0,0-.52.89v1.36a1.23,1.23,0,0,0,.73,1l.06,0,9.49,6a4.84,4.84,0,0,0,3.91-.28l10-5.77.14-.08a1.19,1.19,0,0,0,.58-.93v-1.35A1.22,1.22,0,0,0,388.6,533.78Z"/><path class="cls-8" d="M389.33,534.79a1,1,0,0,1-.3.68,1.81,1.81,0,0,1-.42.33l-1.73,1-8.24,4.78a4.87,4.87,0,0,1-3.91.27l-7.34-4.65-2.21-1.39a2.3,2.3,0,0,1-.43-.34,1,1,0,0,1-.3-.68,1.16,1.16,0,0,1,.52-.89l.2-.12,9.88-5.79a3.9,3.9,0,0,1,3.49,0l9.55,5.51.51.3A1.22,1.22,0,0,1,389.33,534.79Z"/><path class="cls-10" d="M404.5,524.58l-.51-.3h-1.21v.66l-8.34-4.81a3.84,3.84,0,0,0-3.49,0l-7.78,4.55h-2.3a1.16,1.16,0,0,0-.52.89v1.36a1.23,1.23,0,0,0,.73,1l.06,0,9.49,6a4.84,4.84,0,0,0,3.91-.28l10-5.77.14-.08a1.17,1.17,0,0,0,.58-.93v-1.35A1.22,1.22,0,0,0,404.5,524.58Z"/><path class="cls-8" d="M405.23,525.59a1,1,0,0,1-.3.68,1.81,1.81,0,0,1-.42.33l-1.73,1-8.24,4.77a4.87,4.87,0,0,1-3.91.27L383.29,528l-2.21-1.39a2,2,0,0,1-.43-.34,1,1,0,0,1-.3-.68,1.16,1.16,0,0,1,.52-.89l.2-.12,9.88-5.78a3.87,3.87,0,0,1,3.49,0l9.55,5.51.51.3A1.22,1.22,0,0,1,405.23,525.59Z"/><path class="cls-10" d="M420.4,515.38l-.51-.3h-1.21v.66l-8.34-4.81a3.9,3.9,0,0,0-3.49,0l-7.78,4.56h-2.3a1.12,1.12,0,0,0-.51.88v1.36a1.21,1.21,0,0,0,.72,1l.06,0,9.49,6a4.83,4.83,0,0,0,3.91-.27l10-5.78.14-.08a1.17,1.17,0,0,0,.58-.93v-1.35A1.22,1.22,0,0,0,420.4,515.38Z"/><path class="cls-8" d="M421.13,516.39a1,1,0,0,1-.3.68,1.81,1.81,0,0,1-.42.33l-1.73,1-8.24,4.77a4.83,4.83,0,0,1-3.91.27l-7.34-4.64L397,517.4a2.22,2.22,0,0,1-.43-.34,1,1,0,0,1-.29-.68,1.12,1.12,0,0,1,.51-.88,1.37,1.37,0,0,1,.2-.13l9.88-5.78a3.84,3.84,0,0,1,3.49,0l9.55,5.5.51.3A1.22,1.22,0,0,1,421.13,516.39Z"/><path class="cls-10" d="M436.3,506.18l-.51-.29h-1.21v.65l-8.34-4.81a3.9,3.9,0,0,0-3.49,0L415,506.3h-2.3a1.12,1.12,0,0,0-.51.88v1.37a1.21,1.21,0,0,0,.72,1l.06.05,9.49,6a4.83,4.83,0,0,0,3.91-.27l10-5.78.14-.08a1.17,1.17,0,0,0,.58-.92v-1.36A1.23,1.23,0,0,0,436.3,506.18Z"/><path class="cls-8" d="M437,507.19a1,1,0,0,1-.3.68,1.81,1.81,0,0,1-.42.33l-1.73,1L426.34,514a4.83,4.83,0,0,1-3.91.27l-7.34-4.64-2.21-1.4a2.22,2.22,0,0,1-.43-.34,1,1,0,0,1-.29-.68,1.12,1.12,0,0,1,.51-.88,1.37,1.37,0,0,1,.2-.13l9.88-5.78a3.84,3.84,0,0,1,3.49,0l9.55,5.51.51.29A1.23,1.23,0,0,1,437,507.19Z"/><path class="cls-10" d="M452.2,497l-.51-.29h-1.21v.65l-8.34-4.8a3.84,3.84,0,0,0-3.49,0l-7.78,4.55h-2.3a1.16,1.16,0,0,0-.51.88v1.37a1.23,1.23,0,0,0,.72,1l.07,0,9.48,6a4.79,4.79,0,0,0,3.91-.27l10-5.77.13-.09a1.17,1.17,0,0,0,.58-.92V498A1.23,1.23,0,0,0,452.2,497Z"/><path class="cls-8" d="M452.93,498a1.06,1.06,0,0,1-.29.68,2,2,0,0,1-.42.33l-1.74,1-8.24,4.77a4.88,4.88,0,0,1-3.91.28L431,500.4l-2.21-1.4a1.9,1.9,0,0,1-.43-.34,1,1,0,0,1-.29-.68,1.16,1.16,0,0,1,.51-.88l.2-.13,9.88-5.78a3.84,3.84,0,0,1,3.49,0l9.55,5.51.51.29A1.23,1.23,0,0,1,452.93,498Z"/><path class="cls-10" d="M468.1,487.78l-.51-.29h-1.21v.65l-8.34-4.8a3.84,3.84,0,0,0-3.49,0l-7.78,4.55h-2.3a1.16,1.16,0,0,0-.51.88v1.37a1.23,1.23,0,0,0,.72,1l.07,0,9.48,6a4.79,4.79,0,0,0,3.91-.27l10-5.77a.6.6,0,0,0,.13-.09,1.17,1.17,0,0,0,.58-.92v-1.36A1.23,1.23,0,0,0,468.1,487.78Z"/><path class="cls-8" d="M468.83,488.79a1,1,0,0,1-.29.69,2.32,2.32,0,0,1-.42.32l-1.74,1-8.24,4.77a4.88,4.88,0,0,1-3.91.28l-7.34-4.65-2.21-1.4a2.2,2.2,0,0,1-.43-.33,1,1,0,0,1-.29-.69,1.16,1.16,0,0,1,.51-.88l.2-.13,9.88-5.78a3.84,3.84,0,0,1,3.49,0l9.55,5.51.51.29A1.23,1.23,0,0,1,468.83,488.79Z"/><path class="cls-10" d="M484,478.59l-.52-.3h-1.21v.65l-8.33-4.8a3.86,3.86,0,0,0-3.5,0l-7.77,4.55h-2.31a1.16,1.16,0,0,0-.51.88V481a1.21,1.21,0,0,0,.72,1l.07,0,9.48,6a4.79,4.79,0,0,0,3.91-.27L484,482a.6.6,0,0,0,.13-.09,1.16,1.16,0,0,0,.58-.92v-1.36A1.22,1.22,0,0,0,484,478.59Z"/><path class="cls-8" d="M484.73,479.59a1,1,0,0,1-.29.69,2.32,2.32,0,0,1-.42.32l-1.74,1L474,486.38a4.87,4.87,0,0,1-3.91.27L462.79,482l-2.21-1.4a2.2,2.2,0,0,1-.43-.33,1,1,0,0,1-.29-.69,1.16,1.16,0,0,1,.51-.88l.2-.13,9.88-5.78a3.86,3.86,0,0,1,3.5,0l9.54,5.51.52.3A1.22,1.22,0,0,1,484.73,479.59Z"/><path class="cls-10" d="M499.91,469.39l-.52-.3h-1.21v.65l-8.33-4.8a3.83,3.83,0,0,0-3.49,0l-7.78,4.55h-2.31a1.16,1.16,0,0,0-.51.89v1.36a1.21,1.21,0,0,0,.72,1l.07,0,9.48,6a4.79,4.79,0,0,0,3.91-.27l10-5.77.13-.08a1.19,1.19,0,0,0,.58-.93V470.4A1.23,1.23,0,0,0,499.91,469.39Z"/><path class="cls-8" d="M500.63,470.4a1,1,0,0,1-.29.68,2.32,2.32,0,0,1-.42.32l-1.74,1-8.24,4.78a4.87,4.87,0,0,1-3.91.27l-7.34-4.65-2.21-1.4a2.55,2.55,0,0,1-.43-.33,1,1,0,0,1-.29-.68,1.16,1.16,0,0,1,.51-.89l.2-.12,9.89-5.79a3.9,3.9,0,0,1,3.49,0l9.54,5.51.52.3A1.23,1.23,0,0,1,500.63,470.4Z"/><path class="cls-10" d="M515.81,460.19l-.52-.3h-1.21v.65l-8.33-4.8a3.83,3.83,0,0,0-3.49,0l-7.78,4.55h-2.31a1.18,1.18,0,0,0-.51.89v1.36a1.21,1.21,0,0,0,.72,1l.07,0,9.48,6a4.83,4.83,0,0,0,3.91-.28l10-5.77.13-.08a1.17,1.17,0,0,0,.58-.93V461.2A1.23,1.23,0,0,0,515.81,460.19Z"/><path class="cls-8" d="M516.53,461.2a1,1,0,0,1-.29.68,2,2,0,0,1-.42.33l-1.74,1L505.84,468a4.87,4.87,0,0,1-3.91.27l-7.34-4.65-2.21-1.39a3.23,3.23,0,0,1-.43-.34,1,1,0,0,1-.29-.68,1.18,1.18,0,0,1,.51-.89l.2-.12,9.89-5.79a3.9,3.9,0,0,1,3.49,0l9.54,5.51.52.3A1.23,1.23,0,0,1,516.53,461.2Z"/><path class="cls-10" d="M389.4,553.62l-.52-.29h-1.2V554l-8.34-4.81a3.9,3.9,0,0,0-3.49,0l-7.78,4.56h-2.3a1.13,1.13,0,0,0-.52.88V556a1.23,1.23,0,0,0,.73,1l.06,0,9.48,6a4.83,4.83,0,0,0,3.91-.27l10-5.77.14-.09a1.18,1.18,0,0,0,.57-.92v-1.36A1.23,1.23,0,0,0,389.4,553.62Z"/><path class="cls-8" d="M390.12,554.63a1,1,0,0,1-.29.68,2,2,0,0,1-.42.33l-1.73,1-8.25,4.77a4.83,4.83,0,0,1-3.91.27L368.18,557l-2.2-1.4a1.7,1.7,0,0,1-.43-.34,1,1,0,0,1-.3-.68,1.13,1.13,0,0,1,.52-.88,1,1,0,0,1,.2-.13l9.88-5.78a3.83,3.83,0,0,1,3.49,0l9.54,5.51.52.29A1.23,1.23,0,0,1,390.12,554.63Z"/><path class="cls-10" d="M405.3,544.42l-.52-.29h-1.2v.65l-8.34-4.8a3.84,3.84,0,0,0-3.49,0L384,544.54h-2.3a1.13,1.13,0,0,0-.52.88v1.37a1.22,1.22,0,0,0,.73,1l.06,0,9.48,6a4.79,4.79,0,0,0,3.91-.27l10-5.77.14-.09a1.16,1.16,0,0,0,.57-.92v-1.36A1.24,1.24,0,0,0,405.3,544.42Z"/><path class="cls-8" d="M406,545.43a1,1,0,0,1-.29.68,1.58,1.58,0,0,1-.42.33l-1.73,1-8.25,4.77a4.87,4.87,0,0,1-3.91.28l-7.34-4.65-2.2-1.4a1.7,1.7,0,0,1-.43-.34,1,1,0,0,1-.3-.68,1.13,1.13,0,0,1,.52-.88,1.74,1.74,0,0,1,.2-.13l9.88-5.78a3.84,3.84,0,0,1,3.49,0l9.54,5.51.52.29A1.24,1.24,0,0,1,406,545.43Z"/><path class="cls-10" d="M421.2,535.22l-.51-.29h-1.21v.65l-8.34-4.8a3.84,3.84,0,0,0-3.49,0l-7.78,4.55h-2.3a1.15,1.15,0,0,0-.52.88v1.37a1.22,1.22,0,0,0,.73,1l.06,0,9.48,6a4.79,4.79,0,0,0,3.91-.27l10-5.77a.67.67,0,0,0,.14-.09,1.17,1.17,0,0,0,.58-.92v-1.36A1.25,1.25,0,0,0,421.2,535.22Z"/><path class="cls-8" d="M421.93,536.23a1,1,0,0,1-.3.69,1.78,1.78,0,0,1-.42.32l-1.73,1L411.23,543a4.87,4.87,0,0,1-3.91.28L400,538.64l-2.21-1.4a1.94,1.94,0,0,1-.43-.33,1,1,0,0,1-.3-.69,1.15,1.15,0,0,1,.52-.88,1.74,1.74,0,0,1,.2-.13l9.88-5.78a3.84,3.84,0,0,1,3.49,0l9.55,5.51.51.29A1.25,1.25,0,0,1,421.93,536.23Z"/><path class="cls-10" d="M437.1,526l-.51-.29h-1.21v.65l-8.34-4.8a3.84,3.84,0,0,0-3.49,0l-7.78,4.55h-2.3a1.15,1.15,0,0,0-.52.88v1.37a1.23,1.23,0,0,0,.73,1l.06,0,9.48,6a4.79,4.79,0,0,0,3.91-.27l10-5.77.14-.08a1.19,1.19,0,0,0,.58-.93V527A1.27,1.27,0,0,0,437.1,526Z"/><path class="cls-8" d="M437.83,527a1,1,0,0,1-.3.69,1.78,1.78,0,0,1-.42.32l-1.73,1-8.25,4.77a4.83,4.83,0,0,1-3.91.28l-7.33-4.65-2.21-1.4a1.94,1.94,0,0,1-.43-.33,1,1,0,0,1-.3-.69,1.15,1.15,0,0,1,.52-.88l.2-.13,9.88-5.78a3.84,3.84,0,0,1,3.49,0l9.55,5.51.51.29A1.27,1.27,0,0,1,437.83,527Z"/><path class="cls-10" d="M453,516.83l-.51-.3h-1.21v.65l-8.34-4.8a3.84,3.84,0,0,0-3.49,0l-7.78,4.55h-2.3a1.15,1.15,0,0,0-.52.88v1.37a1.23,1.23,0,0,0,.73,1l.06,0,9.48,6A4.86,4.86,0,0,0,443,526l10-5.77.14-.08a1.19,1.19,0,0,0,.58-.93v-1.35A1.22,1.22,0,0,0,453,516.83Z"/><path class="cls-8" d="M453.73,517.84a1,1,0,0,1-.3.68,1.78,1.78,0,0,1-.42.32l-1.73,1L443,524.62a4.89,4.89,0,0,1-3.92.27l-7.33-4.65-2.21-1.4a1.94,1.94,0,0,1-.43-.33,1,1,0,0,1-.3-.69,1.15,1.15,0,0,1,.52-.88l.2-.12,9.88-5.79a3.9,3.9,0,0,1,3.49,0l9.55,5.51.51.3A1.22,1.22,0,0,1,453.73,517.84Z"/><path class="cls-10" d="M468.9,507.63l-.51-.3h-1.21V508l-8.34-4.8a3.84,3.84,0,0,0-3.49,0l-7.78,4.55h-2.3a1.16,1.16,0,0,0-.52.89V510a1.23,1.23,0,0,0,.73,1l.06,0,9.49,6a4.84,4.84,0,0,0,3.91-.28l10-5.77.14-.08a1.17,1.17,0,0,0,.58-.93v-1.35A1.22,1.22,0,0,0,468.9,507.63Z"/><path class="cls-8" d="M469.63,508.64a1,1,0,0,1-.3.68,1.81,1.81,0,0,1-.42.33l-1.73,1-8.24,4.78a4.87,4.87,0,0,1-3.91.27L447.69,511l-2.21-1.39a2.3,2.3,0,0,1-.43-.34,1,1,0,0,1-.3-.68,1.16,1.16,0,0,1,.52-.89l.2-.12,9.88-5.79a3.9,3.9,0,0,1,3.49,0l9.55,5.51.51.3A1.22,1.22,0,0,1,469.63,508.64Z"/><path class="cls-10" d="M484.8,498.43l-.51-.3h-1.21v.66L474.74,494a3.84,3.84,0,0,0-3.49,0l-7.78,4.55h-2.3a1.16,1.16,0,0,0-.52.89v1.36a1.23,1.23,0,0,0,.73,1l.06.05,9.49,6a4.8,4.8,0,0,0,3.91-.28l10-5.77.14-.08a1.17,1.17,0,0,0,.58-.93v-1.35A1.22,1.22,0,0,0,484.8,498.43Z"/><path class="cls-8" d="M485.53,499.44a1,1,0,0,1-.3.68,1.81,1.81,0,0,1-.42.33l-1.73,1-8.24,4.77a4.83,4.83,0,0,1-3.91.27l-7.34-4.64-2.21-1.4a2,2,0,0,1-.43-.34,1,1,0,0,1-.3-.68,1.16,1.16,0,0,1,.52-.89l.2-.12,9.88-5.78a3.84,3.84,0,0,1,3.49,0l9.55,5.5.51.3A1.22,1.22,0,0,1,485.53,499.44Z"/><path class="cls-10" d="M500.7,489.23l-.51-.29H499v.65l-8.34-4.81a3.9,3.9,0,0,0-3.49,0l-7.78,4.56h-2.3a1.12,1.12,0,0,0-.51.88v1.36a1.21,1.21,0,0,0,.72,1l.06,0,9.49,6a4.83,4.83,0,0,0,3.91-.27l10-5.78.14-.08a1.17,1.17,0,0,0,.58-.93v-1.35A1.22,1.22,0,0,0,500.7,489.23Z"/><path class="cls-8" d="M501.43,490.24a1,1,0,0,1-.3.68,1.81,1.81,0,0,1-.42.33l-1.73,1L490.74,497a4.83,4.83,0,0,1-3.91.27l-7.34-4.64-2.21-1.4a2.22,2.22,0,0,1-.43-.34,1,1,0,0,1-.29-.68,1.12,1.12,0,0,1,.51-.88,1.37,1.37,0,0,1,.2-.13l9.88-5.78a3.84,3.84,0,0,1,3.49,0l9.55,5.51.51.29A1.22,1.22,0,0,1,501.43,490.24Z"/><path class="cls-10" d="M516.6,480l-.51-.29h-1.21v.65l-8.34-4.81a3.9,3.9,0,0,0-3.49,0l-7.78,4.56H493a1.12,1.12,0,0,0-.51.88v1.37a1.24,1.24,0,0,0,.72,1l.07,0,9.48,6a4.83,4.83,0,0,0,3.91-.27l10-5.77.14-.09a1.17,1.17,0,0,0,.58-.92V481A1.22,1.22,0,0,0,516.6,480Z"/><path class="cls-8" d="M517.33,481a1,1,0,0,1-.3.68,1.81,1.81,0,0,1-.42.33l-1.73,1-8.24,4.77a4.83,4.83,0,0,1-3.91.27l-7.34-4.64-2.21-1.4a1.9,1.9,0,0,1-.43-.34,1,1,0,0,1-.29-.68,1.12,1.12,0,0,1,.51-.88l.2-.13,9.88-5.78a3.84,3.84,0,0,1,3.49,0l9.55,5.51.51.29A1.22,1.22,0,0,1,517.33,481Z"/><path class="cls-10" d="M532.5,470.83l-.51-.29h-1.21v.65l-8.34-4.8a3.84,3.84,0,0,0-3.49,0L511.17,471h-2.3a1.16,1.16,0,0,0-.51.88v1.37a1.23,1.23,0,0,0,.72,1l.07,0,9.48,6a4.79,4.79,0,0,0,3.91-.27l10-5.77.13-.09a1.17,1.17,0,0,0,.58-.92v-1.36A1.23,1.23,0,0,0,532.5,470.83Z"/><path class="cls-8" d="M533.23,471.84a1,1,0,0,1-.29.68,2,2,0,0,1-.42.33l-1.74,1-8.24,4.77a4.88,4.88,0,0,1-3.91.28l-7.34-4.65-2.21-1.4a1.9,1.9,0,0,1-.43-.34,1,1,0,0,1-.29-.68,1.16,1.16,0,0,1,.51-.88l.2-.13L519,465a3.84,3.84,0,0,1,3.49,0l9.55,5.51.51.29A1.23,1.23,0,0,1,533.23,471.84Z"/><path class="cls-10" d="M406,564.18l-.51-.3h-1.21v.66l-8.34-4.81a3.84,3.84,0,0,0-3.49,0l-7.78,4.55h-2.3a1.16,1.16,0,0,0-.52.89v1.36a1.21,1.21,0,0,0,.73,1l.06.05,9.48,6a4.83,4.83,0,0,0,3.91-.27l10-5.78.14-.08a1.17,1.17,0,0,0,.58-.93v-1.35A1.24,1.24,0,0,0,406,564.18Z"/><path class="cls-8" d="M406.7,565.19a1,1,0,0,1-.3.68,1.81,1.81,0,0,1-.42.33l-1.73,1L396,572a4.83,4.83,0,0,1-3.91.27l-7.33-4.64-2.21-1.4a2,2,0,0,1-.43-.34,1,1,0,0,1-.3-.68,1.16,1.16,0,0,1,.52-.89l.2-.12,9.88-5.78a3.87,3.87,0,0,1,3.49,0l9.55,5.51.51.3A1.24,1.24,0,0,1,406.7,565.19Z"/><path class="cls-10" d="M421.87,555l-.51-.29h-1.21v.65l-8.34-4.81a3.9,3.9,0,0,0-3.49,0l-7.78,4.55h-2.3a1.16,1.16,0,0,0-.52.89v1.37a1.21,1.21,0,0,0,.73,1l.06,0,9.48,6a4.83,4.83,0,0,0,3.91-.27l10-5.78.14-.08a1.17,1.17,0,0,0,.58-.92V556A1.24,1.24,0,0,0,421.87,555Z"/><path class="cls-8" d="M422.6,556a1,1,0,0,1-.3.68,1.81,1.81,0,0,1-.42.33l-1.73,1-8.25,4.77A4.83,4.83,0,0,1,408,563l-7.33-4.64-2.21-1.4a2,2,0,0,1-.43-.34,1,1,0,0,1-.3-.68,1.16,1.16,0,0,1,.52-.89l.2-.12,9.88-5.78a3.84,3.84,0,0,1,3.49,0l9.55,5.51.51.29A1.24,1.24,0,0,1,422.6,556Z"/><path class="cls-10" d="M437.77,545.78l-.51-.29h-1.21v.65l-8.34-4.81a3.87,3.87,0,0,0-3.49,0l-7.78,4.55h-2.3a1.13,1.13,0,0,0-.52.88v1.37a1.25,1.25,0,0,0,.73,1l.06,0,9.48,6a4.85,4.85,0,0,0,3.92-.27l10-5.77.14-.09a1.17,1.17,0,0,0,.58-.92v-1.36A1.22,1.22,0,0,0,437.77,545.78Z"/><path class="cls-8" d="M438.5,546.79a1,1,0,0,1-.3.68,1.81,1.81,0,0,1-.42.33l-1.73,1-8.24,4.77a4.85,4.85,0,0,1-3.92.27l-7.33-4.64-2.21-1.4a2,2,0,0,1-.43-.34,1,1,0,0,1-.3-.68,1.13,1.13,0,0,1,.52-.88,1,1,0,0,1,.2-.13l9.88-5.78a3.84,3.84,0,0,1,3.49,0l9.55,5.51.51.29A1.22,1.22,0,0,1,438.5,546.79Z"/><path class="cls-10" d="M453.67,536.58l-.51-.29H452v.65l-8.34-4.8a3.84,3.84,0,0,0-3.49,0l-7.78,4.55H430a1.15,1.15,0,0,0-.52.88V539a1.24,1.24,0,0,0,.73,1l.06,0,9.49,6a4.79,4.79,0,0,0,3.91-.27l10-5.77.14-.09a1.17,1.17,0,0,0,.58-.92v-1.36A1.23,1.23,0,0,0,453.67,536.58Z"/><path class="cls-8" d="M454.4,537.59a1,1,0,0,1-.3.68,1.58,1.58,0,0,1-.42.33l-1.73,1-8.24,4.77a4.88,4.88,0,0,1-3.91.28L432.46,540l-2.21-1.4a1.7,1.7,0,0,1-.43-.34,1,1,0,0,1-.3-.68,1.15,1.15,0,0,1,.52-.88l.2-.13,9.88-5.78a3.84,3.84,0,0,1,3.49,0l9.55,5.51.51.29A1.23,1.23,0,0,1,454.4,537.59Z"/><path class="cls-10" d="M469.57,527.38l-.51-.29h-1.21v.65l-8.34-4.8a3.84,3.84,0,0,0-3.49,0l-7.78,4.55h-2.3a1.13,1.13,0,0,0-.51.88v1.37a1.23,1.23,0,0,0,.72,1l.06,0,9.49,6a4.79,4.79,0,0,0,3.91-.27l10-5.77a.48.48,0,0,0,.14-.09,1.17,1.17,0,0,0,.58-.92v-1.36A1.23,1.23,0,0,0,469.57,527.38Z"/><path class="cls-8" d="M470.3,528.39a1,1,0,0,1-.3.69,1.78,1.78,0,0,1-.42.32l-1.73,1-8.24,4.77a4.88,4.88,0,0,1-3.91.28l-7.34-4.65-2.21-1.4a1.94,1.94,0,0,1-.43-.33,1,1,0,0,1-.29-.69,1.13,1.13,0,0,1,.51-.88l.2-.13,9.88-5.78a3.84,3.84,0,0,1,3.49,0l9.55,5.51.51.29A1.23,1.23,0,0,1,470.3,528.39Z"/><path class="cls-10" d="M485.47,518.18l-.51-.29h-1.21v.65l-8.34-4.8a3.84,3.84,0,0,0-3.49,0l-7.78,4.55h-2.3a1.13,1.13,0,0,0-.51.88v1.37a1.21,1.21,0,0,0,.72,1l.06,0,9.49,6a4.79,4.79,0,0,0,3.91-.27l10-5.77.14-.08a1.19,1.19,0,0,0,.58-.93v-1.36A1.24,1.24,0,0,0,485.47,518.18Z"/><path class="cls-8" d="M486.2,519.19a1,1,0,0,1-.3.69,1.78,1.78,0,0,1-.42.32l-1.73,1L475.51,526a4.87,4.87,0,0,1-3.91.27l-7.34-4.65-2.21-1.4a2.2,2.2,0,0,1-.43-.33,1,1,0,0,1-.29-.69,1.13,1.13,0,0,1,.51-.88l.2-.13,9.88-5.78a3.9,3.9,0,0,1,3.49,0l9.55,5.51.51.29A1.24,1.24,0,0,1,486.2,519.19Z"/><path class="cls-10" d="M501.37,509l-.51-.3h-1.21v.65l-8.34-4.8a3.84,3.84,0,0,0-3.49,0L480,509.1h-2.3a1.13,1.13,0,0,0-.51.88v1.37a1.21,1.21,0,0,0,.72,1l.06,0,9.49,6a4.84,4.84,0,0,0,3.91-.28l10-5.77.14-.08a1.19,1.19,0,0,0,.58-.93V510A1.22,1.22,0,0,0,501.37,509Z"/><path class="cls-8" d="M502.1,510a1,1,0,0,1-.3.68,1.78,1.78,0,0,1-.42.32l-1.73,1-8.24,4.78a4.87,4.87,0,0,1-3.91.27l-7.34-4.65L478,511a2.2,2.2,0,0,1-.43-.33,1,1,0,0,1-.29-.69,1.13,1.13,0,0,1,.51-.88l.2-.12,9.88-5.79a3.9,3.9,0,0,1,3.49,0l9.55,5.51.51.3A1.22,1.22,0,0,1,502.1,510Z"/><path class="cls-10" d="M517.27,499.79l-.51-.3h-1.21v.65l-8.34-4.8a3.84,3.84,0,0,0-3.49,0l-7.78,4.55h-2.3a1.18,1.18,0,0,0-.51.89v1.36a1.21,1.21,0,0,0,.72,1l.07,0,9.48,6a4.84,4.84,0,0,0,3.91-.28l10-5.77.13-.08a1.19,1.19,0,0,0,.58-.93V500.8A1.22,1.22,0,0,0,517.27,499.79Z"/><path class="cls-8" d="M518,500.8a1.06,1.06,0,0,1-.29.68,2.36,2.36,0,0,1-.42.33l-1.74,1-8.24,4.78a4.87,4.87,0,0,1-3.91.27l-7.34-4.65-2.21-1.39a2.69,2.69,0,0,1-.43-.34,1,1,0,0,1-.29-.68,1.18,1.18,0,0,1,.51-.89l.2-.12,9.88-5.78a3.87,3.87,0,0,1,3.49,0l9.55,5.51.51.3A1.22,1.22,0,0,1,518,500.8Z"/><path class="cls-10" d="M533.17,490.59l-.51-.3h-1.21V491l-8.34-4.81a3.84,3.84,0,0,0-3.49,0l-7.78,4.55h-2.3a1.18,1.18,0,0,0-.51.89V493a1.21,1.21,0,0,0,.72,1l.07.05,9.48,6a4.8,4.8,0,0,0,3.91-.28l10-5.77.13-.08a1.17,1.17,0,0,0,.58-.93V491.6A1.22,1.22,0,0,0,533.17,490.59Z"/><path class="cls-8" d="M533.9,491.6a1,1,0,0,1-.29.68,2.36,2.36,0,0,1-.42.33l-1.74,1-8.24,4.77a4.83,4.83,0,0,1-3.91.27L512,494l-2.21-1.4a2.22,2.22,0,0,1-.43-.34,1,1,0,0,1-.29-.68,1.18,1.18,0,0,1,.51-.89l.2-.12,9.88-5.78a3.84,3.84,0,0,1,3.49,0l9.55,5.5.51.3A1.22,1.22,0,0,1,533.9,491.6Z"/><path class="cls-10" d="M549.08,481.39l-.52-.29h-1.21v.65L539,476.94a3.9,3.9,0,0,0-3.49,0l-7.78,4.56h-2.3a1.14,1.14,0,0,0-.51.88v1.37a1.21,1.21,0,0,0,.72,1l.07.05,9.48,6a4.83,4.83,0,0,0,3.91-.27l10-5.78.13-.08a1.17,1.17,0,0,0,.58-.92V482.4A1.23,1.23,0,0,0,549.08,481.39Z"/><path class="cls-8" d="M549.8,482.4a1,1,0,0,1-.29.68,2.36,2.36,0,0,1-.42.33l-1.74,1-8.24,4.77a4.83,4.83,0,0,1-3.91.27l-7.34-4.64-2.21-1.4a2.22,2.22,0,0,1-.43-.34,1,1,0,0,1-.29-.68,1.14,1.14,0,0,1,.51-.88l.2-.13,9.88-5.78a3.84,3.84,0,0,1,3.49,0l9.55,5.51.52.29A1.23,1.23,0,0,1,549.8,482.4Z"/><path class="cls-10" d="M422.49,574.74l-.52-.3h-1.21v.66l-8.33-4.81a3.83,3.83,0,0,0-3.49,0l-7.78,4.55h-2.31a1.18,1.18,0,0,0-.51.89v1.36a1.21,1.21,0,0,0,.72,1l.07,0,9.48,6a4.83,4.83,0,0,0,3.91-.28l10-5.77.13-.08a1.19,1.19,0,0,0,.58-.93v-1.35A1.23,1.23,0,0,0,422.49,574.74Z"/><path class="cls-8" d="M423.21,575.75a1,1,0,0,1-.29.68,2.92,2.92,0,0,1-.42.33l-1.74,1-8.24,4.77a4.87,4.87,0,0,1-3.91.27l-7.34-4.65-2.21-1.39a3.23,3.23,0,0,1-.43-.34,1,1,0,0,1-.29-.68,1.18,1.18,0,0,1,.51-.89l.2-.12,9.89-5.78a3.87,3.87,0,0,1,3.49,0l9.54,5.51.52.3A1.23,1.23,0,0,1,423.21,575.75Z"/><path class="cls-10" d="M438.39,565.54l-.52-.3h-1.21v.66l-8.33-4.81a3.87,3.87,0,0,0-3.49,0l-7.78,4.55h-2.31a1.18,1.18,0,0,0-.51.89v1.36a1.21,1.21,0,0,0,.72,1l.07,0,9.48,6a4.83,4.83,0,0,0,3.91-.28l10-5.77.13-.08a1.17,1.17,0,0,0,.58-.93v-1.35A1.23,1.23,0,0,0,438.39,565.54Z"/><path class="cls-8" d="M439.11,566.55a1,1,0,0,1-.29.68,2,2,0,0,1-.42.33l-1.74,1-8.24,4.77a4.83,4.83,0,0,1-3.91.27L417.17,569,415,567.56a2.58,2.58,0,0,1-.43-.34,1,1,0,0,1-.29-.68,1.18,1.18,0,0,1,.51-.89l.2-.12,9.89-5.79a3.9,3.9,0,0,1,3.49,0l9.54,5.51.52.3A1.23,1.23,0,0,1,439.11,566.55Z"/><path class="cls-10" d="M454.29,556.34l-.52-.3h-1.21v.66l-8.33-4.81a3.87,3.87,0,0,0-3.49,0L433,556.45h-2.31a1.18,1.18,0,0,0-.51.89v1.36a1.21,1.21,0,0,0,.73,1l.06,0,9.48,6a4.83,4.83,0,0,0,3.91-.27l10-5.78.13-.08a1.17,1.17,0,0,0,.58-.93v-1.35A1.23,1.23,0,0,0,454.29,556.34Z"/><path class="cls-8" d="M455,557.35a1,1,0,0,1-.29.68,2,2,0,0,1-.42.33l-1.74,1-8.24,4.77a4.83,4.83,0,0,1-3.91.27l-7.34-4.64-2.2-1.4a2.31,2.31,0,0,1-.44-.34,1,1,0,0,1-.29-.68,1.18,1.18,0,0,1,.51-.89l.2-.12,9.89-5.78a3.83,3.83,0,0,1,3.49,0l9.54,5.5.52.3A1.23,1.23,0,0,1,455,557.35Z"/><path class="cls-10" d="M470.19,547.14l-.52-.29h-1.21v.65l-8.33-4.81a3.9,3.9,0,0,0-3.49,0l-7.78,4.56h-2.3a1.13,1.13,0,0,0-.52.88v1.37a1.21,1.21,0,0,0,.73,1l.06,0,9.48,6a4.83,4.83,0,0,0,3.91-.27l10-5.78.14-.08a1.18,1.18,0,0,0,.57-.92v-1.36A1.23,1.23,0,0,0,470.19,547.14Z"/><path class="cls-8" d="M470.91,548.15a1,1,0,0,1-.29.68,2,2,0,0,1-.42.33l-1.74,1-8.24,4.77a4.83,4.83,0,0,1-3.91.27L449,550.56l-2.2-1.4a2.31,2.31,0,0,1-.44-.34,1,1,0,0,1-.29-.68,1.13,1.13,0,0,1,.52-.88l.19-.13,9.89-5.78a3.83,3.83,0,0,1,3.49,0l9.54,5.51.52.29A1.23,1.23,0,0,1,470.91,548.15Z"/><path class="cls-10" d="M486.09,537.94l-.52-.29h-1.21v.65L476,533.49a3.87,3.87,0,0,0-3.49,0l-7.78,4.55h-2.3a1.13,1.13,0,0,0-.52.88v1.37a1.23,1.23,0,0,0,.73,1l.06,0,9.48,6a4.83,4.83,0,0,0,3.91-.27l10-5.77.14-.09a1.18,1.18,0,0,0,.57-.92V539A1.24,1.24,0,0,0,486.09,537.94Z"/><path class="cls-8" d="M486.81,539a1,1,0,0,1-.29.68,1.75,1.75,0,0,1-.42.33l-1.74,1-8.24,4.77a4.87,4.87,0,0,1-3.91.28l-7.34-4.65-2.2-1.4a2,2,0,0,1-.44-.34,1,1,0,0,1-.29-.68,1.13,1.13,0,0,1,.52-.88,1.74,1.74,0,0,1,.2-.13l9.88-5.78a3.83,3.83,0,0,1,3.49,0l9.54,5.51.52.29A1.24,1.24,0,0,1,486.81,539Z"/><path class="cls-10" d="M502,528.74l-.52-.29h-1.2v.65l-8.34-4.8a3.83,3.83,0,0,0-3.49,0l-7.78,4.55h-2.3a1.15,1.15,0,0,0-.52.88v1.37a1.22,1.22,0,0,0,.73,1l.06,0,9.48,6a4.79,4.79,0,0,0,3.91-.27l10-5.77.14-.09a1.18,1.18,0,0,0,.57-.92v-1.36A1.24,1.24,0,0,0,502,528.74Z"/><path class="cls-8" d="M502.71,529.75a1,1,0,0,1-.29.68,1.75,1.75,0,0,1-.42.33l-1.73,1L492,536.53a4.87,4.87,0,0,1-3.91.28l-7.34-4.65-2.2-1.4a1.7,1.7,0,0,1-.43-.34,1,1,0,0,1-.3-.68,1.15,1.15,0,0,1,.52-.88,1.74,1.74,0,0,1,.2-.13l9.88-5.78a3.83,3.83,0,0,1,3.49,0l9.54,5.51.52.29A1.24,1.24,0,0,1,502.71,529.75Z"/><path class="cls-10" d="M517.89,519.54l-.52-.29h-1.2v.65l-8.34-4.8a3.84,3.84,0,0,0-3.49,0l-7.78,4.55h-2.3a1.15,1.15,0,0,0-.52.88v1.37a1.21,1.21,0,0,0,.73,1l.06,0,9.48,6a4.79,4.79,0,0,0,3.91-.27l10-5.77.14-.09a1.17,1.17,0,0,0,.58-.92v-1.36A1.27,1.27,0,0,0,517.89,519.54Z"/><path class="cls-8" d="M518.62,520.55a1,1,0,0,1-.3.69,1.78,1.78,0,0,1-.42.32l-1.73,1-8.25,4.77a4.87,4.87,0,0,1-3.91.28L496.68,523l-2.21-1.4a1.94,1.94,0,0,1-.43-.33,1,1,0,0,1-.3-.69,1.15,1.15,0,0,1,.52-.88l.2-.13,9.88-5.78a3.84,3.84,0,0,1,3.49,0l9.54,5.51.52.29A1.27,1.27,0,0,1,518.62,520.55Z"/><path class="cls-10" d="M533.79,510.35l-.51-.3h-1.21v.65l-8.34-4.8a3.84,3.84,0,0,0-3.49,0l-7.78,4.55h-2.3a1.15,1.15,0,0,0-.52.88v1.37a1.21,1.21,0,0,0,.73,1l.06,0,9.48,6a4.79,4.79,0,0,0,3.91-.27l10-5.77.14-.08a1.19,1.19,0,0,0,.58-.93v-1.36A1.24,1.24,0,0,0,533.79,510.35Z"/><path class="cls-8" d="M534.52,511.35a1,1,0,0,1-.3.69,1.78,1.78,0,0,1-.42.32l-1.73,1-8.25,4.78a4.87,4.87,0,0,1-3.91.27l-7.33-4.65-2.21-1.4a1.94,1.94,0,0,1-.43-.33,1,1,0,0,1-.3-.69,1.15,1.15,0,0,1,.52-.88l.2-.12,9.88-5.79a3.87,3.87,0,0,1,3.49,0l9.55,5.51.51.3A1.24,1.24,0,0,1,534.52,511.35Z"/><path class="cls-10" d="M439.17,585.29l-.51-.29h-1.21v.65l-8.34-4.8a3.84,3.84,0,0,0-3.49,0l-7.78,4.55h-2.3a1.13,1.13,0,0,0-.51.88v1.37a1.21,1.21,0,0,0,.72,1l.06,0,9.49,6a4.84,4.84,0,0,0,3.91-.28l10-5.77.14-.08a1.19,1.19,0,0,0,.58-.93V586.3A1.24,1.24,0,0,0,439.17,585.29Z"/><path class="cls-8" d="M439.9,586.3a1,1,0,0,1-.3.69,1.78,1.78,0,0,1-.42.32l-1.73,1-8.24,4.78a4.87,4.87,0,0,1-3.91.27L418,588.71l-2.21-1.4a2.2,2.2,0,0,1-.43-.33,1,1,0,0,1-.29-.69,1.13,1.13,0,0,1,.51-.88l.2-.12,9.88-5.79a3.9,3.9,0,0,1,3.49,0l9.55,5.51.51.29A1.24,1.24,0,0,1,439.9,586.3Z"/><path class="cls-10" d="M455.07,576.1l-.51-.3h-1.21v.65l-8.34-4.8a3.84,3.84,0,0,0-3.49,0l-7.78,4.55h-2.3a1.15,1.15,0,0,0-.51.88v1.37a1.21,1.21,0,0,0,.72,1l.06,0,9.49,6a4.79,4.79,0,0,0,3.91-.27l10-5.77.14-.08a1.19,1.19,0,0,0,.58-.93V577.1A1.22,1.22,0,0,0,455.07,576.1Z"/><path class="cls-8" d="M455.8,577.1a1.06,1.06,0,0,1-.29.69,2.12,2.12,0,0,1-.43.33l-1.73,1-8.24,4.78a4.87,4.87,0,0,1-3.91.27l-7.34-4.65-2.21-1.39a2.69,2.69,0,0,1-.43-.34,1,1,0,0,1-.29-.69,1.15,1.15,0,0,1,.51-.88l.2-.12,9.88-5.79a3.9,3.9,0,0,1,3.49,0l9.55,5.51.51.3A1.22,1.22,0,0,1,455.8,577.1Z"/><path class="cls-10" d="M534.58,530.1l-.52-.29h-1.21v.65l-8.33-4.81a3.87,3.87,0,0,0-3.49,0l-7.78,4.55h-2.31a1.16,1.16,0,0,0-.51.88v1.37a1.23,1.23,0,0,0,.72,1l.07,0,9.48,6a4.79,4.79,0,0,0,3.91-.27l10-5.77.13-.09a1.17,1.17,0,0,0,.58-.92v-1.36A1.24,1.24,0,0,0,534.58,530.1Z"/><path class="cls-8" d="M535.3,531.11a1,1,0,0,1-.29.68,1.75,1.75,0,0,1-.42.33l-1.74,1-8.24,4.77a4.83,4.83,0,0,1-3.91.27l-7.34-4.64-2.21-1.4a2.15,2.15,0,0,1-.43-.34,1,1,0,0,1-.29-.68,1.16,1.16,0,0,1,.51-.88l.2-.13,9.89-5.78a3.83,3.83,0,0,1,3.49,0l9.54,5.51.52.29A1.24,1.24,0,0,1,535.3,531.11Z"/><path class="cls-10" d="M550.48,520.9l-.52-.29h-1.21v.65l-8.33-4.8a3.83,3.83,0,0,0-3.49,0L529.15,521h-2.31a1.16,1.16,0,0,0-.51.88v1.37a1.21,1.21,0,0,0,.72,1l.07,0,9.48,6a4.79,4.79,0,0,0,3.91-.27l10-5.77a.6.6,0,0,0,.13-.09,1.17,1.17,0,0,0,.58-.92v-1.36A1.24,1.24,0,0,0,550.48,520.9Z"/><path class="cls-8" d="M551.2,521.91a1,1,0,0,1-.29.69,2,2,0,0,1-.42.32l-1.74,1-8.24,4.77a4.87,4.87,0,0,1-3.91.28l-7.34-4.65-2.21-1.4a2.55,2.55,0,0,1-.43-.33,1,1,0,0,1-.29-.69,1.16,1.16,0,0,1,.51-.88l.2-.13,9.89-5.78a3.83,3.83,0,0,1,3.49,0l9.54,5.51.52.29A1.24,1.24,0,0,1,551.2,521.91Z"/><path class="cls-10" d="M566.38,511.71l-.52-.3h-1.2v.65l-8.34-4.8a3.83,3.83,0,0,0-3.49,0l-7.78,4.55h-2.3a1.15,1.15,0,0,0-.52.88v1.37a1.21,1.21,0,0,0,.73,1l.06,0,9.48,6a4.79,4.79,0,0,0,3.91-.27l10-5.77a.6.6,0,0,0,.13-.09,1.16,1.16,0,0,0,.58-.92v-1.36A1.22,1.22,0,0,0,566.38,511.71Z"/><path class="cls-8" d="M567.1,512.71a1,1,0,0,1-.29.69,2,2,0,0,1-.42.32l-1.73,1-8.25,4.77a4.87,4.87,0,0,1-3.91.28l-7.34-4.65-2.2-1.4a1.94,1.94,0,0,1-.43-.33,1,1,0,0,1-.3-.69,1.15,1.15,0,0,1,.52-.88l.19-.13,9.89-5.78a3.87,3.87,0,0,1,3.49,0l9.54,5.51.52.3A1.22,1.22,0,0,1,567.1,512.71Z"/><path class="cls-10" d="M582.28,502.51l-.52-.3h-1.2v.65l-8.34-4.8a3.83,3.83,0,0,0-3.49,0L561,502.62h-2.3a1.15,1.15,0,0,0-.52.88v1.37a1.21,1.21,0,0,0,.73,1l.06,0,9.48,6a4.83,4.83,0,0,0,3.91-.28l10-5.77.14-.08a1.2,1.2,0,0,0,.57-.93v-1.35A1.23,1.23,0,0,0,582.28,502.51Z"/><path class="cls-8" d="M583,503.52a1,1,0,0,1-.29.68,1.78,1.78,0,0,1-.42.32l-1.73,1-8.25,4.78a4.87,4.87,0,0,1-3.91.27l-7.34-4.65-2.2-1.4a1.94,1.94,0,0,1-.43-.33,1,1,0,0,1-.3-.69,1.15,1.15,0,0,1,.52-.88l.2-.12,9.88-5.79a3.9,3.9,0,0,1,3.49,0l9.54,5.51.52.3A1.23,1.23,0,0,1,583,503.52Z"/><path class="cls-10" d="M549.57,440.65l-.51-.29h-1.21V441l-8.34-4.81a3.9,3.9,0,0,0-3.49,0l-7.78,4.56h-2.3a1.14,1.14,0,0,0-.51.88V443a1.24,1.24,0,0,0,.72,1l.07,0,9.48,6a4.83,4.83,0,0,0,3.91-.27l10-5.77.13-.09a1.17,1.17,0,0,0,.58-.92v-1.36A1.22,1.22,0,0,0,549.57,440.65Z"/><path class="cls-8" d="M550.3,441.66a1,1,0,0,1-.29.68,2.36,2.36,0,0,1-.42.33l-1.74,1-8.24,4.77a4.83,4.83,0,0,1-3.91.27l-7.34-4.64-2.21-1.4a2.22,2.22,0,0,1-.43-.34,1,1,0,0,1-.29-.68,1.14,1.14,0,0,1,.51-.88,1.37,1.37,0,0,1,.2-.13l9.88-5.78a3.84,3.84,0,0,1,3.49,0l9.55,5.51.51.29A1.22,1.22,0,0,1,550.3,441.66Z"/><path class="cls-10" d="M565.48,431.45l-.52-.29h-1.21v.65L555.42,427a3.89,3.89,0,0,0-3.5,0l-7.77,4.55h-2.31a1.16,1.16,0,0,0-.51.88v1.37a1.23,1.23,0,0,0,.72,1l.07,0,9.48,6a4.79,4.79,0,0,0,3.91-.27l10-5.77.13-.09a1.17,1.17,0,0,0,.58-.92v-1.36A1.24,1.24,0,0,0,565.48,431.45Z"/><path class="cls-8" d="M566.2,432.46a1,1,0,0,1-.29.68,2,2,0,0,1-.42.33l-1.74,1-8.24,4.77a4.87,4.87,0,0,1-3.91.28l-7.34-4.65-2.21-1.4a1.9,1.9,0,0,1-.43-.34,1,1,0,0,1-.29-.68,1.16,1.16,0,0,1,.51-.88l.2-.13,9.88-5.78a3.86,3.86,0,0,1,3.5,0l9.54,5.51.52.29A1.24,1.24,0,0,1,566.2,432.46Z"/><path class="cls-10" d="M581.38,422.25l-.52-.29h-1.21v.65l-8.34-4.8a3.84,3.84,0,0,0-3.49,0L560,422.37h-2.3a1.16,1.16,0,0,0-.51.88v1.37a1.23,1.23,0,0,0,.72,1l.07,0,9.48,6a4.79,4.79,0,0,0,3.91-.27l10-5.77a.6.6,0,0,0,.13-.09,1.17,1.17,0,0,0,.58-.92v-1.36A1.24,1.24,0,0,0,581.38,422.25Z"/><path class="cls-8" d="M582.1,423.26a1,1,0,0,1-.29.69,2.32,2.32,0,0,1-.42.32l-1.74,1L571.41,430a4.88,4.88,0,0,1-3.91.28l-7.34-4.65-2.21-1.4a2.2,2.2,0,0,1-.43-.33,1,1,0,0,1-.29-.69,1.16,1.16,0,0,1,.51-.88l.2-.13,9.88-5.78a3.84,3.84,0,0,1,3.49,0l9.55,5.51.52.29A1.24,1.24,0,0,1,582.1,423.26Z"/><path class="cls-10" d="M566.27,451.3l-.51-.3h-1.21v.65l-8.34-4.8a3.84,3.84,0,0,0-3.49,0l-7.78,4.55h-2.3a1.13,1.13,0,0,0-.51.89v1.36a1.21,1.21,0,0,0,.72,1l.06,0,9.49,6a4.81,4.81,0,0,0,3.9-.28l10-5.77.14-.08a1.19,1.19,0,0,0,.58-.93v-1.35A1.24,1.24,0,0,0,566.27,451.3Z"/><path class="cls-8" d="M567,452.31a1,1,0,0,1-.3.68,1.78,1.78,0,0,1-.42.32l-1.73,1-8.25,4.78a4.85,4.85,0,0,1-3.9.27l-7.34-4.65-2.21-1.4a1.94,1.94,0,0,1-.43-.33,1,1,0,0,1-.29-.68,1.13,1.13,0,0,1,.51-.89l.2-.12,9.88-5.79a3.9,3.9,0,0,1,3.49,0l9.55,5.51.51.3A1.24,1.24,0,0,1,567,452.31Z"/><path class="cls-10" d="M582.17,442.1l-.51-.3h-1.21v.65l-8.34-4.8a3.84,3.84,0,0,0-3.49,0l-7.78,4.55h-2.3a1.16,1.16,0,0,0-.52.89v1.36a1.23,1.23,0,0,0,.73,1l.06,0,9.49,6a4.84,4.84,0,0,0,3.91-.28l10-5.77.14-.08a1.19,1.19,0,0,0,.58-.93v-1.35A1.22,1.22,0,0,0,582.17,442.1Z"/><path class="cls-8" d="M582.9,443.11a1,1,0,0,1-.3.68,1.81,1.81,0,0,1-.42.33l-1.73,1-8.24,4.78a4.87,4.87,0,0,1-3.91.27L561,445.51l-2.21-1.39a2.22,2.22,0,0,1-.43-.34,1,1,0,0,1-.3-.68,1.16,1.16,0,0,1,.52-.89l.2-.12,9.88-5.79a3.9,3.9,0,0,1,3.49,0l9.55,5.51.51.3A1.22,1.22,0,0,1,582.9,443.11Z"/><path class="cls-10" d="M598.08,432.9l-.52-.3h-1.21v.66L588,428.45a3.84,3.84,0,0,0-3.49,0L576.74,433h-2.3a1.16,1.16,0,0,0-.52.89v1.36a1.23,1.23,0,0,0,.73,1l.06,0,9.49,6a4.8,4.8,0,0,0,3.91-.28l10-5.77.14-.08a1.17,1.17,0,0,0,.58-.93v-1.35A1.23,1.23,0,0,0,598.08,432.9Z"/><path class="cls-8" d="M598.8,433.91a1,1,0,0,1-.3.68,1.81,1.81,0,0,1-.42.33l-1.73,1-8.24,4.77a4.83,4.83,0,0,1-3.91.27l-7.34-4.65-2.21-1.39a2,2,0,0,1-.43-.34,1,1,0,0,1-.3-.68,1.16,1.16,0,0,1,.52-.89l.2-.12,9.88-5.78a3.84,3.84,0,0,1,3.49,0l9.55,5.5.52.3A1.23,1.23,0,0,1,598.8,433.91Z"/><path class="cls-10" d="M582.84,461.85l-.51-.29h-1.21v.65l-8.34-4.8a3.84,3.84,0,0,0-3.49,0L561.51,462h-2.3a1.13,1.13,0,0,0-.51.88v1.37a1.23,1.23,0,0,0,.72,1l.06,0,9.49,6a4.79,4.79,0,0,0,3.91-.27l10-5.77a.48.48,0,0,0,.14-.09,1.17,1.17,0,0,0,.58-.92v-1.36A1.23,1.23,0,0,0,582.84,461.85Z"/><path class="cls-8" d="M583.57,462.86a1,1,0,0,1-.3.69,1.78,1.78,0,0,1-.42.32l-1.73,1-8.24,4.77a4.88,4.88,0,0,1-3.91.28l-7.34-4.65-2.21-1.4a1.94,1.94,0,0,1-.43-.33,1,1,0,0,1-.29-.69,1.13,1.13,0,0,1,.51-.88l.2-.13,9.88-5.78a3.84,3.84,0,0,1,3.49,0l9.55,5.51.51.29A1.23,1.23,0,0,1,583.57,462.86Z"/><path class="cls-10" d="M598.74,452.65l-.51-.29H597V453l-8.34-4.8a3.84,3.84,0,0,0-3.49,0l-7.78,4.55h-2.3a1.13,1.13,0,0,0-.51.88V455a1.21,1.21,0,0,0,.72,1l.06,0,9.49,6a4.79,4.79,0,0,0,3.91-.27l10-5.77.14-.08a1.19,1.19,0,0,0,.58-.93v-1.36A1.24,1.24,0,0,0,598.74,452.65Z"/><path class="cls-8" d="M599.47,453.66a1,1,0,0,1-.3.69,1.78,1.78,0,0,1-.42.32l-1.73,1-8.24,4.77a4.84,4.84,0,0,1-3.91.28l-7.34-4.65-2.21-1.4a1.94,1.94,0,0,1-.43-.33,1,1,0,0,1-.29-.69,1.13,1.13,0,0,1,.51-.88l.2-.13,9.88-5.78a3.84,3.84,0,0,1,3.49,0l9.55,5.51.51.29A1.24,1.24,0,0,1,599.47,453.66Z"/><path class="cls-10" d="M614.65,443.46l-.52-.3h-1.21v.65l-8.34-4.8a3.81,3.81,0,0,0-3.48,0l-7.78,4.55H591a1.16,1.16,0,0,0-.51.89v1.36a1.21,1.21,0,0,0,.72,1l.07,0,9.48,6a4.83,4.83,0,0,0,3.91-.28l10-5.77.13-.08a1.19,1.19,0,0,0,.58-.93v-1.35A1.23,1.23,0,0,0,614.65,443.46Z"/><path class="cls-8" d="M615.37,444.47a1,1,0,0,1-.29.68,2.32,2.32,0,0,1-.42.32l-1.74,1-8.24,4.78a4.87,4.87,0,0,1-3.91.27l-7.34-4.65-2.21-1.4a2.2,2.2,0,0,1-.43-.33,1,1,0,0,1-.29-.68,1.16,1.16,0,0,1,.51-.89l.2-.12,9.89-5.79a3.88,3.88,0,0,1,3.48,0l9.55,5.51.52.3A1.23,1.23,0,0,1,615.37,444.47Z"/><path class="cls-10" d="M599.36,472.41l-.52-.29h-1.2v.65L589.3,468a3.87,3.87,0,0,0-3.49,0L578,472.53h-2.3a1.13,1.13,0,0,0-.52.88v1.37a1.22,1.22,0,0,0,.73,1l.06,0,9.48,6a4.83,4.83,0,0,0,3.91-.27l10-5.77.14-.09a1.17,1.17,0,0,0,.58-.92v-1.36A1.25,1.25,0,0,0,599.36,472.41Z"/><path class="cls-8" d="M600.09,473.42a1,1,0,0,1-.3.68,1.58,1.58,0,0,1-.42.33l-1.73,1-8.25,4.77a4.87,4.87,0,0,1-3.91.28l-7.34-4.65-2.2-1.4a1.7,1.7,0,0,1-.43-.34,1,1,0,0,1-.3-.68,1.13,1.13,0,0,1,.52-.88,1,1,0,0,1,.2-.13l9.88-5.78a3.83,3.83,0,0,1,3.49,0l9.54,5.51.52.29A1.25,1.25,0,0,1,600.09,473.42Z"/><path class="cls-10" d="M615.26,463.21l-.52-.29h-1.2v.65l-8.34-4.8a3.84,3.84,0,0,0-3.49,0l-7.78,4.55h-2.3a1.15,1.15,0,0,0-.52.88v1.37a1.22,1.22,0,0,0,.73,1l.06,0,9.48,6a4.79,4.79,0,0,0,3.91-.27l10-5.77a.67.67,0,0,0,.14-.09,1.17,1.17,0,0,0,.58-.92v-1.36A1.25,1.25,0,0,0,615.26,463.21Z"/><path class="cls-8" d="M616,464.22a1,1,0,0,1-.3.68,1.58,1.58,0,0,1-.42.33l-1.73,1L605.29,471a4.87,4.87,0,0,1-3.91.28l-7.33-4.65-2.21-1.4a1.94,1.94,0,0,1-.43-.33,1,1,0,0,1-.3-.69,1.15,1.15,0,0,1,.52-.88,1.74,1.74,0,0,1,.2-.13l9.88-5.78a3.84,3.84,0,0,1,3.49,0l9.54,5.51.52.29A1.25,1.25,0,0,1,616,464.22Z"/><path class="cls-10" d="M631.16,454l-.51-.29h-1.21v.65l-8.34-4.8a3.84,3.84,0,0,0-3.49,0l-7.78,4.55h-2.3a1.15,1.15,0,0,0-.52.88v1.37a1.23,1.23,0,0,0,.73,1l.06,0,9.49,6a4.79,4.79,0,0,0,3.91-.27l10-5.77a.48.48,0,0,0,.14-.09,1.16,1.16,0,0,0,.58-.92V455A1.27,1.27,0,0,0,631.16,454Z"/><path class="cls-8" d="M631.89,455a1,1,0,0,1-.3.69,1.78,1.78,0,0,1-.42.32l-1.73,1-8.24,4.77a4.88,4.88,0,0,1-3.91.28L610,457.43l-2.21-1.4a1.94,1.94,0,0,1-.43-.33,1,1,0,0,1-.3-.69,1.15,1.15,0,0,1,.52-.88l.2-.13,9.88-5.78a3.84,3.84,0,0,1,3.49,0l9.55,5.51.51.29A1.27,1.27,0,0,1,631.89,455Z"/><path class="cls-10" d="M616.05,483l-.52-.29h-1.21v.65L606,478.52a3.9,3.9,0,0,0-3.49,0l-7.78,4.55h-2.31a1.18,1.18,0,0,0-.51.89v1.36a1.21,1.21,0,0,0,.72,1l.07.05,9.48,6a4.83,4.83,0,0,0,3.91-.27l10-5.78.13-.08a1.17,1.17,0,0,0,.58-.93V484A1.23,1.23,0,0,0,616.05,483Z"/><path class="cls-8" d="M616.77,484a1,1,0,0,1-.29.68,2,2,0,0,1-.42.33l-1.74,1-8.24,4.77a4.83,4.83,0,0,1-3.91.27l-7.34-4.64-2.21-1.4a2.58,2.58,0,0,1-.43-.34,1,1,0,0,1-.29-.68,1.18,1.18,0,0,1,.51-.89l.2-.12,9.89-5.78a3.83,3.83,0,0,1,3.49,0l9.54,5.51.52.29A1.23,1.23,0,0,1,616.77,484Z"/><path class="cls-10" d="M632,473.77l-.52-.29h-1.21v.65l-8.33-4.81a3.9,3.9,0,0,0-3.49,0l-7.78,4.56h-2.3a1.13,1.13,0,0,0-.52.88v1.37a1.23,1.23,0,0,0,.73,1l.06,0,9.48,6a4.83,4.83,0,0,0,3.91-.27l10-5.77.14-.09a1.18,1.18,0,0,0,.57-.92v-1.36A1.23,1.23,0,0,0,632,473.77Z"/><path class="cls-8" d="M632.67,474.78a1,1,0,0,1-.29.68,2,2,0,0,1-.42.33l-1.74,1L622,481.56a4.83,4.83,0,0,1-3.91.27l-7.34-4.64-2.2-1.4a2,2,0,0,1-.43-.34,1,1,0,0,1-.3-.68,1.13,1.13,0,0,1,.52-.88l.19-.13L618.4,468a3.83,3.83,0,0,1,3.49,0l9.54,5.51.52.29A1.23,1.23,0,0,1,632.67,474.78Z"/><path class="cls-10" d="M647.85,464.57l-.52-.29h-1.2v.65l-8.34-4.81a3.87,3.87,0,0,0-3.49,0l-7.78,4.55h-2.31a1.16,1.16,0,0,0-.51.88v1.37a1.22,1.22,0,0,0,.73,1l.06,0,9.48,6a4.79,4.79,0,0,0,3.91-.27l10-5.77.14-.09a1.18,1.18,0,0,0,.57-.92v-1.36A1.24,1.24,0,0,0,647.85,464.57Z"/><path class="cls-8" d="M648.57,465.58a1,1,0,0,1-.29.68,1.75,1.75,0,0,1-.42.33l-1.73,1-8.25,4.77a4.87,4.87,0,0,1-3.91.28L626.63,468l-2.2-1.4a1.7,1.7,0,0,1-.43-.34,1,1,0,0,1-.3-.68,1.16,1.16,0,0,1,.51-.88l.2-.13,9.89-5.78a3.83,3.83,0,0,1,3.49,0l9.54,5.51.52.29A1.24,1.24,0,0,1,648.57,465.58Z"/><path class="cls-15" d="M280.36,536.19c0,.14,0,.3,0,.44v-.84l.08.06C280.4,536,280.37,536.08,280.36,536.19Z"/><path class="cls-10" d="M478.5,669a18.09,18.09,0,0,1-9.14-2.08L345.29,595.3l-51.93-30-9.65-5.57a7.53,7.53,0,0,1-3.37-6.5V536.63c0,1.89,1.23,3.79,3.73,5.22l6.21,4,62.55,39.9L470.3,660.65a13.75,13.75,0,0,0,1.89.91l.6.21a3,3,0,0,0,.4.12,5.6,5.6,0,0,0,.7.2l.34.1c.22,0,.43.11.65.15a6.38,6.38,0,0,0,.63.12l.39.07q.32.06.63.09l.81.09h.07c.35,0,.7.06,1,.07h0Z"/><path class="cls-10" d="M752,507.64a8.43,8.43,0,0,1-2.84,2.51l-4.75,2.74-256,147.76a18.86,18.86,0,0,1-9.89,2.13l0,6.24a17.78,17.78,0,0,0,8.42-2.08l262.3-151.56.32-.19c2.06-1.28,3.16-2.89,3.3-4.52v-5.73A4.77,4.77,0,0,1,752,507.64Z"/><polygon class="cls-8" points="296.34 562.21 296.34 557.41 312.94 567 312.94 571.79 296.34 562.21"/><polygon class="cls-8" points="314.63 572.78 314.63 567.99 325.09 574.06 325.09 578.85 314.63 572.78"/><polygon class="cls-8" points="326.91 579.86 326.91 575.07 337.37 581.14 337.37 585.92 326.91 579.86"/><path class="cls-12" d="M301.93,522.56c-1.7-1-1.51-2.7.43-3.82L320,508.54a7.38,7.38,0,0,1,6.62-.25c1.7,1,1.5,2.7-.44,3.82l-17.67,10.2A7.36,7.36,0,0,1,301.93,522.56Z"/><path class="cls-10" d="M301.93,521.66c-1.7-1-1.51-2.7.43-3.82L320,507.64a7.38,7.38,0,0,1,6.62-.25c1.7,1,1.5,2.7-.44,3.82l-17.67,10.2A7.36,7.36,0,0,1,301.93,521.66Z"/><path class="cls-12" d="M520.87,401.52c-1.7-1-1.51-2.7.43-3.82L539,387.5a7.36,7.36,0,0,1,6.61-.25c1.7,1,1.51,2.7-.43,3.82l-17.68,10.2A7.33,7.33,0,0,1,520.87,401.52Z"/><path class="cls-10" d="M520.87,400.63c-1.7-1-1.51-2.7.43-3.82L539,386.61a7.33,7.33,0,0,1,6.61-.25c1.7,1,1.51,2.7-.43,3.81l-17.68,10.21A7.36,7.36,0,0,1,520.87,400.63Z"/><polygon class="cls-9" points="546.76 371.23 373.07 467.69 295.22 510.92 295.36 296.41 517.3 171.19 546.53 154.7 546.76 371.23"/><path class="cls-8" d="M410.74,224.08a9.75,9.75,0,0,1,4.4-7.61c2.42-1.39,4.39-.27,4.39,2.48a9.84,9.84,0,0,1-4.39,7.61C412.72,228,410.74,226.88,410.74,224.08Z"/><path class="cls-9" d="M517.66,171.19c-25.18,77-71,212.92-144.23,296.5l-77.85,43.23.14-214.51Z"/><path class="cls-16" d="M563.79,250.72c2.58-.62,7.35.47,7.35.47s6.72-2.54,8-2.33,3.56,2.09,5.78,2.76c1.73.53,3.67-.55,3.31-1.68-.08-.29-1.26-1-1.61-1.31-3-2.75-1.91-2.42-1.91-2.42l.14-.08a5,5,0,0,0,.8-.24,4.75,4.75,0,0,0,2.53-2.54c.34-.81.38-1.53.14-1.78-2.77-2.93-10.1,1.08-10.1,1.08L566,241.54l-.74-.07Z"/><path class="cls-16" d="M564.78,249.24c2.58-.61,7.35.46,7.35.46s6.72-2.53,8-2.31a1.31,1.31,0,0,1,.32.1c1.26-.45,2.51-.88,3.68-1.27a8.59,8.59,0,0,0,1.46-.63,1.17,1.17,0,0,1,.12-.85l.12-.1a4.1,4.1,0,0,0,1.09-.35,4.38,4.38,0,0,0,1.28-.94c.34-.81.38-1.53.14-1.78a3.31,3.31,0,0,0-1.74-.94c-3.3-.74-8.36,2-8.36,2L566,241.54Z"/><path class="cls-16" d="M580.44,247.49c1.29.56,3.19,2.95,5.22,3.58a3,3,0,0,0,1.79.05c1.09-.32,1.52-1.36.34-2.42a6.68,6.68,0,0,1-2.13-2.81,2.26,2.26,0,0,1-.08-.3,8.59,8.59,0,0,1-1.46.63C583,246.61,581.7,247,580.44,247.49Z"/><path class="cls-17" d="M566.89,250.52s0,2.21-.92,2.22-1.57-2.31-1.57-2.31Z"/><path class="cls-18" d="M566,252.74c-1.57-5.11.63-10.13,1.58-11.93.22-.42.37-.67.39-.7h0l-5-.4-.4,0c-2.09,1.11-2.9,13.19-2.9,13.19Z"/><path class="cls-19" d="M463.63,233.44S495.55,249,506.84,249.9l.77,0c18.65,5.46,54.71,3.5,54.71,3.5a5.61,5.61,0,0,1-.18-.62,14.16,14.16,0,0,1-.28-4,1.93,1.93,0,0,1,0-.24c0-1,.16-2,.3-3,.19-1.32.43-2.57.65-3.6s.42-1.83.54-2.27c0-.23.09-.36.09-.36l-52-4.89-44.36-25-1.89,13.11Z"/><path class="cls-20" d="M463.63,233.44S495.55,249,506.84,249.9l.77,0c18.65,5.46,54.71,3.5,54.71,3.5a5.61,5.61,0,0,1-.18-.62,14.16,14.16,0,0,1-.28-4,1.93,1.93,0,0,1,0-.24l-.5,0-1.31-.09c-15.84-1-52.67-3.37-55.83-4.62s-28.36-15.3-39-21.27Z"/><path class="cls-17" d="M567.14,241.64l1.05.1a5.46,5.46,0,0,0-.25-1.63h0A11.41,11.41,0,0,0,567.14,241.64Z"/><g class="cls-21"><path class="cls-19" d="M741.74,336.55v23s41.63,26.13,46.18,25.83-2.77-47.11-2.77-47.11Z"/><path class="cls-22" d="M794.39,345.39v33.48a6.4,6.4,0,0,1-6.28,6.51H788a6.4,6.4,0,0,1-6.29-6.51V345.39a4.53,4.53,0,0,1,0-.74,6.36,6.36,0,0,1,6.24-5.78h.13a6.09,6.09,0,0,1,3.6,1.18,5.57,5.57,0,0,1,.59.5A6.53,6.53,0,0,1,794.39,345.39Z"/><path class="cls-22" d="M792.3,340.55h-.07c-2.88-.53-8.41-.54-10.54,6.56-.08.27-.16.55-.23.84-1.44,5.88-1.46,9.27-1.16,11.16a1.54,1.54,0,0,1-1.72,1.77L761,358.55l-.31-.36-18.4-20.3a2.31,2.31,0,0,1-.62-1.58v-9.68a3.6,3.6,0,0,1,.21-1.22c.69-1.87,3.17-7.3,9.33-8.92l40.4,23.19a.26.26,0,0,1,.07.37A5.57,5.57,0,0,1,792.3,340.55Z"/><path class="cls-19" d="M783.53,350.42l9-5.36s-1.16-3.57-3.79-2.82C786.55,342.85,783.88,344.89,783.53,350.42Z"/><path class="cls-23" d="M779.56,317.46c.39,2.2,1.75,4.09,2.57,6.16s1,4.74-.65,6.24a6.81,6.81,0,0,1-3.78,1.36l-1.78.27a8.51,8.51,0,0,1-2.66.12,12.68,12.68,0,0,1-2-.63,4.73,4.73,0,0,0-1.51-.38,8.73,8.73,0,0,1-2.4-.07,3.33,3.33,0,0,1-1.71-1.58,10.83,10.83,0,0,1,1.07-12.49c.48-.53,1-1.13,1-1.83a4.64,4.64,0,0,0-.26-.94,2.84,2.84,0,0,1,.62-2.35c1.42-1.94,4-2.64,6.44-2.58a10.51,10.51,0,0,1,1.27.12,4.39,4.39,0,0,1,2.15,1C780,311.63,779.13,314.83,779.56,317.46Z"/><path class="cls-23" d="M778,309.86c2,1.77,1.16,5,1.59,7.6.39,2.2,1.75,4.09,2.57,6.16s1,4.74-.65,6.24a6.81,6.81,0,0,1-3.78,1.36l-1.78.27a8.51,8.51,0,0,1-2.66.12,12.68,12.68,0,0,1-2-.63,2.62,2.62,0,0,1,.32-1.33,3.86,3.86,0,0,1,1.29-1.12c2-1.29,4-2.94,4.29-5.25a3.35,3.35,0,0,0,0-1,6.35,6.35,0,0,0-1.36-2.19,9.55,9.55,0,0,1-1.18-7.86,19.08,19.08,0,0,1,1.19-3.35A4.39,4.39,0,0,1,778,309.86Z"/><path class="cls-8" d="M766.07,307v5.92a11.37,11.37,0,0,0,10.73,3.21,5,5,0,0,0,1.34-.49l2.1-1.09-.39-5.15Z"/><path class="cls-10" d="M740,209.63c.78.23,14.36-1.24,22.48,12s18,53.18,18,53.18,5.8,24.95.21,36.05L777,302l-17.8-61.2Z"/><path class="cls-10" d="M734,222.35a21.5,21.5,0,0,0,2.72,8.84C742.79,242.68,760.5,272,760.5,272s5,9.38,4.59,14,.58,21.47.58,21.47a7.54,7.54,0,0,0,3.13,3.12h0c2.28,1.29,6,2.11,11.88.28,0,0,4.93-22.11-5.07-41.68s-23.53-49.91-23.53-49.91-4.49-9.82-12.88-7.2C737,212.73,733.61,216.27,734,222.35Z"/><path class="cls-19" d="M780.74,335.75h0c0,.36,0,.74,0,1.12,0,0-.19,1.3-2.82.49-1.67-.51-.17-7-3.14-10.1a5,5,0,0,0-1.36-1c0-.25,0-.46-.08-.64-.23-1.41.71-2.47,1.48-2.29h0a5.85,5.85,0,0,1,.51.36,12.06,12.06,0,0,1,1.74,1.68h0A15.94,15.94,0,0,1,780.74,335.75Z"/><path class="cls-19" d="M780.74,335.75h0a4.05,4.05,0,0,1-.38,1c-.41.34-2.47,1.13-2.25-3,.2-3.91-1.68-5.66-3.33-6.46a5,5,0,0,0-1.36-1c0-.25,0-.46-.08-.64-.23-1.41.71-2.47,1.48-2.29h0a5.85,5.85,0,0,1,.51.36,12.06,12.06,0,0,1,1.74,1.68h0A15.94,15.94,0,0,1,780.74,335.75Z"/><path class="cls-10" d="M760.5,272s5,9.38,4.59,14,.58,21.47.58,21.47a7.54,7.54,0,0,0,3.13,3.12c1.05-4.06,1.35-26.74-3.23-39.74-1.12-3.18-6-12.33-9.64-18-.32,3.06-1.24,6.63-1.71,9.49C756.43,266,760.5,272,760.5,272Z"/><g class="cls-24"><ellipse class="cls-25" cx="735.85" cy="481.45" rx="85.93" ry="31.94"/></g><path class="cls-26" d="M731,482.29s2.25,11.53-1.25,13.54-13.25,2.41-14.83.09-1.54-4.21-6.29-4.65-17.79-4.17-18.71-9.34,5.41-4.61,6-4.13,15.91,2.15,22.82.23S731,482.29,731,482.29Z"/><path class="cls-26" d="M748.44,460.75s-17.77-10.28-13.31,1.83c3.09,8.38,12.61,11.49,13.31,12.89s5.14,11.06,14.46,7.14c5.11-2.15.69-16.38,0-16.38S748.44,460.75,748.44,460.75Z"/><path class="cls-10" d="M733.28,252.6l12.44.48,7.13.27,1.7.06c.45-3,.84-5.64,1.15-8.07.27-2.09.5-4,.67-5.74.94-9.27.61-14-.28-17.72-.24-1-.53-2-.85-2.95a17.47,17.47,0,0,0-1-2.3c-3-5.71-8.35-6.75-12.07-6.7-.65,0-1.25,0-1.77.11a15.4,15.4,0,0,0-2.28.4l-.48,1.33c-1.07,3-3.73,10.38-6,16.57-2,5.33-3.65,9.76-3.79,9.69C714.38,231.59,733.28,252.6,733.28,252.6Z"/><path class="cls-19" d="M764,467.07a3.09,3.09,0,0,1-1.34,2.41,18.29,18.29,0,0,1-7.21,3,8,8,0,0,1-1.19.08,8.48,8.48,0,0,1-7-3.53,14.78,14.78,0,0,1-1.51-2.28,28.17,28.17,0,0,1-2.57-7.17c-2.8-12.14-.84-28.43-5.56-39.17-4.91-11.12-10.81-48.06-10.81-48.06s.48-3.22,1.19-8.07c1.49-10.11,4-27.36,5.1-37.37.51-4.54.76-7.59.51-7.82-.46-.44,3.42-1.84,7.88-3.24,2.09-.65,4.28-1.31,6.23-1.88,3.24-1,5.74-1.65,5.74-1.65-1,4.18,1,57.75-.52,78.93,0,0,7.61,18.75,10.29,47.72,0,.35.06.69.08,1a2,2,0,0,0,0,.38A218.07,218.07,0,0,1,764,467.07Z"/><path class="cls-19" d="M727.24,424.55c-.15,4.71,14.23,59.18,2.48,61.81a18.13,18.13,0,0,1-3.55.52c-8.78.1-11.55-2.43-13.66-6.38-2.34-4.43-9.29-63.24-9.41-65.06-.52-8.38-7-78.44-7-81.47,0-4.52,19.94-4.71,30.48-4a53.71,53.71,0,0,1,7.73.88C738.06,331.89,727.36,419.85,727.24,424.55Z"/><path class="cls-10" d="M754.26,472.57a8.48,8.48,0,0,1-7-3.53,14.78,14.78,0,0,1-1.51-2.28,28.17,28.17,0,0,1-2.57-7.17c-2.8-12.14-.84-28.43-5.56-39.17-4.91-11.12-10.81-48.06-10.81-48.06s.48-3.22,1.19-8.07l3.56-3.55c.19.52,6.62,41.22,9.59,47.7C744,414.67,757.25,459.9,754.26,472.57Z"/><path class="cls-19" d="M727.24,424.55c-.15,4.71,14.23,59.18,2.48,61.81a22.89,22.89,0,0,1-3.55.52c2.82-8.29,4.18-23.8,1.11-34.23-4-13.59-7.59-32.84-6.46-40.76,2.53-17.63,4.64-56.44,5.79-81.9a53.71,53.71,0,0,1,7.73.88C738.06,331.89,727.36,419.85,727.24,424.55Z"/><path class="cls-10" d="M751.1,389.48c1.59-10.85-2.42-65.21-3.36-75.5,3.24-1,5.74-1.65,5.74-1.65-1,4.18,1,57.75-.52,78.93,0,0,7.61,18.75,10.29,47.72C762,427.82,751.1,389.48,751.1,389.48Z"/><polygon class="cls-27" points="735.33 328.27 738.17 344.63 740.24 343.65 740.42 326.7 735.49 326.25 735.33 328.27"/><path class="cls-10" d="M688,344s1.61.66,4.24,1.58c1.94.68,4.45,1.51,7.28,2.32l.18.05c7.91,2.25,18.25,4.33,25.86,2.75a16.63,16.63,0,0,0,4.62-1.64A11.36,11.36,0,0,0,733,347l2-14.23h0l.5-3.59h0l.24-1.67,3.28,16.6.12,0,.59-.2.14,0,.37-.13h0l.09,0,.18-.07.61-.24.62-.27h0l.82-.36.26-.13c.31-.14.63-.3.95-.46l.68-.35.9-.5c.67-.38,1.38-.81,2.09-1.29l.68-.45.68-.49.22-.16.54-.41.61-.48.68-.57.34-.3.18-.16h0c.5-.45,1-.93,1.49-1.43l.19-.2.24-.26c.15-.15.29-.31.43-.47l.18-.2.75-.9.27-.34c.45-.58.89-1.19,1.3-1.83l.27-.43a2.26,2.26,0,0,0,.16-.26l.13-.25,0-.06a1.63,1.63,0,0,0,.11-.23l0-.07a1.89,1.89,0,0,1,.11-.25s0,0,0-.05l.11-.27c0-.1.07-.21.1-.32a6.32,6.32,0,0,0,.18-.62,3,3,0,0,0,.07-.32,2.21,2.21,0,0,0,.05-.25,1.42,1.42,0,0,0,0-.2,2.34,2.34,0,0,0,0-.26.77.77,0,0,0,0-.15c0-.31.08-.63.1-.95l0-.44q0-.72,0-1.5c0-.73-.09-1.5-.19-2.3l-.06-.5c0-.17-.05-.34-.07-.52s-.09-.55-.14-.83c0-.1,0-.2-.05-.3l0-.19c0-.29-.11-.58-.17-.87,0-.13-.05-.26-.07-.38l-.15-.72c-.08-.34-.15-.68-.23-1l-.12-.53q-.35-1.44-.75-2.94c-.11-.42-.22-.85-.34-1.28l-.36-1.31c-.12-.43-.25-.88-.37-1.32s-.25-.89-.38-1.33c0-.06,0-.11,0-.16-.17-.57-.33-1.14-.49-1.72l-.21-.76-.12-.44c-.36-1.28-.72-2.58-1.06-3.87,0-.22-.11-.44-.16-.65-.12-.44-.23-.87-.33-1.31-.06-.21-.11-.43-.16-.65l-.16-.65-.15-.65-.05-.21-.24-1.1c-.19-.86-.36-1.73-.52-2.59-.19-1.05-.35-2.08-.49-3.11a41.08,41.08,0,0,1-.37-7.28c0-.33,0-.65.06-1l0-.33,0-.36s0-.09,0-.13l0-.31c0-.05,0-.11,0-.16s0-.18,0-.28l.06-.42c0-.14,0-.29.07-.44s.05-.29.08-.43l.06-.3c0-.08,0-.17.05-.26l.06-.26a.36.36,0,0,0,0-.1c0-.1.05-.21.08-.31a1.46,1.46,0,0,1,0-.2,2.33,2.33,0,0,1,.07-.25c0-.13.07-.27.11-.4s.09-.31.14-.47c.47-1.47,1-3.19,1.44-5.1.62-2.44,1.22-5.19,1.77-8.14h0l0-.16c0-.26.1-.53.14-.79h0l.09-.48,0-.12c.06-.32.11-.64.16-1h0a1.42,1.42,0,0,0,0-.2c0-.2.06-.39.1-.59h0c0-.1,0-.21.05-.32s0-.06,0-.08l.15-.95v0l.15-1c.06-.38.11-.76.16-1.15s.09-.64.13-1,.11-.85.16-1.28.07-.59.1-.88l.09-.83c0-.25.06-.51.08-.77s.07-.61.09-.91c0-.5.1-1,.14-1.5,0-.33,0-.65.08-1s.05-.71.07-1.06l.06-1c0-.42.05-.85.07-1.28,0-.14,0-.29,0-.43l0-.57c0-.26,0-.51,0-.76,0-.51,0-1,0-1.52,0-.69,0-1.38,0-2.06v0c0-1.21,0-2.4-.09-3.59,0-.13,0-.27,0-.41s0-.44,0-.66c0-.43-.05-.87-.09-1.3s-.07-.86-.11-1.28-.09-.85-.13-1.27-.11-.84-.17-1.25c0-.14,0-.27-.05-.4s0-.23,0-.34,0-.33-.08-.49-.07-.41-.1-.61-.07-.36-.1-.54a.85.85,0,0,0,0-.17c0-.16-.06-.32-.09-.48l-.24-1.13h0s0,0,0,0c-.09-.39-.18-.77-.28-1.15s-.19-.7-.29-1.05l-.12-.39c-.06-.22-.13-.45-.2-.66l-.15-.45v0l-.13-.37c0-.06,0-.12-.07-.19a2,2,0,0,0-.1-.26l-.09-.26c0-.11-.08-.21-.13-.32l0-.08-.18-.43v0c-.06-.16-.13-.31-.19-.46l0,0c-.06-.14-.13-.27-.19-.41s-.14-.3-.22-.45-.1-.21-.16-.32l-.07-.14-.22-.41c-.06-.12-.13-.24-.2-.36a.41.41,0,0,1,0-.09l-.21-.35,0,0a3.73,3.73,0,0,0-.25-.39h0c-.08-.12-.16-.24-.23-.36l0-.06-.26-.36c-.18-.25-.36-.5-.55-.74s-.2-.23-.29-.35l-.57-.64s0,0,0,0l-.31-.32c-.32-.31-.65-.62-1-.9l-.32-.25-.1-.08-.27-.2-.11-.08L747,212h0a3.17,3.17,0,0,0-.36-.23h0c-.25-.16-.51-.3-.77-.44l-.25-.13-.24-.12-.42-.2-.16-.07-.45-.18-.2-.08c-.24-.08-.48-.17-.73-.24l-.2-.06-.29-.08-.24-.06-.24-.06-.25-.06-.33-.06-.18,0-.28-.05-.26,0-.4-.05-.3,0h-.09l-.33,0h0c-.43,0-.87,0-1.31,0-.7,0-1.42,0-2.15.12l-.23,0h0a5.23,5.23,0,0,0-2.25,1.11c-.74.54-1.55,1.22-2.46,2-.5.42-1,.86-1.58,1.31h0A36,36,0,0,1,726,217a19.77,19.77,0,0,1-11.85,3.08l-1.15-.06h0a23.67,23.67,0,0,0-2.57.06,20.15,20.15,0,0,0-2.6.39,18.44,18.44,0,0,0,4.27,6.1,16.77,16.77,0,0,0-8.42-4h0l-1.81,1.06,0,0h0l-.07.09c-3.43,4.55-3.92,10.3-3.28,16.57.42,4.17,1.34,8.56,2.22,13,1.83,9.2,3.5,18.52.2,26.18C688.76,307.69,688,344,688,344Z"/><path class="cls-10" d="M701.84,223.65l1.81-1.06h0a16.77,16.77,0,0,1,8.42,4,18.44,18.44,0,0,1-4.27-6.1A10.62,10.62,0,0,0,701.84,223.65Z"/><path class="cls-10" d="M688,344s1.61.66,4.24,1.58c1.94.68,4.45,1.51,7.28,2.32l.18.05a3.48,3.48,0,0,0-.21-.68,6.18,6.18,0,0,0-.61-1c-8.31-11.82,3.62-44,14-69.43,12.38-30.49,7.44-40.77,1.77-47.42-.86-1-1.73-1.92-2.56-2.82a16.77,16.77,0,0,0-8.42-4h0l-1.81,1.06,0,0h0l-.07.09c-3.43,4.55-3.92,10.3-3.28,16.57.42,4.17,1.34,8.56,2.22,13,1.83,9.2,3.5,18.52.2,26.18C688.76,307.69,688,344,688,344Z"/><path class="cls-28" d="M735,213.14s-21.09,4.6-19.44,2a5.6,5.6,0,0,0,.33-3.56,25.91,25.91,0,0,0-1.79-5.76l-.11-.26s2.45-7.39,2.38-7.92S720,183.88,720,183.88s13.07.86,13.94,1.21,1.49,10.2.13,14.93a6,6,0,0,1-.57,1.44c-1.4,2.46-.25,6.9.67,9.53C734.57,212.29,735,213.14,735,213.14Z"/><path class="cls-8" d="M738.17,213.31c0,1-1.09,2.55-3.6,3.95-3.74,2.09-10.64,3.83-21.72,2.78l.4-5.29c.17-1.63,3-1.71,4.66-1.57,3.08.28,8,.28,12.38-1.69a14.25,14.25,0,0,0,4.55-3.16S738.17,210.88,738.17,213.31Z"/><path class="cls-23" d="M728.32,193.28s-2.44,7.66-4.78,11.58-16.31,3.31-17.5,2.78a2.65,2.65,0,0,1-1.17-3.76c1.44-3,.19-10.34-.33-10.51s-2.1-1.4-1.82-2.18,3-3,3.3-4.45-.44-3-.77-6c-.23-1.9,1.46-5.75,2.75-8.36.78-1.59,1.43-2.72,1.43-2.72l13.67.53,3.74,5.41,1.36,16.31Z"/><path class="cls-19" d="M743.9,180.7c0,3.76-.82,7.32-2.18,9A64.67,64.67,0,0,0,735,201.29c-1.32,2.89-3.93,3.66-6.63,2.89s-3.93-6-2.8-9.81c1.64-5.52-4.8-6.79-7.3-5.52s-2.22,4.27-3,5.58H714c-2.66-5.58,3.66-13.17,3-17.83-.2-1.3-.25-2.06-1-2.61a6.66,6.66,0,0,0-2.07-1c-.82-.4-1.63-.8-2.45-1.17a37.47,37.47,0,0,0-4-1.63c-3.36-3.18.15-10.06.46-9.81,2,1.61,7.61,0,7.61,0,15.82-3.53,23.08,5.36,26.21,10.46C743.25,173.34,743.92,177.13,743.9,180.7Z"/><path class="cls-19" d="M741.72,170.86c-3.13-5.1-10.39-14-26.21-10.46a12.66,12.66,0,0,1-7.61,0c-1.12-.36-3.82,6.63-.46,9.81a4.73,4.73,0,0,0,1.23.83,44.19,44.19,0,0,0,5.19,2l2.07,1c10.36,4.91,21.21,9.49,28,6.71C743.92,177.13,743.25,173.34,741.72,170.86Z"/><path class="cls-7" d="M738.17,213.31c0,1-1.09,2.55-3.6,3.95a16.5,16.5,0,0,0-4.28-5.77,14.25,14.25,0,0,0,4.55-3.16S738.17,210.88,738.17,213.31Z"/><path class="cls-10" d="M739.12,344l.59-.2.14,0,.37-.13h0l.1,0,.18-.07.61-.24.62-.27h0l.82-.36.26-.13c.31-.14.63-.3.95-.46l.68-.35.9-.5c.67-.38,1.38-.81,2.09-1.29l.68-.45.68-.49.22-.16.54-.41.61-.48.68-.57.34-.3.18-.16h0c.5-.45,1-.93,1.49-1.43l.19-.2.24-.26c.15-.15.29-.31.43-.47l.18-.2.75-.9.27-.34c.45-.58.89-1.19,1.3-1.83l.27-.43a2.26,2.26,0,0,0,.16-.26l.13-.25,0-.06a1.63,1.63,0,0,0,.11-.23l0-.07a1.89,1.89,0,0,1,.11-.25s0,0,0-.05l.11-.27c0-.1.07-.21.1-.32a6.32,6.32,0,0,0,.18-.62,3,3,0,0,0,.07-.32,2.21,2.21,0,0,0,.05-.25,1.42,1.42,0,0,0,0-.2,2.34,2.34,0,0,0,0-.26.77.77,0,0,0,0-.15c0-.31.08-.63.1-.95l0-.44q0-.72,0-1.5c0-.73-.09-1.5-.19-2.3l-.06-.5c0-.17-.05-.34-.07-.52s-.09-.55-.14-.83c0-.1,0-.2-.05-.3l0-.19c0-.29-.11-.58-.17-.87,0-.13-.05-.26-.07-.38l-.15-.72c-.08-.33-.15-.68-.23-1l-.12-.53q-.35-1.44-.75-2.94c-.11-.42-.22-.85-.34-1.28l-.36-1.31c-.12-.43-.25-.88-.37-1.32s-.25-.89-.38-1.33c0-.06,0-.11,0-.16-.17-.57-.33-1.14-.49-1.72l-.21-.76-.12-.44c-.36-1.28-.72-2.58-1.06-3.87,0-.22-.11-.44-.16-.65-.12-.44-.23-.87-.33-1.31-.06-.21-.11-.43-.16-.65l-.16-.65-.15-.65-.05-.21-.24-1.1c-.19-.86-.36-1.73-.52-2.59-.19-1.05-.35-2.09-.49-3.11a41.13,41.13,0,0,1-.37-7.28c0-.33,0-.65.06-1l0-.33,0-.36s0-.09,0-.13l0-.31c0-.05,0-.11,0-.16s0-.18,0-.28l.06-.42c0-.14,0-.29.07-.44s.05-.29.08-.43l.06-.3c0-.08,0-.17.05-.26l.06-.26a.36.36,0,0,0,0-.1c0-.1.05-.21.08-.31a1.46,1.46,0,0,1,0-.2,2.33,2.33,0,0,1,.07-.25c0-.13.07-.27.11-.4s.09-.31.14-.47c.47-1.47,1-3.19,1.44-5.1.62-2.44,1.22-5.19,1.77-8.14h0l0-.16c0-.26.1-.53.14-.79h0l.09-.48s0-.08,0-.12h0l.18-1a.77.77,0,0,1,0-.15c0-.21.07-.42.1-.63s0-.19.05-.29,0-.06,0-.08l.15-.95v0l.15-1c.06-.38.11-.76.16-1.15s.09-.64.13-1,.11-.85.16-1.28.07-.59.1-.88l.09-.83c0-.25.06-.51.08-.77s.07-.61.09-.91c0-.5.1-1,.14-1.5,0-.33,0-.65.08-1s.05-.71.07-1.06l.06-1c0-.42.05-.85.07-1.28,0-.14,0-.29,0-.43l0-.57c0-.26,0-.51,0-.76,0-.51,0-1,0-1.52,0-.7,0-1.39,0-2.08,0-1.21,0-2.4-.09-3.59,0-.13,0-.27,0-.41s0-.44,0-.66c0-.43-.05-.87-.09-1.3s-.07-.86-.11-1.28-.09-.85-.13-1.27-.11-.84-.17-1.25c0-.14,0-.27-.05-.4s0-.23,0-.34,0-.33-.08-.49-.07-.41-.1-.61-.07-.36-.1-.54a.85.85,0,0,0,0-.17c0-.16-.06-.32-.09-.48l-.24-1.13h0s0,0,0,0c-.09-.39-.18-.77-.28-1.15s-.19-.7-.29-1.05l-.12-.39c-.06-.22-.13-.45-.2-.66l-.15-.45v0l-.13-.37c0-.06,0-.12-.07-.19a2,2,0,0,0-.1-.26l-.09-.26c0-.11-.08-.21-.13-.32l0-.08-.18-.43v0c-.06-.16-.13-.31-.19-.46l0,0c-.06-.14-.13-.27-.19-.41s-.14-.3-.22-.45-.1-.21-.16-.32l-.07-.14-.22-.41c-.06-.12-.13-.24-.2-.36a.41.41,0,0,1,0-.09l-.21-.35,0,0a3.73,3.73,0,0,0-.25-.39h0c-.08-.12-.16-.24-.23-.36l0-.06-.26-.36c-.18-.25-.36-.5-.55-.74s-.2-.23-.29-.35l-.57-.64s0,0,0,0l-.31-.32c-.32-.31-.65-.62-1-.9l-.32-.25-.1-.08-.27-.2-.11-.08L747,212h0a3.17,3.17,0,0,0-.36-.23h0c-.25-.16-.51-.3-.77-.44l-.25-.13-.24-.12-.42-.2-.16-.07-.45-.18-.2-.08c-.24-.08-.48-.17-.73-.24l-.2-.06-.29-.08-.24-.06-.24-.06-.25-.06-.33-.06-.18,0-.28-.05-.26,0-.4-.05-.3,0h-.09l-.33,0,.4.41c.43.45.9,1,1.41,1.58a44.64,44.64,0,0,1,4.37,6.29,50.62,50.62,0,0,1,3.54,7.5,55.89,55.89,0,0,1,3.32,15.06,65.36,65.36,0,0,1-.23,12.88c-.05.43-.11.87-.17,1.31-.14,1.11-.31,2.23-.52,3.39-.11.64-.23,1.28-.37,1.94s-.31,1.53-.46,2.28c-.88,4.44-1.63,8.54-2.26,12.35a174.59,174.59,0,0,0-2.51,23.48h0a71,71,0,0,0,.61,12h0l.06.47.06.34c.17,1,.36,2.06.59,3,.27,1.2.58,2.35.93,3.46s.84,2.46,1.33,3.62l.12.3a12.22,12.22,0,0,1,1,3.74,13.52,13.52,0,0,1-.68,5.41,18.75,18.75,0,0,1-1.31,3,25.28,25.28,0,0,1-2.15,3.27,31.77,31.77,0,0,1-2.87,3.23c-.87.86-1.72,1.61-2.47,2.22-.56.46-1.07.84-1.5,1.14A8.61,8.61,0,0,1,739.12,344Z"/><path class="cls-10" d="M746.73,210.48s18.27-1.62,7.49,51.8L746,221.36Z"/><path class="cls-10" d="M743.88,311.91c1.28.11,1.41-7.47,2.68-13.8h0c.71-3.53,1.78-6.67,3.6-7.89h0a41.13,41.13,0,0,1-.37-7.28c0-.33,0-.65.06-1l0-.33,0-.36s0-.09,0-.13l0-.31c0-.05,0-.11,0-.16s0-.18,0-.28l.06-.42c0-.14,0-.29.07-.44s.05-.29.08-.43l.06-.3c0-.08,0-.17.05-.26l.06-.26a.36.36,0,0,0,0-.1c0-.1.05-.21.08-.31a1.46,1.46,0,0,1,0-.2,2.33,2.33,0,0,1,.07-.25c0-.13.07-.27.11-.4s.09-.31.14-.47c.47-1.47,1-3.19,1.44-5.1-.84.75-2,1.83-3.24,3.18-3.75,4.08-8.47,10.66-9,18.43C739.1,306.17,741.88,311.75,743.88,311.91Z"/></g><path class="cls-23" d="M572.68,254.72s.06,3.07,3.6,2.12c0,0,.91,3.21,3.69,2.3,0,0,4.08.67,5.55-1.16a11.05,11.05,0,0,1,1.32-1.34,9.53,9.53,0,0,1,5.41-2.39c2.4-.07,2.56-11.37,2.56-11.37l-4.69-1.15a3.53,3.53,0,0,0-4.33-1.54c-.1,0-.24.08-.34.13-.76.37,1.14,2.22.47,3.79a2.86,2.86,0,0,1-1.33,1.3c0,.09,0,.19.07.3a6.82,6.82,0,0,0,2.14,2.81c1.17,1.06.75,2.1-.34,2.42a3,3,0,0,1-1.8-.05c-2-.63-3.92-3-5.21-3.58-2.33.83-4.67,1.71-6.5,2.4-2,.75-3.41,1.3-3.41,1.3S569.41,254.65,572.68,254.72Z"/><path class="cls-23" d="M572.68,254.72s.06,3.07,3.6,2.12c0,0,.91,3.21,3.69,2.3,0,0,4.09.67,5.55-1.16a11.05,11.05,0,0,1,1.32-1.34,6.1,6.1,0,0,0-1.47-.24c-1.54,0-3,.53-4.56.52a1.89,1.89,0,0,1-1.73-.73,2.62,2.62,0,0,0-.32-.57,1.73,1.73,0,0,0-.57-.3,2.81,2.81,0,0,1-1.52-1.63,1.85,1.85,0,0,0-.4-.82,2.18,2.18,0,0,0-.48-.19,4.32,4.32,0,0,1-2.84-3c-2,.75-3.41,1.3-3.41,1.3S569.41,254.65,572.68,254.72Z"/><path class="cls-23" d="M593.88,242.65c1.85.35,7.63,1.13,11,1.45s-2.4,9.81-2.4,9.81-9.88.15-10.92.39S593.88,242.65,593.88,242.65Z"/><path class="cls-8" d="M603.57,249h0c-.18.64-.33,1.26-.47,1.84-.4,1.69-.62,3.52-.74,4.22l-3-.72s.22-2.29.74-4.92,1.85-7,2.35-7.46a10.31,10.31,0,0,1,3.83.35C604,242.58,604.46,244.31,603.57,249Z"/><polygon class="cls-29" points="694.19 228.1 694.2 228.1 694.2 228.1 694.19 228.1"/><path class="cls-10" d="M602.31,254.6c.12-.69.39-2.1.79-3.79.14-.58.29-1.2.47-1.84h0l2.92.27,47.66,4.43a69.5,69.5,0,0,0,13.78-1.44c7.2-1.59,36.66-14.49,48.55-19.76A30.68,30.68,0,0,1,719.31,243c-4,3.63-8.46,5.89-13.84,8.43C697.61,255.15,670.05,262,666,262.5s-4.63,0-10.27.11c-7.42.14-46.48-4-53.48-7.54Z"/><polygon class="cls-30" points="694.2 228.1 695.19 227.58 701.82 223.67 701.82 223.67 703.65 222.59 701.84 223.65 694.2 228.1"/><path class="cls-10" d="M603.57,249l2.93.27,47.65,4.43a69.5,69.5,0,0,0,13.78-1.44c4.59-1,18.19-6.61,30.54-11.9,7-3,13.69-5.94,18-7.86a21.07,21.07,0,0,0-1.85-3.05,18.65,18.65,0,0,0-2.56-2.82,16.77,16.77,0,0,0-8.42-4h0l-1.83,1.08,1.29-1.18-7.92,5.09-1,.52h0l-35.5,16.61-47.8-2.17a21.27,21.27,0,0,0-4.64-.27,1.93,1.93,0,0,0-1.86,1.71C604.11,245,604,246.64,603.57,249Z"/><g class="cls-31"><g class="cls-32"><ellipse class="cls-33" cx="445.84" cy="486.45" rx="87.32" ry="32.45"/></g><path class="cls-34" d="M439.38,505a19.07,19.07,0,0,1-1.33,5.73c-1.82,4.75-12.74,1.45-16.72,0s-5.91-5.15-6-7-.19-12.8-.49-16.2a5.9,5.9,0,0,1,2.14-5.14s2.06-.54,4.69-1c4.52-.83,10.72-1.5,11,1,.49,4,3.6,14.16,5.37,17A9.39,9.39,0,0,1,439.38,505Z"/><path class="cls-35" d="M439.38,505c-3.15,4.71-11.29,3.21-12.95.88-1.78-2.52-1.21-11-.44-12.42.6-1.13,4.31-2.56,5.93-3.14a29.94,29.94,0,0,1-6.61-.26c-7.18-.77-4.72-6.89-4.72-6.89l1.07-1.79c4.52-.83,10.72-1.5,11,1,.49,4,3.6,14.16,5.37,17A9.39,9.39,0,0,1,439.38,505Z"/><path class="cls-34" d="M491,483.2c-.65,2.58-3.93,4-13.93,3.05s-17.56-9.36-18.19-9.42a17.27,17.27,0,0,0-2.62.29c-4.08-.14-9.83-3.86-9.83-3.86-2.47-4.22-.36-13.46,0-13.75l7.84-.14,13.91-.24c1.67,8.53,18.82,18.9,19.95,19.66.24.17.56.36.88.57C490.14,480.1,491.49,481.18,491,483.2Z"/><path class="cls-35" d="M489,479.36c-.45,3.85-5.79,2.92-20.83-3.84-9.66-4.34-12.88-11.3-13.91-16.15l13.91-.24c1.67,8.53,18.82,18.9,19.95,19.66C488.35,479,488.67,479.15,489,479.36Z"/><path class="cls-19" d="M474.55,371.56c-3.35,12.76-4.55,29.12-4.51,38.81s-1.7,49.87-1.7,49.87-3.61,4.29-11,3.62a26.73,26.73,0,0,1-11.24-4.06s-2.15-57.88,3.76-68.39L445,343.14l-.17-1.69.9-19.13s23.3-21.61,28.81-15.18c0,0-.06.07,4.72,11.92a19,19,0,0,1,1.29,8.95C479.6,338.07,477.15,361.66,474.55,371.56Z"/><path class="cls-20" d="M458.61,394.14c-1.41,10.07-6.35,51.85-1.32,69.72a26.73,26.73,0,0,1-11.24-4.06s-2.15-57.88,3.76-68.39L445,343.14l10-5.25S460.19,382.91,458.61,394.14Z"/><path class="cls-19" d="M463.63,315.73s-.19,25.35-8.62,34.21-15.88,61-16.53,66.5-2.68,65.75-2.68,65.75-8.43,9.59-22.41,0c0,0-4.45-48.87,6.21-74.19,0,0-10.4-56.83.13-73.68s30-23.75,30-23.75Z"/><path class="cls-19" d="M465.38,207.6s11.16,8.69,12,22a259.32,259.32,0,0,1-.58,42.5c-1.49,16.26,2.61,40.69,3.6,48.21-7.59.53-16-18.72-16-18.72l-14.65-86.73Z"/><path class="cls-8" d="M429,223l.78,5.45,1.12,7.85,1.16,8.15,8,55.73v28.42s17.14-4.9,28.39-11.89a10.77,10.77,0,0,0,5-11c-.94-5.39-.45-12.38-1.27-26.48-.38-39.9-4-51.4-14.26-60.68l-17.65-3.18-4.79-.86c-.07.09-.15.18-.22.28s-.27.37-.4.59-.27.45-.4.7h0l0,0-.42.34-.08.1-.12.17h0l-1.47,1.95Z"/><path class="cls-19" d="M417.65,323.28c-3.71,9.07-7.31,19.22-5.24,21.65a13.74,13.74,0,0,0,3,2.53,21.8,21.8,0,0,0,1.92,1.12,33.5,33.5,0,0,0,6.76,2.58c1.62-11,8.83-15.69,16-22.58a45.72,45.72,0,0,0,12.61-19.23c.4-1.18.74-2.39,1-3.63h0a.11.11,0,0,1,0-.05,99.16,99.16,0,0,0,1.24-20.1,123.81,123.81,0,0,0-3.1-19.43v0c-3.24-10.52-8.31-23.1-12.15-33.13q-.9-2.36-1.69-4.5c-2.19-5.91-3.66-10.46-3.58-12.41h0l0,0-.42.34-.59.48h0l-.05,0-.27.22-25.31,20.54-.89.73s6.51,21,11.52,40.17c3.6,13.73,6.42,26.46,5.51,29.68C423.33,310.14,420.46,316.4,417.65,323.28Z"/><path class="cls-20" d="M415.37,347.46a13.74,13.74,0,0,1-3-2.53c-3.64-4.28,10.23-32.36,11.45-36.62,2.19-7.71-17-69.85-17-69.85l.89-.73C418.46,249.78,435.21,271,432,283.2,427.74,299.4,442.32,321.48,415.37,347.46Z"/><path class="cls-7" d="M459.38,221.77s-2.11,6.79-1.68,7.54c0,0,5.73.34,7.14,1.6s.53-.44.53-.44-2.83-7.19-6-8.7"/><path class="cls-10" d="M460.72,214.86s9.12,5.55,10.14,8.32l-4,2.54s3.13,2.08,5.31,1.84c0,0,2.82,33.65,0,52.37,0,0-3.47-47.64-9-51.44s-5.82-7.93-5.82-7.93l3.38-5.7"/><path class="cls-36" d="M400,371.43v20.64s37.36,23.45,41.44,23.18S438.91,373,438.91,373Z"/><path class="cls-10" d="M447.2,379.36v30.05a5.74,5.74,0,0,1-5.64,5.84h-.11a5.75,5.75,0,0,1-5.65-5.84V379.36a3.67,3.67,0,0,1,.05-.66,5.7,5.7,0,0,1,5.6-5.19h.11a5.44,5.44,0,0,1,3.24,1.06,4.36,4.36,0,0,1,.53.45A5.88,5.88,0,0,1,447.2,379.36Z"/><path class="cls-12" d="M445.33,375h-.07c-2.58-.48-7.55-.49-9.46,5.88-.07.25-.14.5-.2.76-1.29,5.27-1.31,8.32-1.05,10a1.36,1.36,0,0,1-1.53,1.58l-15.76-2.08-.28-.32-16.51-18.21a2.11,2.11,0,0,1-.56-1.43v-8.68a3.39,3.39,0,0,1,.19-1.1c.63-1.67,2.85-6.55,8.38-8l36.25,20.81a.23.23,0,0,1,.07.33A4.36,4.36,0,0,1,445.33,375Z"/><path class="cls-10" d="M444.8,374.57a.24.24,0,0,1-.22.08c-2.3-.43-6.49-.47-8.73,4.05a12,12,0,0,0-.92,2.59c-1.29,5.27-1.31,8.32-1.05,10a1.39,1.39,0,0,1-1.53,1.6l-15.37-2-.39-.05-16.8-18.52a2.17,2.17,0,0,1-.55-1.43v-8.69a3.13,3.13,0,0,1,.19-1.09c.62-1.67,2.86-6.57,8.4-8l.65.38,36.25,20.81A.23.23,0,0,1,444.8,374.57Z"/><path class="cls-19" d="M432.2,367.42h0c0,.33,0,.66,0,1,0,0-.17,1.17-2.53.44-1.49-.45-.15-6.24-2.82-9.06a4.68,4.68,0,0,0-1.21-.91c0-.22-.05-.41-.08-.57-.21-1.26.64-2.22,1.33-2.06h0a5.35,5.35,0,0,1,.46.33,10.76,10.76,0,0,1,1.56,1.51h0A14.27,14.27,0,0,1,432.2,367.42Z"/><path class="cls-19" d="M437.46,383.87l8.06-4.8s-1-3.21-3.41-2.54C440.17,377.08,437.77,378.91,437.46,383.87Z"/><path class="cls-12" d="M413,390.2a2.71,2.71,0,0,0,1.23,2.14l3,1.65a.76.76,0,0,0,1.23-.73v-4a2.68,2.68,0,0,0-1.21-2.09l-3.07-1.77c-.67-.39-1.21-.07-1.21.7Z"/><path class="cls-37" d="M412.5,390.41a2.75,2.75,0,0,0,1.22,2.14l3,1.65a.76.76,0,0,0,1.22-.73v-4a2.69,2.69,0,0,0-1.21-2.1l-3.06-1.77c-.67-.38-1.21-.07-1.21.7Z"/><path class="cls-16" d="M417.25,361.53c4.36,3.7,6.68,3.4,9.07,3.43h.11c1.6,0,3.31-1.27,1.91-2.62s-2.49-1.39-2.71-3.47c0-.24-.05-.45-.08-.62-.23-1.37,4,.65,4,.65.3-2.84-1.8-6.82-3.89-8.77s-3-6-3-6a20.58,20.58,0,0,0-5.37.21c-.72.22-1.12.57-.81,1.15,1.06,2,.33,5.88.11,7.85S415,359.61,417.25,361.53Z"/><path class="cls-16" d="M417.25,361.53c4.36,3.7,6.68,3.4,9.07,3.43a2.51,2.51,0,0,0-.42-1.15,4.94,4.94,0,0,0-1.35-1.08,23.33,23.33,0,0,1-4.14-3.81,3.89,3.89,0,0,1-.83-1.14,4.36,4.36,0,0,1-.15-1.84,25.73,25.73,0,0,0-2.15-11.57c-.72.22-1.12.57-.81,1.15,1.06,2,.33,5.88.11,7.85S415,359.61,417.25,361.53Z"/><path class="cls-10" d="M432.2,367.42h0a3.22,3.22,0,0,1-.34.91c-.37.31-2.21,1-2-2.74.18-3.5-1.51-5.08-3-5.79a4.68,4.68,0,0,0-1.21-.91c0-.22-.05-.41-.08-.57-.21-1.26.64-2.22,1.33-2.06h0a5.35,5.35,0,0,1,.46.33,10.76,10.76,0,0,1,1.56,1.51h0A14.27,14.27,0,0,1,432.2,367.42Z"/><path class="cls-7" d="M459.39,229.75s.93,4.55-.62,7.07l3.79,3.2s5.62,32.39,6.35,55.53l-3,5.73-4.15-6s1.89-38.59-5.68-51.54c0,0-.08-3.62,0-4.71s-1.38-1.67-1.6-1.82-3-2-3.05-2.83S452.92,226,459.39,229.75Z"/><path class="cls-37" d="M461.34,228s.94,4.55-.62,7.07l3.79,3.2s5.62,32.39,6.35,55.52l-3,5.74-4.15-6S465.62,255,458.05,242c0,0-.07-3.61,0-4.7s-1.38-1.67-1.6-1.82-3-2-3.05-2.83S454.87,224.32,461.34,228Z"/><path class="cls-7" d="M431.67,222.11a9.08,9.08,0,0,0,1,3.62,14.12,14.12,0,0,0,2,2.89,23.31,23.31,0,0,0,5.07,4.37,29.8,29.8,0,0,0,12,4.29,17.2,17.2,0,0,1,.57-2c.63-1.83,1.83-4.49,3.8-5.93l.07-.07a.74.74,0,0,0,.16-.2c1.27-2.7-19.19-12.65-21.43-13.72-.14.22-.27.45-.4.7h0l0,0c-.07.13-.14.28-.2.42v-.07l-.44.25h0l-.44.26-.21.12-.06.1a9.18,9.18,0,0,0-.76,1.47A8.25,8.25,0,0,0,431.67,222.11Z"/><path class="cls-8" d="M433.47,220.77a11.15,11.15,0,0,0,2.9,6,21.29,21.29,0,0,0,1.61,1.67,28.44,28.44,0,0,0,14.22,6.81c.76.13,1.2.17,1.2.17a18.3,18.3,0,0,1,2.67-6.17l.16-.2a8,8,0,0,1,1.53-1.54c2.4-1.75-10.77-8.77-17.55-12.19-2.28-1.15-3.84-1.89-3.84-1.89a8,8,0,0,0-.95,1c-.07.09-.15.18-.22.28s-.27.37-.4.59-.27.45-.4.7h0l0,0c-.07.13-.14.28-.2.42A8.18,8.18,0,0,0,433.47,220.77Z"/><path class="cls-8" d="M423.8,342s2.3,4.53,2,5.06-4.45,3.06-6.87,3.95a29.55,29.55,0,0,1-4.58,1.27l-.94-4.36Z"/><polygon class="cls-29" points="434.4 216.08 434.4 216.08 434.4 216.08 434.4 216.08"/><path class="cls-19" d="M396.67,290.78c.14,3.93.7,4.4,1.45,9.75,1,7.05,10.88,43.43,15.27,49.52,0,0,1.7-.56,3.9-1.47q.81-.33,1.68-.72c1.54-.69.37-12.34-1.32-24.58-1.94-14-4.56-28.89-4.56-28.89l5.26-15.76,7-20.82,3.49-8.89,1.17-7.06.93-5.58,1.75-10.55.82-5,.81-4.17.12-.52h0l0,0a5,5,0,0,1-.5.44,6.16,6.16,0,0,1-.51.38h0l-.26.16c-3.7,2.13-15.78,9.24-21.17,14.38-6.4,6.11-8.45,12.23-10.77,20.23S396.52,286.85,396.67,290.78Z"/><path class="cls-20" d="M423.94,340c2,7,1.11,5.7-5,7.91l-12.14-47.21a67,67,0,0,1-.73-13.27c.53-8.91,12.7-54.08,12.7-54.08s7.6,4.52,10,15.62L425,258.83,414.62,295Z"/><path class="cls-8" d="M459.07,220s-2.11,6.79-1.67,7.53c0,0,5.72.35,7.13,1.61s.54-.45.54-.45-2.83-7.19-6-8.69"/><path class="cls-38" d="M461.48,213s-.12.2-.3.58a9.38,9.38,0,0,0-.46,1.24,10.38,10.38,0,0,0-.32,1.28c0,.1,0,.21-.07.32-.38,2.25-.67,2.75-1.26,3.57s-.67,6.25-1.55,7.42c-.7.93-14.15-3.86-19.23-9.6a8.38,8.38,0,0,1-1.57-2.4,4.45,4.45,0,0,1-.35-2s.32-.66.76-1.75a42,42,0,0,0,2.48-8.18h0c.1-.54.19-1.1.25-1.65a20.44,20.44,0,0,0,.17-2.58l14.53,9.3Z"/><path class="cls-16" d="M467.88,190.58c1.09,2.25,1.46,3.48,1.31,4.47s-1.31,14.74-1.31,16.41c0,1.2-2.6,2.77-5.07,3.27a6.58,6.58,0,0,1-2.09.13,4.13,4.13,0,0,1-.63-.12c-.49-.15-1.19-.34-2-.55-3.75-.94-10.14-2.41-11.86-3.24a15.65,15.65,0,0,1-6.17-6.62,4.74,4.74,0,0,0-.42-.78,18.94,18.94,0,0,0-1.36-1.82c-1.87-2.28-4.61-5.06-5.73-6.18l-.51-.5V179.61l12.51-9.31,20.38,1.5c.11.24,1.53,2.34,2.72,4.77,1.07,2.17,1.95,4.6,1.57,6.22C468.39,186.21,466.79,188.32,467.88,190.58Z"/><path class="cls-10" d="M444.3,176.79s-2.58,2.84-1.23,4.44,1.6,1.93,1.23,4-1.27,5.9-.25,8.63.71,2.34.71,2.34l-1.66.93a10,10,0,0,0-.61-2,14.38,14.38,0,0,0-.89-2,5.89,5.89,0,0,0-1.52-2,4.69,4.69,0,0,0-2.26-.92,4.22,4.22,0,0,0-3.77,1.32c-.77,1.06-.56,2.51-.33,3.71a5.15,5.15,0,0,0,1.37,2.58c.76.79,1.79,1.26,2.57,2a6.16,6.16,0,0,1,1.67,5.65,12.45,12.45,0,0,1-1,3.07s-1-5.94-3.73-7.74-9.95-11.54-8.31-20.47,3.18-10.48,3.18-10.48Z"/><path class="cls-10" d="M473.21,169.54c-1.36.25-3.11,1-4.64,0-1.91-1.29-14.54-11.73-26.47-8.72-11.43,2.89-14.16,6.71-13.08,9.87,0,0,13.78,14.93,37,3.69a5.39,5.39,0,0,1,1.48,2.82c.53-1.09,0-2.87-.24-3.44a61.29,61.29,0,0,0,6.14-3.65A.3.3,0,0,0,473.21,169.54Z"/><path class="cls-10" d="M453.69,305.67a.11.11,0,0,0,0,.05c.42-27.62-18.57-56.33-18.86-57.32s2.13-5.05,2.11-5.55-.52-.61-1.43,0c-3.4,2.06-4.22,2.09-4.91.64-5.18-11.53,3.81-27.36,3.81-27.36-.23,5.41,11.59,31.06,17.42,50v0a77.39,77.39,0,0,1,3.1,19.43A99.16,99.16,0,0,1,453.69,305.67Z"/></g><path class="cls-39" d="M859.81,626c-20-8.56-43.49-12.7-66.76-12.72-33.59,0-66.77,8.54-88.55,24.86-14.84,11.11-22.11,24.13-22.33,37.08H793.05l76.79-44.37Q865.15,628.3,859.81,626Z"/><polygon class="cls-40" points="682.17 583.31 682.17 675.04 793.02 658.94 793.02 565.61 682.17 583.31"/><polygon class="cls-41" points="869.84 538.93 793.02 565.61 793.02 658.94 869.84 647.78 869.84 538.93"/><path class="cls-37" d="M859.81,534.09c-20-8.56-43.49-12.7-66.76-12.72-33.59,0-66.77,8.54-88.55,24.86-14.84,11.12-22.11,24.13-22.33,37.08H793.05l76.79-44.37Q865.15,536.38,859.81,534.09Z"/><rect class="cls-12" x="801.63" y="623.12" width="110.86" height="55.83"/><path class="cls-7" d="M912.49,623.12c-.45-16.35-12.12-32.47-34.07-44.38l-76.79,44.37H912.49Z"/><polygon class="cls-42" points="786.63 609.86 786.63 701.9 708.46 732.3 708.46 655.02 786.63 609.86"/><path class="cls-42" d="M675.75,609.86v78.07h0c.09,16.26,11.32,32.34,32.7,44.37V625.6Z"/><path class="cls-19" d="M675.77,609.86c-.29,16.53,11,32.94,32.69,45.16l78.16-45.16Z"/><path class="cls-43" d="M718.54,688.65V739A118.32,118.32,0,0,0,730,744.61c48.91,20.92,118.45,15.48,155.31-12.14,15.14-11.35,22.41-24.67,22.34-37.88h0v-51.1Z"/><path class="cls-10" d="M796.74,643.49h0l-78.17,45.16A118.32,118.32,0,0,0,730,694.3c20,8.56,43.48,12.7,66.76,12.72,33.59,0,66.77-8.54,88.55-24.86C900.74,670.59,908,657,907.6,643.49Z"/><polygon class="cls-12" points="222.42 692.22 426.71 807.96 556.91 732.64 352.63 616.93 222.42 692.22"/><polygon class="cls-12" points="386.71 805.18 386.71 809.74 182.42 692.78 182.42 689.45 386.71 805.18"/><polygon class="cls-8" points="182.42 689.45 386.71 805.18 516.91 729.86 312.63 614.16 182.42 689.45"/><polygon class="cls-7" points="386.71 805.18 386.71 809.74 516.91 734.41 516.91 729.86 386.71 805.18"/><polygon class="cls-10" points="314.04 626.51 235.38 671.88 238.82 673.83 317.49 628.46 314.04 626.51"/><polygon class="cls-10" points="322.21 631.15 243.55 676.51 247 678.46 325.66 633.1 322.21 631.15"/><polygon class="cls-10" points="341.23 641.91 232.91 704.43 236.36 706.38 344.68 643.86 341.23 641.91"/><polygon class="cls-10" points="348.73 646.17 240.41 708.69 243.86 710.64 352.18 648.12 348.73 646.17"/><polygon class="cls-10" points="356.23 650.42 247.91 712.94 251.36 714.89 359.68 652.37 356.23 650.42"/><polygon class="cls-10" points="363.72 654.68 255.41 717.2 258.85 719.15 367.17 656.63 363.72 654.68"/><polygon class="cls-10" points="371.22 658.93 262.9 721.45 266.35 723.4 374.67 660.88 371.22 658.93"/><polygon class="cls-10" points="378.72 663.19 270.4 725.71 273.85 727.66 382.17 665.14 378.72 663.19"/><polygon class="cls-10" points="386.22 667.44 277.9 729.96 281.35 731.92 389.66 669.39 386.22 667.44"/><polygon class="cls-10" points="393.71 671.7 285.39 734.22 288.85 736.17 397.16 673.65 393.71 671.7"/><polygon class="cls-10" points="401.21 675.95 292.89 738.48 296.34 740.43 404.66 677.9 401.21 675.95"/><polygon class="cls-10" points="408.71 680.21 300.39 742.73 303.84 744.68 412.16 682.16 408.71 680.21"/><polygon class="cls-10" points="416.21 684.47 307.89 746.99 311.34 748.94 419.65 686.41 416.21 684.47"/><polygon class="cls-10" points="423.7 688.72 315.39 751.24 318.84 753.19 427.15 690.67 423.7 688.72"/><polygon class="cls-10" points="431.2 692.98 322.88 755.5 326.33 757.45 434.65 694.93 431.2 692.98"/><polygon class="cls-10" points="438.7 697.23 330.38 759.75 333.83 761.7 442.15 699.18 438.7 697.23"/><polygon class="cls-10" points="446.2 701.49 337.88 764.01 341.33 765.96 449.64 703.44 446.2 701.49"/><path class="cls-37" d="M358.53,746.62c10-5.77,26.17-5.77,36.11,0A15.68,15.68,0,0,1,401.1,753l35.44,6.86-5.64,1.35-9.18,2.2,5,4.95,3.15,3.11-32.15-6.23a20.16,20.16,0,0,1-3.22,2.27,28,28,0,0,1-3.86,1.84L401.28,788l-5.36-1.83-8.53-2.93-3.82,5.31-2.35,3.26L369.5,771.31a32.65,32.65,0,0,1-11.1-3.76C348.46,761.77,348.53,752.4,358.53,746.62Z"/><path class="cls-40" d="M392.94,756.51c0,5-7.34,9.12-16.41,9.12s-16.4-4.09-16.4-9.12,7.34-9.12,16.4-9.12S392.94,751.47,392.94,756.51Z"/><path class="cls-12" d="M285.4,577.21v6.88c0,9.31-13.86,16.84-31,16.84s-31-7.53-31-16.84v-6.88Z"/><path class="cls-12" d="M267.1,599.45a40.79,40.79,0,0,0,7.46-2.57V582.12H267.1Z"/><path class="cls-12" d="M278.27,594.84a18,18,0,0,0,5.4-5.24V578h-5.4Z"/><path class="cls-7" d="M223.46,577.21c0,9.3,13.87,16.84,31,16.84s31-7.54,31-16.84-13.86-16.84-31-16.84S223.46,567.91,223.46,577.21Z"/><path class="cls-12" d="M230.59,577c0,7,10.67,12.66,23.84,12.66S278.27,584,278.27,577s-10.67-12.66-23.84-12.66S230.59,570,230.59,577Z"/><path class="cls-12" d="M265,571.87l2.18-1.27-1.72-1-2.19,1.27c-3.93-2-8.77-2.48-12.13-.53-4.23,2.46-1.42,5,.73,7.15L247.59,580c-.63-.72-.49-1.43.52-2.12L243.17,575c-3.36,2.09-2.58,4.75.79,7.08l-2.21,1.29,1.72,1,2.18-1.27c4.48,2.36,9.38,2.23,12.29.53,4.18-2.42,1.24-5-.85-7.17l4.17-2.43c.5.6.39,1.26-.49,1.9l5,2.87C268.9,576.67,268.42,574.19,265,571.87Zm-12.06,9a4.22,4.22,0,0,1-3.67.09l3.81-2.21C253.72,579.64,253.89,580.36,252.92,580.92Zm3-5.78c-.56-.82-.64-1.53.31-2.07a3.77,3.77,0,0,1,3.43-.11Z"/><path class="cls-12" d="M285.4,568.36v6.88c0,9.3-13.86,16.84-31,16.84s-31-7.54-31-16.84v-6.88Z"/><path class="cls-12" d="M267.1,590.59a40.05,40.05,0,0,0,7.46-2.57V573.27H267.1Z"/><path class="cls-12" d="M278.27,586a17.93,17.93,0,0,0,5.4-5.23v-11.6h-5.4Z"/><path class="cls-7" d="M223.46,568.36c0,9.29,13.87,16.83,31,16.83s31-7.54,31-16.83-13.86-16.84-31-16.84S223.46,559.06,223.46,568.36Z"/><path class="cls-12" d="M230.59,568.14c0,7,10.67,12.66,23.84,12.66s23.84-5.66,23.84-12.66-10.67-12.65-23.84-12.65S230.59,561.16,230.59,568.14Z"/><path class="cls-12" d="M265,563l2.18-1.27-1.72-1L263.25,562c-3.93-2-8.77-2.47-12.13-.52-4.23,2.46-1.42,5,.73,7.15l-4.26,2.47c-.63-.71-.49-1.42.52-2.12l-4.94-2.85c-3.36,2.1-2.58,4.75.79,7.08l-2.21,1.29,1.72,1,2.18-1.27c4.48,2.36,9.38,2.22,12.29.53,4.18-2.43,1.24-5-.85-7.18l4.17-2.42c.5.59.39,1.25-.49,1.9l5,2.86C268.9,567.81,268.42,565.34,265,563Zm-12.06,9.05a4.26,4.26,0,0,1-3.67.09l3.81-2.22C253.72,570.78,253.89,571.51,252.92,572.07Zm3-5.79c-.56-.82-.64-1.52.31-2.07a3.8,3.8,0,0,1,3.43-.11Z"/><path class="cls-12" d="M285.4,559.5v6.88c0,9.3-13.86,16.84-31,16.84s-31-7.54-31-16.84V559.5Z"/><path class="cls-12" d="M267.1,581.74a40.79,40.79,0,0,0,7.46-2.57V564.41H267.1Z"/><path class="cls-12" d="M278.27,577.13a18,18,0,0,0,5.4-5.24V560.3h-5.4Z"/><path class="cls-7" d="M223.46,559.5c0,9.3,13.87,16.84,31,16.84s31-7.54,31-16.84-13.86-16.84-31-16.84S223.46,550.2,223.46,559.5Z"/><path class="cls-12" d="M230.59,559.29c0,7,10.67,12.66,23.84,12.66s23.84-5.67,23.84-12.66-10.67-12.66-23.84-12.66S230.59,552.3,230.59,559.29Z"/><path class="cls-12" d="M265,554.16l2.18-1.27-1.72-1-2.19,1.27c-3.93-2-8.77-2.48-12.13-.53-4.23,2.46-1.42,5,.73,7.15l-4.26,2.48c-.63-.72-.49-1.43.52-2.12l-4.94-2.86c-3.36,2.1-2.58,4.76.79,7.09l-2.21,1.28,1.72,1,2.18-1.27c4.48,2.36,9.38,2.23,12.29.53,4.18-2.42,1.24-5-.85-7.17l4.17-2.43c.5.6.39,1.26-.49,1.9l5,2.87C268.9,559,268.42,556.48,265,554.16Zm-12.06,9.05a4.26,4.26,0,0,1-3.67.09l3.81-2.21C253.72,561.93,253.89,562.65,252.92,563.21Zm3-5.78c-.56-.83-.64-1.53.31-2.07a3.77,3.77,0,0,1,3.43-.11Z"/><path class="cls-12" d="M285.4,550.65v6.88c0,9.3-13.86,16.84-31,16.84s-31-7.54-31-16.84v-6.88Z"/><path class="cls-12" d="M267.1,572.88a40.05,40.05,0,0,0,7.46-2.57V555.56H267.1Z"/><path class="cls-12" d="M278.27,568.27a17.84,17.84,0,0,0,5.4-5.24V551.44h-5.4Z"/><path class="cls-7" d="M223.46,550.65c0,9.29,13.87,16.83,31,16.83s31-7.54,31-16.83-13.86-16.84-31-16.84S223.46,541.35,223.46,550.65Z"/><path class="cls-12" d="M230.59,550.43c0,7,10.67,12.66,23.84,12.66s23.84-5.66,23.84-12.66-10.67-12.65-23.84-12.65S230.59,543.45,230.59,550.43Z"/><path class="cls-8" d="M265,545.31l2.18-1.27-1.72-1-2.19,1.27c-3.93-2-8.77-2.47-12.13-.52-4.23,2.46-1.42,5,.73,7.15l-4.26,2.47c-.63-.71-.49-1.42.52-2.12l-4.94-2.85c-3.36,2.1-2.58,4.76.79,7.08l-2.21,1.29,1.72,1,2.18-1.27c4.48,2.36,9.38,2.22,12.29.53,4.18-2.43,1.24-5-.85-7.18l4.17-2.42c.5.59.39,1.25-.49,1.89l5,2.87C268.9,550.1,268.42,547.63,265,545.31Zm-12.06,9.05a4.26,4.26,0,0,1-3.67.09l3.81-2.22C253.72,553.07,253.89,553.8,252.92,554.36Zm3-5.79c-.56-.82-.64-1.52.31-2.07a3.8,3.8,0,0,1,3.43-.11Z"/><path class="cls-12" d="M239.45,603.17v6.88c0,9.31-13.86,16.85-31,16.85s-31-7.54-31-16.85v-6.88Z"/><path class="cls-12" d="M221.15,625.41a40.79,40.79,0,0,0,7.46-2.57V608.08h-7.46Z"/><path class="cls-12" d="M232.32,620.8a18,18,0,0,0,5.4-5.24V604h-5.4Z"/><path class="cls-7" d="M177.51,603.17c0,9.3,13.87,16.84,31,16.84s31-7.54,31-16.84-13.86-16.84-31-16.84S177.51,593.87,177.51,603.17Z"/><ellipse class="cls-12" cx="208.48" cy="602.96" rx="23.84" ry="12.66"/><path class="cls-12" d="M219,597.83l2.18-1.27-1.72-1-2.19,1.27c-3.93-2-8.77-2.48-12.13-.53-4.23,2.46-1.42,5,.73,7.15l-4.26,2.48c-.62-.72-.49-1.42.52-2.12L197.22,601c-3.36,2.09-2.58,4.75.79,7.08l-2.21,1.28,1.72,1,2.19-1.27c4.47,2.36,9.37,2.23,12.28.53,4.18-2.42,1.24-5-.85-7.17l4.17-2.43c.5.6.4,1.26-.49,1.9l5,2.87C223,602.63,222.47,600.16,219,597.83ZM207,606.89a4.26,4.26,0,0,1-3.67.08l3.81-2.21C207.77,605.6,207.94,606.32,207,606.89Zm3-5.79c-.56-.82-.63-1.52.3-2.07a3.82,3.82,0,0,1,3.44-.11Z"/><path class="cls-12" d="M239.45,594.32v6.88c0,9.3-13.86,16.84-31,16.84s-31-7.54-31-16.84v-6.88Z"/><path class="cls-12" d="M221.15,616.55a40.05,40.05,0,0,0,7.46-2.57V599.23h-7.46Z"/><path class="cls-12" d="M232.32,611.94a17.93,17.93,0,0,0,5.4-5.23v-11.6h-5.4Z"/><path class="cls-7" d="M177.51,594.32c0,9.3,13.87,16.83,31,16.83s31-7.53,31-16.83-13.86-16.84-31-16.84S177.51,585,177.51,594.32Z"/><ellipse class="cls-12" cx="208.48" cy="594.11" rx="23.84" ry="12.66"/><path class="cls-12" d="M219,589l2.18-1.27-1.72-1L217.3,588c-3.93-2-8.77-2.47-12.13-.52-4.23,2.46-1.42,5,.73,7.15l-4.26,2.47c-.62-.71-.49-1.42.52-2.12l-4.94-2.85c-3.36,2.1-2.58,4.76.79,7.08l-2.21,1.29,1.72,1,2.19-1.27c4.47,2.36,9.37,2.22,12.28.53,4.18-2.43,1.24-5-.85-7.18l4.17-2.42c.5.59.4,1.25-.49,1.89l5,2.87C223,593.77,222.47,591.3,219,589ZM207,598a4.26,4.26,0,0,1-3.67.09l3.81-2.22C207.77,596.75,207.94,597.47,207,598Zm3-5.79c-.56-.82-.63-1.52.3-2.07a3.82,3.82,0,0,1,3.44-.11Z"/><path class="cls-12" d="M239.45,585.46v6.88c0,9.3-13.86,16.84-31,16.84s-31-7.54-31-16.84v-6.88Z"/><path class="cls-12" d="M221.15,607.7a40.79,40.79,0,0,0,7.46-2.57V590.37h-7.46Z"/><path class="cls-12" d="M232.32,603.09a18,18,0,0,0,5.4-5.24V586.26h-5.4Z"/><path class="cls-7" d="M177.51,585.46c0,9.3,13.87,16.84,31,16.84s31-7.54,31-16.84-13.86-16.84-31-16.84S177.51,576.16,177.51,585.46Z"/><ellipse class="cls-12" cx="208.48" cy="585.25" rx="23.84" ry="12.66"/><path class="cls-8" d="M219,580.12l2.18-1.27-1.72-1-2.19,1.27c-3.93-2-8.77-2.48-12.13-.53-4.23,2.46-1.42,5,.73,7.15l-4.26,2.48c-.62-.72-.49-1.43.52-2.12l-4.94-2.86c-3.36,2.1-2.58,4.76.79,7.09l-2.21,1.28,1.72,1,2.19-1.27c4.47,2.36,9.37,2.23,12.28.53,4.18-2.42,1.24-5-.85-7.17l4.17-2.43c.5.6.4,1.26-.49,1.9l5,2.87C223,584.92,222.47,582.45,219,580.12ZM207,589.18a4.26,4.26,0,0,1-3.67.08l3.81-2.21C207.77,587.89,207.94,588.61,207,589.18Zm3-5.8c-.56-.81-.63-1.51.3-2.06a3.82,3.82,0,0,1,3.44-.11Z"/><path class="cls-12" d="M193.5,629.13V636c0,9.29-13.86,16.84-31,16.84s-31-7.55-31-16.84v-6.89Z"/><path class="cls-12" d="M175.2,651.37a40.79,40.79,0,0,0,7.46-2.57V634H175.2Z"/><path class="cls-12" d="M186.37,646.76a17.84,17.84,0,0,0,5.4-5.24V629.93h-5.4Z"/><path class="cls-7" d="M131.56,629.13c0,9.3,13.87,16.84,31,16.84s31-7.54,31-16.84-13.86-16.84-31-16.84S131.56,619.83,131.56,629.13Z"/><path class="cls-12" d="M138.69,628.92c0,7,10.67,12.66,23.84,12.66s23.84-5.67,23.84-12.66-10.67-12.66-23.84-12.66S138.69,621.93,138.69,628.92Z"/><path class="cls-12" d="M173.08,623.79l2.18-1.27-1.72-1-2.19,1.27c-3.93-2-8.78-2.48-12.13-.52-4.23,2.45-1.42,5,.73,7.14l-4.26,2.48c-.63-.72-.49-1.42.52-2.12l-4.94-2.86c-3.36,2.1-2.58,4.76.79,7.09l-2.21,1.29,1.72,1,2.19-1.27c4.47,2.36,9.37,2.23,12.29.53,4.17-2.42,1.23-5-.87-7.17l4.18-2.43c.5.6.39,1.26-.49,1.9l5,2.87C177,628.59,176.52,626.12,173.08,623.79ZM161,632.85a4.23,4.23,0,0,1-3.67.08l3.81-2.21C161.82,631.56,162,632.28,161,632.85Zm3-5.8c-.56-.81-.64-1.51.31-2.06a3.79,3.79,0,0,1,3.43-.11Z"/><path class="cls-12" d="M193.5,620.28v6.88c0,9.3-13.86,16.84-31,16.84s-31-7.54-31-16.84v-6.88Z"/><path class="cls-12" d="M175.2,642.51a40.05,40.05,0,0,0,7.46-2.57V625.19H175.2Z"/><path class="cls-12" d="M186.37,637.9a17.82,17.82,0,0,0,5.4-5.23v-11.6h-5.4Z"/><path class="cls-7" d="M131.56,620.28c0,9.3,13.87,16.83,31,16.83s31-7.53,31-16.83-13.86-16.84-31-16.84S131.56,611,131.56,620.28Z"/><path class="cls-12" d="M138.69,620.07c0,7,10.67,12.66,23.84,12.66s23.84-5.67,23.84-12.66-10.67-12.66-23.84-12.66S138.69,613.08,138.69,620.07Z"/><path class="cls-8" d="M173.08,614.94l2.18-1.27-1.72-1-2.19,1.27c-3.93-2-8.78-2.47-12.13-.52-4.23,2.46-1.42,5,.73,7.15L155.69,623c-.63-.71-.49-1.42.52-2.12l-4.94-2.85c-3.36,2.1-2.58,4.76.79,7.09l-2.21,1.28,1.72,1,2.19-1.27c4.47,2.36,9.37,2.22,12.29.53,4.17-2.43,1.23-5-.87-7.18l4.18-2.42c.5.59.39,1.25-.49,1.89l5,2.87C177,619.73,176.52,617.26,173.08,614.94ZM161,624a4.26,4.26,0,0,1-3.67.09l3.81-2.22C161.82,622.71,162,623.43,161,624Zm3-5.79c-.56-.82-.64-1.52.31-2.07a3.83,3.83,0,0,1,3.43-.11Z"/><polygon class="cls-10" points="298.75 245.98 222.33 289.91 222.33 381.25 298.75 337.04 298.75 245.98"/><polygon class="cls-37" points="222.33 289.91 216.58 286.47 216.58 377.81 222.33 381.25 222.33 289.91"/><polygon class="cls-37" points="298.75 245.98 292.9 242.61 216.58 286.47 222.33 289.91 298.75 245.98"/><polygon class="cls-44" points="292.3 257.41 228.79 293.91 228.79 369.82 292.3 333.08 292.3 257.41"/><polygon class="cls-12" points="287.66 308.94 287.66 329.49 276.16 336.15 276.16 315.55 287.66 308.94"/><polygon class="cls-7" points="293.48 324.3 293.48 326.29 289.87 328.38 289.87 326.37 293.48 324.3"/><polygon class="cls-7" points="293.48 316.66 293.48 318.65 289.87 320.74 289.87 318.74 293.48 316.66"/><polygon class="cls-7" points="293.48 309.03 293.48 311.02 289.87 313.11 289.87 311.1 293.48 309.03"/><polygon class="cls-7" points="293.48 301.39 293.48 303.38 289.87 305.47 289.87 303.46 293.48 301.39"/><polygon class="cls-7" points="293.48 293.75 293.48 295.75 289.87 297.83 289.87 295.83 293.48 293.75"/><polygon class="cls-7" points="293.48 286.12 293.48 288.11 289.87 290.2 289.87 288.19 293.48 286.12"/><polygon class="cls-7" points="293.48 278.48 293.48 280.48 289.87 282.56 289.87 280.56 293.48 278.48"/><polygon class="cls-7" points="293.48 270.85 293.48 272.84 289.87 274.93 289.87 272.92 293.48 270.85"/><polygon class="cls-12" points="273.42 300 273.42 337.75 261.91 344.41 261.91 306.61 273.42 300"/><polygon class="cls-12" points="259.17 313.39 259.17 346.01 247.66 352.67 247.66 320 259.17 313.39"/><polygon class="cls-12" points="244.93 301.86 244.93 354.27 233.42 360.93 233.42 308.47 244.93 301.86"/><polygon class="cls-10" points="392.18 164.17 315.76 208.09 315.76 299.43 392.18 255.22 392.18 164.17"/><polygon class="cls-37" points="315.76 208.09 310.01 204.66 310.01 296 315.76 299.43 315.76 208.09"/><polygon class="cls-37" points="392.18 164.17 386.33 160.79 310.01 204.66 315.76 208.09 392.18 164.17"/><polygon class="cls-44" points="385.73 175.6 322.22 212.1 322.22 288 385.73 251.27 385.73 175.6"/><polygon class="cls-7" points="386.91 242.49 386.91 244.48 383.3 246.57 383.3 244.56 386.91 242.49"/><polygon class="cls-7" points="386.91 234.85 386.91 236.84 383.3 238.93 383.3 236.93 386.91 234.85"/><polygon class="cls-7" points="386.91 227.22 386.91 229.21 383.3 231.29 383.3 229.29 386.91 227.22"/><polygon class="cls-7" points="386.91 219.58 386.91 221.57 383.3 223.66 383.3 221.65 386.91 219.58"/><polygon class="cls-7" points="386.91 211.94 386.91 213.94 383.3 216.02 383.3 214.02 386.91 211.94"/><polygon class="cls-7" points="386.91 204.31 386.91 206.3 383.3 208.39 383.3 206.38 386.91 204.31"/><polygon class="cls-7" points="386.91 196.67 386.91 198.66 383.3 200.75 383.3 198.75 386.91 196.67"/><polygon class="cls-7" points="386.91 189.04 386.91 191.03 383.3 193.12 383.3 191.11 386.91 189.04"/><path class="cls-37" d="M333.31,223.83c2.42-1.4,4.39-.28,4.4,2.5a8.86,8.86,0,0,1-1.16,4.07l17.68,16.8a8.13,8.13,0,0,1,2.27-2.06,3,3,0,0,1,3.2-.24l9.61-12.62a4.27,4.27,0,0,1-.17-1.19,9.63,9.63,0,0,1,4.37-7.56c2.41-1.39,4.38-.27,4.39,2.51a9.62,9.62,0,0,1-4.37,7.56,3.3,3.3,0,0,1-2.79.43l-9.9,13a5.39,5.39,0,0,1,.05.6,9.61,9.61,0,0,1-4.36,7.56c-2.42,1.4-4.39.28-4.39-2.5a8.26,8.26,0,0,1,.91-3.58l-17.77-16.89a7.9,7.9,0,0,1-1.94,1.66c-2.42,1.4-4.38.27-4.39-2.5A9.59,9.59,0,0,1,333.31,223.83Z"/><polygon class="cls-45" points="655.95 647.96 631.99 614.37 609.8 674.61 621.34 667.95 621.34 784.51 644.41 771.19 644.41 654.62 655.95 647.96"/><polygon class="cls-19" points="621.34 805.05 630.22 809.99 630.22 672.88 621.34 667.95 621.34 805.05"/><polygon class="cls-10" points="664.83 652.9 640.87 619.3 618.68 679.54 630.22 672.88 630.22 809.99 653.29 796.66 653.29 659.56 664.83 652.9"/><polygon class="cls-19" points="640.87 619.3 631.99 614.37 609.8 674.61 618.68 679.54 640.87 619.3"/><polygon class="cls-41" points="570.95 834.07 579.83 839.01 579.83 755.99 570.95 751.05 570.95 834.07"/><polygon class="cls-37" points="614.45 736.01 590.48 702.41 568.3 762.65 579.83 755.99 579.83 839.01 602.91 825.68 602.91 742.67 614.45 736.01"/><polygon class="cls-41" points="590.48 702.41 581.6 697.48 559.41 757.72 568.3 762.65 590.48 702.41"/></g></g></svg>