<svg xmlns="http://www.w3.org/2000/svg" xmlns:xlink="http://www.w3.org/1999/xlink" viewBox="0 0 1080 1080"><defs><style>.cls-1{fill:none;}.cls-2{fill:#1e079d;}.cls-3{isolation:isolate;}.cls-4{fill:#f4f3ff;}.cls-5{fill:#fafaff;}.cls-21,.cls-6{fill:#1d1140;}.cls-7{fill:#e3e0fc;}.cls-8{fill:#fff;}.cls-9{fill:#beb7f9;}.cls-10{fill:#25187f;}.cls-11,.cls-45{fill:#311b92;}.cls-12{fill:#ede9dd;}.cls-13{fill:#c61459;}.cls-14{fill:#6e8556;}.cls-15{fill:#e91e63;}.cls-16{fill:#afe6ff;}.cls-17{fill:#f9938f;}.cls-18{fill:#ff9e7f;}.cls-19{fill:#2979ff;}.cls-20{fill:#f28c8c;}.cls-21,.cls-25,.cls-42,.cls-45{opacity:0.2;}.cls-22{fill:#41b4e6;}.cls-23{fill:#4d4677;}.cls-24{clip-path:url(#clip-path);}.cls-25{mix-blend-mode:multiply;fill:url(#linear-gradient);}.cls-26{fill:#ee428c;}.cls-27{fill:#8e694a;}.cls-28{fill:#002f71;}.cls-29{fill:#00265a;}.cls-30{fill:#002a65;}.cls-31{fill:#00357f;}.cls-32{fill:#001e46;}.cls-33{fill:#e2edff;}.cls-34{fill:#eaeeee;}.cls-35{fill:#825e43;}.cls-36{fill:#fbf3ff;}.cls-37{fill:#e16b40;}.cls-38{fill:#ff7871;}.cls-39{fill:#ff8479;}.cls-40{clip-path:url(#clip-path-2);}.cls-41{fill:#aca8f4;}.cls-43{fill:#b6fff6;}.cls-44{fill:#4b6ebc;}.cls-46{fill:#ee2c6a;}.cls-47{fill:#bb4f23;}.cls-48{clip-path:url(#clip-path-3);}.cls-49{fill:#88630a;}.cls-50{clip-path:url(#clip-path-4);}.cls-51{fill:#113c7a;}.cls-52{clip-path:url(#clip-path-5);}</style><clipPath id="clip-path"><path class="cls-1" d="M164.07,364.29c-9.7,5.6-17.52,19.16-17.49,30.3l.63,222.11c0,11.15,7.91,15.64,17.61,10L489.9,439.06c9.69-5.6,17.52-19.16,17.49-30.31l-.63-222.11c0-11.15-7.91-15.64-17.61-10Z"/></clipPath><linearGradient id="linear-gradient" x1="-3.17" y1="405.87" x2="665.08" y2="693.41" gradientUnits="userSpaceOnUse"><stop offset="0.29" stop-color="#fff"/><stop offset="1" stop-color="#1d1140" stop-opacity="0"/></linearGradient><clipPath id="clip-path-2"><polygon class="cls-1" points="276.3 580.19 475.01 464.88 881.41 645.53 622.64 891.48 265.49 619.16 276.3 580.19"/></clipPath><clipPath id="clip-path-3"><path class="cls-2" d="M489.29,578v3c0-1-.68,1.77-2,1l0-6.7C488.62,576.14,489.3,577,489.29,578Z"/></clipPath><clipPath id="clip-path-4"><path class="cls-1" d="M491.67,581.87l0,4.54a18.8,18.8,0,0,1-9.24,2.23l0-4.55A18.8,18.8,0,0,0,491.67,581.87Z"/></clipPath><clipPath id="clip-path-5"><path class="cls-1" d="M469.27,580.81l0-6.87c0,1.95,1.28,3.91,3.86,5.4a19,19,0,0,0,9.28,2.22l0,7.08a18.88,18.88,0,0,1-9.28-2.23C470.55,584.92,469.26,582.77,469.27,580.81Z"/></clipPath></defs><title> Virtual Conference</title><g class="cls-3"><g id="Layer_1" data-name="Layer 1"><path class="cls-4" d="M864.71,630.47l33.63,19.43-79.59,45.94-87.19-50.33,79.59-46,51.69,29.85.16.17A3.84,3.84,0,0,0,864.71,630.47Z"/><polygon class="cls-5" points="984.57 700.8 904.97 746.76 817.78 696.41 897.37 650.47 984.57 700.8"/><path class="cls-6" d="M917.23,636.7q19.65,11.32,39.28,22.68l-23.86,13.79-39.3-22.68Q905.27,643.58,917.23,636.7Z"/><path class="cls-7" d="M956.51,659.38l2.33-1.34-41.61-24L891,649.14l2.32,1.35,39.3,22.68Zm7-1.34-30.81,17.81-46.24-26.71,16.27-9.38v0l14.55-8.39Z"/><path class="cls-8" d="M958.84,658l-2.33,1.34Q936.86,648,917.23,636.7V634Z"/><path class="cls-9" d="M917.23,634v2.68q-11.93,6.88-23.88,13.79L891,649.14Z"/><polygon class="cls-10" points="963.46 688.63 963.46 693.64 932.65 711.43 932.65 675.85 963.46 658.04 963.46 688.63"/><polygon class="cls-11" points="932.65 675.85 932.65 711.43 886.4 684.74 886.4 657.43 886.4 649.14 932.65 675.85"/><path class="cls-4" d="M905,746.76l-79.61,46-87.18-50.34,79.6-46,.37.22s0,0,0,0a3.66,3.66,0,0,0,.64.54,3.55,3.55,0,0,0,1.16.48Z"/><polygon class="cls-5" points="825.36 792.71 745.77 838.67 658.57 788.33 738.18 742.37 825.36 792.71"/><polygon class="cls-5" points="635.78 499.42 556.19 545.38 469 495.05 548.61 449.09 635.78 499.42"/><path class="cls-4" d="M806.17,688.58l8.24,4.76a15.89,15.89,0,0,0,3.38,1.46,1.51,1.51,0,0,0,.36,1.83l-.37-.22-87.2-50.33,1-.57"/><polygon class="cls-5" points="817.78 696.41 738.18 742.37 650.99 692.02 730.58 646.08 817.78 696.41"/><polygon class="cls-4" points="745.77 838.67 666.17 884.63 578.98 834.28 658.57 788.33 745.77 838.67"/><polygon class="cls-4" points="738.18 742.37 658.57 788.33 571.38 737.99 650.99 692.02 738.18 742.37"/><polygon class="cls-4" points="723 549.77 643.38 595.73 556.19 545.38 635.8 499.42 723 549.77"/><path class="cls-12" d="M699.39,626.93l32.17,18.58-1,.57L697,626.66a7.38,7.38,0,0,0,2.42.27Z"/><path class="cls-4" d="M697,626.66l33.63,19.42L651,692l-87.2-50.33,79.6-46,51.69,29.85a1.29,1.29,0,0,0,.15.17A3.94,3.94,0,0,0,697,626.66Z"/><polygon class="cls-5" points="666.17 884.63 586.58 930.57 499.38 880.24 578.98 834.28 666.17 884.63"/><polygon class="cls-5" points="571.38 737.99 658.57 788.33 578.98 834.28 491.78 783.95 571.38 737.99"/><polygon class="cls-5" points="650.99 692.02 571.38 737.99 484.18 687.65 563.79 641.69 650.99 692.02"/><polygon class="cls-5" points="810.19 600.1 730.58 646.06 643.38 595.73 723 549.77 810.19 600.1"/><polygon class="cls-5" points="643.38 595.73 563.79 641.69 476.6 591.34 556.19 545.38 643.38 595.73"/><polygon class="cls-9" points="586.58 930.57 586.58 940.63 150.54 689.05 150.54 678.99 237.8 729.21 324.99 779.56 412.19 829.89 499.38 880.24 586.58 930.57"/><polygon class="cls-4" points="578.98 834.28 499.38 880.24 412.19 829.89 491.78 783.95 578.98 834.28"/><polygon class="cls-4" points="571.38 737.99 491.78 783.95 404.59 733.6 484.18 687.65 571.38 737.99"/><polygon class="cls-4" points="563.79 641.69 484.18 687.65 396.99 637.3 476.6 591.34 563.79 641.69"/><polygon class="cls-4" points="556.19 545.38 476.6 591.34 389.4 541.01 469 495.05 556.19 545.38"/><polygon class="cls-5" points="404.59 733.6 491.78 783.95 412.19 829.89 324.99 779.56 404.59 733.6"/><polygon class="cls-5" points="396.99 637.3 484.18 687.65 404.59 733.6 317.39 683.25 396.99 637.3"/><polygon class="cls-5" points="476.6 591.34 396.99 637.3 309.81 586.97 389.4 541.01 476.6 591.34"/><polygon class="cls-4" points="404.59 733.6 324.99 779.56 237.8 729.21 317.39 683.25 404.59 733.6"/><polygon class="cls-4" points="309.81 586.97 396.99 637.3 317.39 683.25 230.21 632.91 309.81 586.97"/><polygon class="cls-5" points="317.39 683.25 237.8 729.21 150.62 678.87 230.21 632.91 317.39 683.25"/><path class="cls-13" d="M947.61,595.65a34.63,34.63,0,0,1-.94,7.18,37.32,37.32,0,0,1-1.33,4.6,49.54,49.54,0,0,1-6.26,12.07,15.75,15.75,0,0,1-2.84,3,10.88,10.88,0,0,1-2.28,1.4,5.75,5.75,0,0,1-3.35.53h0a3.24,3.24,0,0,1-1.08-.41l.06-.2c1.23-4.27,2.95-9.08,4.11-13.2l.2-.06a8.72,8.72,0,0,0,1.07-.41l.2-.09.11,0,.17-.09c.19-.09.38-.2.57-.31l.14-.08c2.4-1.45,4.32-3.86,4.43-6.51h0a5.42,5.42,0,0,0,0-.57,6,6,0,0,0-.53-2.13,9.23,9.23,0,0,0-1.67-2.39,8.13,8.13,0,0,0,2.64-2.1,10.67,10.67,0,0,0,1.71-3l0,0a4.48,4.48,0,0,1,2.85-.67l.27.06a2.35,2.35,0,0,1,1.48,1.54A7,7,0,0,1,947.61,595.65Z"/><path class="cls-14" d="M936,609.6l.14-.08c-.68,1.56-1.23,3.16-1.87,4.83a21.76,21.76,0,0,1-.39-3.8,8.72,8.72,0,0,0,1.07-.41l.2-.09.11,0,.17-.09C935.62,609.82,935.81,609.71,936,609.6Z"/><path class="cls-13" d="M945.86,592.13a23.33,23.33,0,0,1-1.92,5.11,39.15,39.15,0,0,1-3.37,5.2,6,6,0,0,0-.53-2.13,9.23,9.23,0,0,0-1.67-2.39,8.13,8.13,0,0,0,2.64-2.1,10.67,10.67,0,0,0,1.71-3l0,0a4.48,4.48,0,0,1,2.85-.67Z"/><path class="cls-13" d="M940.83,577.15c1-.19,1.66.66,2.11,1.61a16.28,16.28,0,0,1,1.2,5.5,22.8,22.8,0,0,1-1.51,8.63,10.9,10.9,0,0,1-1.65,2.92,8,8,0,0,1-2.62,2.11,21.21,21.21,0,0,0-3-2.6l-.11-.08h0a34.27,34.27,0,0,0-2.07-8h0a15.84,15.84,0,0,1,4.12-7.32,14.88,14.88,0,0,1,2.49-2.28A2.93,2.93,0,0,1,940.83,577.15Z"/><path class="cls-15" d="M943.16,585.18a12.61,12.61,0,0,0-.81-2.75c-.32-.68-.66-1.07-.93-1.07h-.09a2.24,2.24,0,0,0-.7.33,13.64,13.64,0,0,0-2.3,2.12,16.24,16.24,0,0,0-3.44,5.31c-.2-.66-.43-1.32-.68-2a14.63,14.63,0,0,1,3.82-6.57,12.91,12.91,0,0,1,2.3-2.12,2.11,2.11,0,0,1,.69-.33h.09c.27,0,.61.39.93,1.07a15.72,15.72,0,0,1,1.11,5.12C943.16,584.59,943.17,584.88,943.16,585.18Z"/><path class="cls-15" d="M938.18,597.72a21.46,21.46,0,0,0-2.83-2.4l-.11-.08h0a34.51,34.51,0,0,0-1.85-7.46,4.83,4.83,0,0,1,2.41,1.5c1.77,1.9,2.29,4.92,2.37,7.41C938.18,597,938.19,597.38,938.18,597.72Z"/><path class="cls-13" d="M934.5,623.15c-.17.25-.35.5-.54.74a5.75,5.75,0,0,1-3.35.53h0a3.4,3.4,0,0,1-1-.34l-.08-.2c1.23-4.29,3-9.13,4.13-13.27a8.86,8.86,0,0,0,1.27-.47l.2-.09.11,0,.17-.09c.19-.09.38-.2.57-.31,0,1.67,8.56-13.91,7.94-12.36C942,602.25,936.12,620.68,934.5,623.15Z"/><path class="cls-15" d="M940.57,603h0c-.11,2.71-2.11,5.16-4.57,6.59a10.27,10.27,0,0,1-2.32,1l-.32.09a6.87,6.87,0,0,1-2.91.13,13.47,13.47,0,0,1-3.2-1l-.2-.09a13.78,13.78,0,0,1-2.12-1.2,8.19,8.19,0,0,1-3.46-4.75,9.66,9.66,0,0,1-.36-3A8,8,0,0,1,922.2,597a11,11,0,0,1,6-4.66,3.91,3.91,0,0,1,1.31-.08l.22,0c1.72.3,4.1,1.89,5.51,2.91h0l.11.08a21.46,21.46,0,0,1,2.83,2.4l.18.2h0a9.23,9.23,0,0,1,1.67,2.39A5.88,5.88,0,0,1,940.57,603Z"/><path class="cls-15" d="M926.28,602.52a8.45,8.45,0,0,0,.32,2.68,7.21,7.21,0,0,0,3.07,4.2,6.17,6.17,0,0,0,.6.39,12.85,12.85,0,0,1-2.62-.85l-.16-.08h0a12,12,0,0,1-2-1.1,7.23,7.23,0,0,1-3.07-4.21,8.42,8.42,0,0,1-.32-2.68,7.06,7.06,0,0,1,.94-3.31,10,10,0,0,1,5.36-4.2,3.68,3.68,0,0,1,.71-.08l.28,0,.15,0a11,11,0,0,1,3.49,1.63,3.5,3.5,0,0,0-.45.07,9.94,9.94,0,0,0-5.36,4.19A7,7,0,0,0,926.28,602.52Z"/><path class="cls-15" d="M939.59,633.08a1.36,1.36,0,0,1,.88,1.37,19.49,19.49,0,0,1-1.55,4.74,43.08,43.08,0,0,1-6.76,11,6.59,6.59,0,0,1-2.15,1.58,2.29,2.29,0,0,1-1.7.09h0a1.72,1.72,0,0,1-.87-.75,2.5,2.5,0,0,1-.16-1.73,9.72,9.72,0,0,1,.27-1.16l.06-.2c.21-.71.5-1.52.83-2.36a38.78,38.78,0,0,1,2.64-5.38,21.06,21.06,0,0,1,2.38-3.35,17.86,17.86,0,0,1,3.64-3.15,3,3,0,0,1,2.49-.7Z"/><path class="cls-15" d="M931.51,656c.49,1.24-.34,2.35-1.51,3a6.19,6.19,0,0,1-1.23.54A8.94,8.94,0,0,1,922,659a3.13,3.13,0,0,1-1.59-1.84,59.5,59.5,0,0,1-1.94-15.6,9.14,9.14,0,0,0,2.22.86v0a4.55,4.55,0,0,0,3.76-1,4,4,0,0,0,1.26-1.91h0a4.41,4.41,0,0,0-.41-3.37,8.57,8.57,0,0,0-.78-1.14,17.41,17.41,0,0,0-2.68-2.56c-.46-.38-1.24-1-2.07-1.56,1.37-6.05,3.6-11.27,5.64-16.32h0c.57-1.42,1.13-2.83,1.64-4.24l.2-.54a13.87,13.87,0,0,0,2.55.85c.22,0,.44.1.65.13a6.87,6.87,0,0,0,2.91-.13l.32-.09c-1.16,4.12-2.88,8.93-4.11,13.2l-.06.2c-.39,1.44-.72,2.85-1,4.26a44,44,0,0,0-.07,17.39c-.33.84-.62,1.65-.83,2.36l-.06.2a9.72,9.72,0,0,0-.27,1.16,2.5,2.5,0,0,0,.16,1.73,1.72,1.72,0,0,0,.87.75h0a2.29,2.29,0,0,0,1.7-.09C930.44,653.14,931,654.62,931.51,656Z"/><path class="cls-15" d="M935.24,595.24a29.19,29.19,0,0,0-2.83-1.83,9.07,9.07,0,0,0-2.68-1.08c-.11-.93-.27-1.86-.46-2.78a46.23,46.23,0,0,0-4.39-11.84h0a5.17,5.17,0,0,1-1.71-.35,14.48,14.48,0,0,1-4.09-2.4,9,9,0,0,1-2.06-2.49,6.73,6.73,0,0,1-.94-4.87h0c.52-1.74,2.46-3.38,4.2-3,1.29.28,3.83,2.24,4.86,3.06a14,14,0,0,1,3.45,3.71,4.42,4.42,0,0,1,.47,3.18c0,.06,0,.12,0,.18h0a4,4,0,0,1-1.43,2,51.75,51.75,0,0,1,5.59,10.45c.07.18.15.37.22.56A34.51,34.51,0,0,1,935.24,595.24Z"/><path class="cls-13" d="M925.41,614.63h0c-2,5-4.27,10.27-5.64,16.32a9.65,9.65,0,0,0-2.78-1.5,3.36,3.36,0,0,0-2.89,1h0a21,21,0,0,1-2.94-7.55,18.15,18.15,0,0,1-.06-5.85,32.08,32.08,0,0,1,1.85-6.83,29.72,29.72,0,0,1,1.53-3.47,5.3,5.3,0,0,1,2.22-2.51,2,2,0,0,1,1-.1,1.65,1.65,0,0,1,.32.07l.23.08a4.31,4.31,0,0,1,1.05.58C921.13,606.13,923,609,924,611A22.9,22.9,0,0,1,925.41,614.63Z"/><path class="cls-15" d="M923.33,611.89a12,12,0,0,0-2.4-2.59,3.85,3.85,0,0,0-.82-.46h0l-.14-.05-.2,0-.19,0a.84.84,0,0,0-.35.07c-.34.13-.92.59-1.7,2.05a27.88,27.88,0,0,0-1.47,3.34,30.32,30.32,0,0,0-1.8,6.62,17.66,17.66,0,0,0,.64,7.93,4.44,4.44,0,0,0-.49.24,19.73,19.73,0,0,1-2.26-6.28,17.12,17.12,0,0,1-.06-5.54,31.33,31.33,0,0,1,1.8-6.62,29.86,29.86,0,0,1,1.47-3.35c.78-1.45,1.36-1.92,1.71-2.05a1,1,0,0,1,.35-.06h.18a.84.84,0,0,1,.2,0l.14,0h0a3.17,3.17,0,0,1,.81.45,18,18,0,0,1,4.34,5.78C923.18,611.57,923.26,611.73,923.33,611.89Z"/><path class="cls-15" d="M928.51,628.27a44,44,0,0,0-.07,17.39c-.33.84-.62,1.65-.83,2.36l-.06.2a9.72,9.72,0,0,0-.27,1.16,2.5,2.5,0,0,0,.16,1.73,1.72,1.72,0,0,0,.87.75h0a2.29,2.29,0,0,0,1.7-.09c.43,1.37,1,2.85,1.5,4.23s-.34,2.35-1.51,3a6.19,6.19,0,0,1-1.23.54,50.07,50.07,0,0,1-4.32-18.08,57,57,0,0,1,.07-6.42,61.27,61.27,0,0,1,2.3-12.71c1.12-3.89,2.13-7.84,3-11.66.22,0,.44.1.65.13a6.87,6.87,0,0,0,2.91-.13l.32-.09c-1.16,4.12-2.88,8.93-4.11,13.2l-.06.2C929.12,625.45,928.79,626.86,928.51,628.27Z"/><path class="cls-15" d="M926.11,577.16l1.47-.39a51.75,51.75,0,0,1,5.59,10.45c.07.18.15.37.22.56a34.51,34.51,0,0,1,1.85,7.46,29.19,29.19,0,0,0-2.83-1.83C932.71,586.1,926.11,577.16,926.11,577.16Z"/><path class="cls-15" d="M925.3,636.21a4.41,4.41,0,0,1,.41,3.37h0a4.38,4.38,0,0,1-5,2.9v0a9.14,9.14,0,0,1-2.22-.86c-.35-.18-.71-.39-1.09-.62a11.12,11.12,0,0,1-2.83-2.42c-1.28-1.6-2.36-4.15-1.77-6.11h0a4.57,4.57,0,0,1,1.29-2l0,0a3.36,3.36,0,0,1,2.89-1,9.65,9.65,0,0,1,2.78,1.5c.83.58,1.61,1.18,2.07,1.56A13.67,13.67,0,0,1,925.3,636.21Z"/><path class="cls-9" d="M986.33,710c-20.24,11.56-34.7,20-54.88,31.65Q899.25,760.22,867,778.83q-29.87,17.25-59.75,34.46-32.2,18.6-64.41,37.23-29.73,17.16-59.47,34.3-32.35,18.67-64.68,37.38-14.65,8.47-29.31,16.93a20.56,20.56,0,0,1-2.76,1,80.14,80.14,0,0,1,.11-8.57c.09-.88,1.33-1.83,2.26-2.37,10-5.84,20.08-11.59,30.12-17.38q30.12-17.39,60.24-34.77,32.48-18.72,65-37.45,29.83-17.24,59.63-34.53,30-17.33,60-34.55,29.56-17.07,59.11-34.17,17.25-10,34.5-20c.52-.3,1-.66,2.09-1.4l25.08-14.18S985,703.22,986.33,710Z"/><path class="cls-11" d="M497.35,139.29l.63-.35c.27-.15.55-.29.82-.42s.54-.26.8-.38l.8-.34c.27-.11.53-.21.8-.3l.15-.05.06,0,.59-.19c.27-.09.55-.16.82-.23s.54-.13.81-.18a8.74,8.74,0,0,1,.87-.14,5.9,5.9,0,0,1,.59-.06h.08l.22,0c.31,0,.62,0,.93,0s.69,0,1,.05a10.42,10.42,0,0,1,1.14.17h.07a9.89,9.89,0,0,1,1.32.36,9.43,9.43,0,0,1,1.61.75l13.17,7.65a9.87,9.87,0,0,0-2.93-1.11h0a11.86,11.86,0,0,0-3.34-.17h-.1a16.29,16.29,0,0,0-3.67.8l-.05,0a21.87,21.87,0,0,0-4,1.85L142.61,359.36l-13.17-7.65Z"/><path class="cls-11" d="M109.65,385.11c0-.32,0-.64,0-1s0-.65.08-1,.06-.65.11-1,.08-.66.14-1v0c0-.32.1-.64.16-1l.21-1,.24-1c.09-.35.18-.7.28-1.05l.24-.82s0,0,0-.06l0-.17c.1-.34.21-.69.33-1s.23-.67.35-1,.24-.65.37-1,.25-.64.38-1,.21-.49.32-.73l0-.05c0-.05,0-.11.07-.17.14-.32.29-.64.44-1s.33-.69.5-1,.41-.8.62-1.19.46-.84.7-1.26a2.53,2.53,0,0,0,.13-.22l.15-.26c.46-.8,1-1.58,1.47-2.35.41-.61.82-1.21,1.26-1.79.28-.39.58-.78.88-1.16l.76-.95c.26-.3.51-.6.77-.89s.51-.58.77-.86l.16-.16.06-.06c.2-.22.39-.43.6-.63s.55-.56.83-.83.58-.55.88-.81.58-.52.88-.77l.45-.37.1-.08c.11-.09.22-.19.34-.27.28-.23.57-.45.87-.67s.57-.42.86-.61.56-.38.85-.56l.84-.52.2-.11,13.17,7.65a30.83,30.83,0,0,0-4,2.74l-.1.09a38.61,38.61,0,0,0-3.64,3.4l-.06.06a46.31,46.31,0,0,0-6.22,8.42l-.12.23a48.65,48.65,0,0,0-2.34,4.61l0,.06a43.37,43.37,0,0,0-1.8,4.87s0,.05,0,.07a38.42,38.42,0,0,0-1.13,4.9v0a30.91,30.91,0,0,0-.39,4.83L123.52,645a22,22,0,0,0,.4,4.28l0,.12a15.79,15.79,0,0,0,1.12,3.5l0,.07a11.23,11.23,0,0,0,1.49,2.3c.18.23.35.48.55.69a10,10,0,0,0,2.17,1.79l-13.17-7.66a9.5,9.5,0,0,1-2.17-1.79c-.2-.21-.37-.45-.55-.68a9,9,0,0,1-.72-.89,12.57,12.57,0,0,1-.75-1.36l0-.06s0,0,0-.06c-.15-.32-.3-.66-.43-1s-.24-.68-.34-1-.19-.67-.27-1c0-.14-.06-.29-.08-.43l0-.12c0-.14-.06-.28-.08-.42-.06-.31-.1-.63-.14-1s-.08-.63-.1-1-.05-.62-.06-.93,0-.64,0-1v-.05L109.63,386C109.63,385.71,109.64,385.41,109.65,385.11Z"/><path class="cls-9" d="M142.61,359.36c-11,6.34-19.84,21.69-19.81,34.3L123.52,645c0,12.61,9,17.7,19.93,11.36L511.36,444c11-6.33,19.84-21.68,19.8-34.29l-.71-251.39c0-12.61-9-17.69-19.93-11.35Z"/><path class="cls-4" d="M164.07,364.29c-9.7,5.6-17.52,19.16-17.49,30.3l.63,222.11c0,11.15,7.91,15.64,17.61,10L489.9,439.06c9.69-5.6,17.52-19.16,17.49-30.31l-.63-222.11c0-11.15-7.91-15.64-17.61-10Z"/><path class="cls-16" d="M537.63,646c-2.33-1.37-2.77-4-1.19-5.06l21.42-11.32,5.77,1.63c1.84,1.13.78,4-.49,5-3.73,3-12.79,8.36-12.79,8.36C544,648.37,540.37,647.63,537.63,646Z"/><path class="cls-8" d="M537.08,644.5c-.85-.65-1.65-3-.08-4l20.34-12.34,6.29,3.15a3.54,3.54,0,0,1-.91,4.49,98.62,98.62,0,0,1-14.9,9C543,647,539.82,646.59,537.08,644.5Z"/><path class="cls-15" d="M536.68,640.72c.75-3.13,3.47-4.68,8.2-8.2a25.83,25.83,0,0,0,7.84-8.93,82.46,82.46,0,0,1,9.9,2.08,2.91,2.91,0,0,0,0,.3c0,.47,1,1,1.07,1.45.23,2.92.32,4.54-.43,6-1.66,3.19-15.87,10.36-19,11.45S535.94,643.84,536.68,640.72Z"/><path class="cls-17" d="M560.39,629.43c-1.31.65-2.38,1.12-2.3,0a14.22,14.22,0,0,0,.11-1.73,2,2,0,0,0-1.76-1.77,24.58,24.58,0,0,0-4.74-.56,15.73,15.73,0,0,0,2.63-6.69l9.22-3.79a62.27,62.27,0,0,0-.44,12.8A24.19,24.19,0,0,1,560.39,629.43Z"/><path class="cls-16" d="M561.58,661.62c-1.56-1.14-2.26-3.44-.66-4.52L581.67,646a.6.6,0,0,1,.58,0l5.64,1c1.94.94,1.53,4.43-.1,5.84a49.84,49.84,0,0,1-14.53,9.38C569.33,663.83,565.18,664.26,561.58,661.62Z"/><path class="cls-8" d="M561.58,660.75a2.43,2.43,0,0,1-.29-4.21l20.38-12.37a.6.6,0,0,1,.58,0l5.33,2.57c1.94.94,1.84,3.75.21,5.16A51.46,51.46,0,0,1,573.16,661C569.23,662.74,565.78,663.17,561.58,660.75Z"/><path class="cls-15" d="M561.06,657.43a12.37,12.37,0,0,1,3.9-4.92c1.38-1.14,3-2.38,4.72-3.58a25.84,25.84,0,0,0,7.86-9c2.22.45,4.62.45,6.8.81l3.09.49c0,.09,0,.19,0,.28,0,.4,1,1.06,1,1.45.26,3.11.35,5.34-.44,6.86C586.37,653,574.12,660.09,571,661,566.09,662.3,560.37,660.56,561.06,657.43Z"/><path class="cls-18" d="M587.84,643.62c-1.54.94-2.61,2-4.47,2.36,0-1.27.7-1.58,0-2.86-1.11-1.88-5.37-2.7-6.52-1.9a32.64,32.64,0,0,0,4.28-11.66l7.22,1.8A57.71,57.71,0,0,0,587.84,643.62Z"/><polygon class="cls-19" points="566.92 537.18 546.64 496.44 583.59 502.88 566.92 537.18"/><path class="cls-6" d="M566.72,497.31c2.81,9.08-.46,68.94-1.49,79.3s-13.39-6-16.82-10.57-6.87-47.72-4.57-65.58C546,483.45,561.8,481.47,566.72,497.31Z"/><path class="cls-6" d="M551.09,513.57s.26-18.74.62-26.26c5.44-2.48,12.11.66,15,10,1.92,6.21,1,40.81-.43,62.52-.75-8.17-1.19-11.27-2.65-13.35a39.81,39.81,0,0,1-6.15-14.4S556.13,516.24,551.09,513.57Z"/><path class="cls-6" d="M544.41,540.75s8.2,59.14,8.09,77.55c3.49,2.7,9.78,3,11.67,1.13.59-5.48,2.9-36.55,1.51-44.61a161,161,0,0,0-5.59-21.5Z"/><path class="cls-6" d="M573.5,561.07c4.12,62.31,6,59,4.32,71.83,2.21,4.71,11,3.24,13.1,1,.53-.55,4.34-40.54,2.58-48.13-1.85-8-8.21-18.11-8.21-18.11Z"/><path class="cls-6" d="M589.69,503.62c3.39,8.89,4.62,73.33,4.27,83.75s-17.45,2.29-18.25-3.4c-5.23-36.94-14.93-56.87-11.93-73.76S583.76,488.14,589.69,503.62Z"/><path class="cls-6" d="M565.43,535.47l-4-2.73a7.92,7.92,0,0,1-3.29-4.81l-.89-4.27a8.18,8.18,0,0,1,3.41-8.41l3.6-2.44Z"/><path class="cls-17" d="M527.72,458.2l19.69-40.52c6.67-10,17.3,6.17,9.86,15.32a200.08,200.08,0,0,1-24.77,34.65C530.18,463.09,530.71,462.4,527.72,458.2Z"/><path class="cls-17" d="M499.89,441.43l31.55,13.43A68.41,68.41,0,0,1,532.87,467l-1,.45c-10.14-3.49-23-12.1-36.22-21.4Z"/><path class="cls-6" d="M591.27,497.2c-.15,5.16-.35,10.81-.59,17.13,0,0-9.36,6.81-21.21,5.64a38.19,38.19,0,0,1-26.17-13.51,16.09,16.09,0,0,0,3-9Z"/><path class="cls-11" d="M559.24,431.22l-6.56,9.27a41.57,41.57,0,0,0-4-3c-3-2-6.11-3.91-9.22-5.82A7.68,7.68,0,0,0,539,431l9.38-15.13c.82-1.42,1.21.28,2.14,1.62C553.55,422,556.27,426.69,559.24,431.22Z"/><path class="cls-6" d="M553.69,440.88l-1.88,2.8a1,1,0,0,1-1.2.14c-2.31-1.09-9.47-4.87-13.76-11.3a.88.88,0,0,1,0-1.1l1.67-2.76a1.14,1.14,0,0,1,1.6.12c2.11,2.18,7.72,7.7,13.12,10.59A1,1,0,0,1,553.69,440.88Z"/><path class="cls-11" d="M563.94,410.43a49.33,49.33,0,0,1,28.44,20.69,13.51,13.51,0,0,1,2.11,6c3,29.14-1.33,52.3-1.76,70.44a6.2,6.2,0,0,1-3.53,5.4,38.2,38.2,0,0,1-19.56,3.78A47.92,47.92,0,0,1,557,513.9c-1-.4-4.18-1.87-4.71-2.15a39.78,39.78,0,0,1-8.45-6c-1.55-1.43-.09-3.54,0-5.65.62-10.24,1-39.84.36-66.89C544.23,429.05,544.83,405.28,563.94,410.43Z"/><path class="cls-17" d="M501.1,442.75s-6.08-6.12-8.7-7.06c-1.85-.66-6.76-2.78-8.36-.73s-1.89,9.88.77,12c2.27,1.79,12.44-.06,12.44-.06Z"/><path class="cls-6" d="M577,517.93s2.33,11.66,12.93,15.69l-2-1.75a12.32,12.32,0,0,1-4.09-9.4l.1-5.81Z"/><path class="cls-11" d="M577.68,632.19c3.65,2.85,9.7,2.78,13.12,1.27a1,1,0,0,1,1.35.79,26,26,0,0,1-.8,9.5c-2.69,2.83-12.67,2.94-15.46-3,.41-3.09.65-5.58.75-8.12A.63.63,0,0,1,577.68,632.19Z"/><path class="cls-11" d="M552.43,611.56c3.46,2.85,9.2,2.77,12.43,1.26a.92.92,0,0,1,1.28.8,27.26,27.26,0,0,1-.75,9.49c-2.55,2.84-12,2.95-14.66-3,.39-3.1.62-5.58.71-8.12A.6.6,0,0,1,552.43,611.56Z"/><path class="cls-20" d="M563.51,421.49c3.69,2.18,7.21,1.69,10.63-.38a3.55,3.55,0,0,0,1.73-3V400.77l-14.5,3.09v13.77A4.47,4.47,0,0,0,563.51,421.49Z"/><path class="cls-17" d="M559.66,415.42c3.48.06,8.6-3.46,12.19-6.48.79-.67.26-6.3,1.09-7,3.25-2.56,7.84-.22,7.84-3.74,0-8.57-7-13.72-14.17-13.72-4.5,0-9.16.69-11.57,4.48a15.7,15.7,0,0,0-1.87,7.26C553.23,397.55,554.56,415.34,559.66,415.42Z"/><path class="cls-6" d="M568.61,393a8.28,8.28,0,0,1-6.48,3.52c-12.22,0-15.74-9.82-12.59-14.45,3.5-5.14,6.59-1,10.55-3,5.2-2.55,18.08-4.65,22.58,4.67,3.27,6.77,2.26,12.75.79,16-1.57,3.46-7.54,9.18-7.54,11.73l-1.57-5.07-.2-5-2.65-.68h0a3.54,3.54,0,0,1-2.8-3.39Z"/><path class="cls-17" d="M570.05,400.9c0,2.46.48,4.51,2.07,4.51s3.5-3.28,3.5-5.74-.49-3.36-2.08-3.36S570.05,398.44,570.05,400.9Z"/><path class="cls-17" d="M569.58,399.83c0,2.47.48,4.51,2.08,4.51s3.92-2.94,3.92-5.4-.91-3.69-2.51-3.69S569.58,397.37,569.58,399.83Z"/><path class="cls-21" d="M549.25,509.34a255.94,255.94,0,0,0,18.06-20.85A248.72,248.72,0,0,1,574,458.74l-.8-.4a1.07,1.07,0,0,1-.55-1.11l.55-3.8a1.06,1.06,0,0,1,1.16-.9l4-16.42c.67-3.4,2.89-7.45,6.34-7.77,5.76-.52,11,6.18,9.82,11.85-.56,2.64-2.08,10.37-3,14.87a1,1,0,0,1,.48,1l-.69,4a1.08,1.08,0,0,1-.91.9L590,461a140.68,140.68,0,0,1-9.21,27.54l-.07,0c-7.27,12.81-19,20.72-25.54,24.49C553,512,550.37,511.08,549.25,509.34Z"/><path class="cls-17" d="M527.08,518.26c0-.63,3-3.68,4.38-6-1.41.55-2.83,1-2.66.32.42-1.55,4.81-3.81,6.12-4.46a3.65,3.65,0,0,1,.59-.3c1.06-.36,4,1,7.32.26a216.32,216.32,0,0,0,21.67-21.84c4.57-.88,13.38.81,13.38.81-10.69,16.8-29.5,24.51-31.72,25.49-2,1.3-7.22,6.32-8.27,6.85-1.47.75-4.31-.21-5-.17S527.15,519.45,527.08,518.26Z"/><path class="cls-17" d="M564,488.92c1.93-11.59,9.55-37.88,15.38-47.69,1.65-2.78,3.47-4.83,6.71-4.45A7.06,7.06,0,0,1,592,445a145.24,145.24,0,0,1-14,42.06C577.84,487.22,567.79,492.24,564,488.92Z"/><path class="cls-11" d="M572.37,454l5.82-19.42c.85-3.36,3.27-7.29,6.73-7.42,5.79-.23,10.68,6.74,9.19,12.33-1,3.76-4.55,18-4.55,18A35.42,35.42,0,0,1,572.37,454Z"/><path class="cls-6" d="M590.81,455.26l-.9,3.92a1.08,1.08,0,0,1-.95.86c-2.49.22-10.37.55-17.08-3.52a1.11,1.11,0,0,1-.5-1.14l.75-3.76a1.07,1.07,0,0,1,1.41-.82c2.83,1,10.23,3.37,16.19,3.16A1.07,1.07,0,0,1,590.81,455.26Z"/><polygon class="cls-22" points="486.56 454 485.71 453.49 486.56 452.25 486.56 454"/><polygon class="cls-8" points="496.39 428.23 494.91 427.36 495.29 425.84 496.39 426.48 496.39 428.23"/><path class="cls-9" d="M495.72,447.12a1.33,1.33,0,0,1-.66,1.15l-8.81,5.19a.6.6,0,0,1-.9-.52V432.21a1.35,1.35,0,0,1,.65-1.15l8.76-5.14a.63.63,0,0,1,1,.55Z"/><path class="cls-8" d="M487.09,431.53l.55-.34,8.08-2.66v-2.06a.63.63,0,0,0-1-.55L486,431.06h0a.29.29,0,0,0,0,.5l.09,0A1,1,0,0,0,487.09,431.53Z"/><path class="cls-6" d="M496.65,447.66a1.34,1.34,0,0,1-.66,1.16L487.17,454a.6.6,0,0,1-.9-.51V432.76a1.33,1.33,0,0,1,.66-1.15l8.77-5.16a.63.63,0,0,1,.95.54Z"/><path class="cls-11" d="M495.83,447.15l-8.81,5.1a.11.11,0,0,1-.17-.09v-18.5a.43.43,0,0,1,.2-.35l8.74-5.06a.15.15,0,0,1,.23.13v18.43A.39.39,0,0,1,495.83,447.15Z"/><polygon class="cls-6" points="486.16 440.14 485.4 439.73 485.4 439.44 486.16 439.86 486.16 440.14"/><polygon class="cls-6" points="486.16 440.77 485.4 440.35 485.4 440.07 486.16 440.49 486.16 440.77"/><polygon class="cls-6" points="486.16 441.4 485.4 440.98 485.4 440.7 486.16 441.12 486.16 441.4"/><polygon class="cls-6" points="486.16 442.02 485.4 441.61 485.4 441.33 486.16 441.74 486.16 442.02"/><polygon class="cls-6" points="486.16 442.65 485.4 442.24 485.4 441.96 486.16 442.37 486.16 442.65"/><path class="cls-6" d="M485.87,438.67l-.27-.16a.12.12,0,0,1,0-.08v-1.85a.1.1,0,0,1,.14-.08l.26.16a.1.1,0,0,1,.05.08v1.85A.1.1,0,0,1,485.87,438.67Z"/><polygon class="cls-6" points="485.97 438.67 485.85 438.74 485.85 438.51 485.97 438.44 485.97 438.67"/><polygon class="cls-23" points="485.61 436.73 485.49 436.81 485.49 436.58 485.61 436.5 485.61 436.73"/><path class="cls-8" d="M485.76,438.74l-.27-.16a.07.07,0,0,1,0-.07v-1.86a.08.08,0,0,1,.13-.07l.27.15a.09.09,0,0,1,0,.08v1.85A.09.09,0,0,1,485.76,438.74Z"/><path class="cls-17" d="M500.58,442.81s-.75-4-2.89-5.91c-1.29-1.18-3.4-.8-4.71-1.25a.71.71,0,0,0-.88.94l4.7,5.48Z"/><path class="cls-15" d="M681.68,364.76c5.91,3.42,10.7,11.7,10.68,18.49l-.06,21.49c0,6.81-4.84,9.54-10.75,6.13l-82.48-48.14L594.25,371l-4.75-13.75-29.23-16.36c-5.91-3.42-10.68-11.68-10.66-18.49l.06-21.49c0-6.79,4.82-9.54,10.73-6.13Z"/><g class="cls-24"><polygon class="cls-25" points="516.07 427.75 168.54 262.01 83 336.86 95.83 666.21 516.07 427.75"/><polygon class="cls-7" points="364.92 449.04 371.13 445.62 371.13 565.77 364.92 569.19 364.92 449.04"/><polygon class="cls-7" points="364.92 449.04 358.77 445.62 358.77 565.72 364.92 569.19 364.92 449.04"/><polygon class="cls-7" points="281.92 496.53 288.25 493.12 288.25 613.27 281.92 616.68 281.92 496.53"/><polygon class="cls-7" points="281.92 496.53 275.88 493.12 275.88 613.22 281.92 616.68 281.92 496.53"/><polygon class="cls-7" points="670.95 643.06 677.16 639.64 677.16 759.79 670.95 763.21 670.95 643.06"/><polygon class="cls-7" points="670.95 643.06 664.8 639.64 664.8 759.74 670.95 763.21 670.95 643.06"/><polygon class="cls-7" points="587.96 690.56 594.28 687.14 594.28 807.29 587.96 810.71 587.96 690.56"/><polygon class="cls-7" points="587.96 690.56 581.92 687.14 581.92 807.24 587.96 810.71 587.96 690.56"/><path class="cls-7" d="M265.29,491.5c-23.1-13.39-23-46.77.13-60.06l6.8-3.91a95.83,95.83,0,0,1,95.77.21l312.16,196.2c23.09,13.4,23,46.77-.13,60.07l-6.76,3.88a95.84,95.84,0,0,1-95.76-.2Z"/><path class="cls-11" d="M372.45,322.68s-4.38,1-5.24,5.12,3.05,7.43,1.1,10.6-4.51,2.56-5.24,7.81,7.8,14.14,14,5.24S372.45,322.68,372.45,322.68Z"/><path class="cls-26" d="M357.87,367.94s2.8-16.27,4.6-18.14c2.2-2.2,5.82-3.92,9.45-1.24a8.12,8.12,0,0,1,3.1,9.23c-.94,2.49-10.15,23.19-12.91,25.53s-6.54,1.48-7.27-3S357.87,367.94,357.87,367.94Z"/><path class="cls-27" d="M363.79,381.31s-3.09,4.83-8.12,3.28-12-24.94-13.73-26.49c0,0-.77-5.61,4.45-5.8,0,0,12,19.73,13.73,21.85S364.37,378.6,363.79,381.31Z"/><g class="cls-3"><polygon class="cls-6" points="349.51 452.56 354.65 449.57 373.9 452.75 368.76 455.73 349.51 452.56"/><polygon class="cls-28" points="368.76 455.73 373.9 452.75 377.53 454.84 372.39 457.83 368.76 455.73"/><polygon class="cls-6" points="391.42 476.75 396.56 473.76 396.55 475.94 391.41 478.93 391.42 476.75"/><polygon class="cls-6" points="372.39 457.83 377.53 454.84 396.56 473.76 391.42 476.75 372.39 457.83"/><polygon class="cls-6" points="372.39 457.83 391.42 476.75 391.41 478.93 372.37 462.58 368.75 460.49 349.51 454.73 349.51 452.56 368.76 455.73 372.39 457.83"/></g><g class="cls-3"><polygon class="cls-29" points="397.38 452.56 392.24 449.57 372.99 452.75 378.13 455.73 397.38 452.56"/><polygon class="cls-28" points="378.13 455.73 372.99 452.75 369.37 454.84 374.51 457.83 378.13 455.73"/><polygon class="cls-30" points="355.48 476.75 350.34 473.76 350.34 475.94 355.48 478.93 355.48 476.75"/><polygon class="cls-31" points="374.51 457.83 369.37 454.84 350.34 473.76 355.48 476.75 374.51 457.83"/><polygon class="cls-32" points="374.51 457.83 355.48 476.75 355.48 478.93 374.52 462.58 378.14 460.49 397.39 454.73 397.38 452.56 378.13 455.73 374.51 457.83"/></g><g class="cls-3"><polygon class="cls-6" points="397.38 452.56 392.24 449.57 372.99 452.75 378.13 455.73 397.38 452.56"/><polygon class="cls-6" points="378.13 455.73 372.99 452.75 369.37 454.84 374.51 457.83 378.13 455.73"/><polygon class="cls-6" points="355.48 476.75 350.34 473.76 350.34 475.94 355.48 478.93 355.48 476.75"/><polygon class="cls-6" points="374.51 457.83 369.37 454.84 350.34 473.76 355.48 476.75 374.51 457.83"/><polygon class="cls-6" points="374.51 457.83 355.48 476.75 355.48 478.93 374.52 462.58 378.14 460.49 397.39 454.73 397.38 452.56 378.13 455.73 374.51 457.83"/></g><g class="cls-3"><polygon class="cls-6" points="369.94 433.44 370 455.07 373.78 457.27 373.72 435.64 369.94 433.44"/><polygon class="cls-6" points="369.94 433.44 373.72 435.64 377.53 433.44 373.75 431.24 369.94 433.44"/><polygon class="cls-6" points="373.72 435.64 373.78 457.27 377.59 455.07 377.53 433.44 373.72 435.64"/></g><path class="cls-15" d="M317.84,478.42s-4.83,5.33-8.89,7.11c-4,3.78-7.68,6.55-7.2,9.47,1,2.93,10.08.65,13.82-1.46a28.5,28.5,0,0,0,6.82-5.85l-.61,1.75a.53.53,0,0,0,.72.67A3.55,3.55,0,0,0,324,489c.81-1.14,1.62-4.88.81-6.67S317.84,478.42,317.84,478.42Z"/><path class="cls-27" d="M350.35,436.56A25.61,25.61,0,0,1,344,452.1c-6.32,7.11-15,19.75-17.91,27.91-3,5.28-5.59,7.14-10.06,3.45-1.79-.81,1.62-8.29,6.9-18.46,5.17-9.94,13.7-31.33,16.07-33.7S349.56,426,350.35,436.56Z"/><path class="cls-27" d="M317,478a19.4,19.4,0,0,1-6,6.94c-4.39,3.3,1.14,6.67,4.22,5.69s8.62-5,9.1-6.82S323.78,473.47,317,478Z"/><path class="cls-11" d="M397.85,361.11s8.21,2.18,10.39,7.11,1.64,42.1-9.84,57.41-32.81,17.5-37.73,15.31-33.36-16.4-35.54-23.51,8.74-12.58,14.76-15.31,9.84-6.56,13.12-16.41,4.92-26.79,8.75-29.53S374.89,349.08,397.85,361.11Z"/><path class="cls-15" d="M306.14,465.75s-4.83,5.32-8.9,7.11c-4,3.78-7.68,6.54-7.19,9.46,1,2.93,10.08.65,13.82-1.46a28.73,28.73,0,0,0,6.82-5.85l-.62,1.75a.54.54,0,0,0,.72.67,3.58,3.58,0,0,0,1.53-1.12c.81-1.14,1.62-4.88.81-6.66S306.14,465.75,306.14,465.75Z"/><path class="cls-27" d="M338.65,423.89a25.59,25.59,0,0,1-6.32,15.53c-6.32,7.11-15,19.75-17.91,27.91-3,5.28-5.59,7.14-10.07,3.45-1.78-.81,1.63-8.28,6.91-18.45,5.16-9.95,13.69-31.34,16.06-33.71S337.86,413.35,338.65,423.89Z"/><path class="cls-27" d="M305.29,465.3a19.51,19.51,0,0,1-6,6.95c-4.39,3.29,1.13,6.66,4.22,5.69s8.62-5,9.1-6.83S312.07,460.79,305.29,465.3Z"/><path class="cls-15" d="M385.37,401.55s2.93,13.65-3.65,22.43-26.33,14.14-27.31,15.6-3.17,3.9-5.6,3.9-21.46-9-23.9-18.53c.73-6.58,2.93-8.53,5.61-10.73s20-10.24,21-11.7a14.45,14.45,0,0,0,1.46-4.39Z"/><path class="cls-15" d="M387.74,351.81s9.65,4.63,11.5,8.1,1.86,11.81-5.32,19.45c-4.4,6.25-6.95,23.39-9.42,27.55-3.08,4-17.75,4.94-25.62,1.86s-7.82-10.72-6.17-13.32c4.63-7.31,2.77-14,2.62-17.56s-2.93-7.56-1.24-12.5,9.57-8.33,10.81-9.88,4.94-7.25,9.11-7.41S387.74,351.81,387.74,351.81Z"/><path class="cls-13" d="M352.71,395.45c4.63-7.31,2.77-14,2.62-17.56-.11-2.45-1.46-5.12-1.74-8.16,5.33,5,13.18,10.58,21.79,10.85,9.93.31,18.67-5.3,23.72-9.43a24.16,24.16,0,0,1-5.18,8.21c-4.4,6.25-6.95,23.39-9.42,27.55-3.08,4-17.75,4.94-25.62,1.86S351.06,398.05,352.71,395.45Z"/><path class="cls-6" d="M354.43,392.06a20.46,20.46,0,0,0,1.06-8.9c18.63,11.29,33.91,5.38,33.91,5.38v0a19,19,0,0,1-1,4.7s.13.06.13.09c-.21.77-.34,1.53-.53,2.28,0,0,0,.08,0,.11-.08.32-.14.64-.23.95l-.3,1.18s0,.06,0,.09C369.31,401.56,358.22,394.93,354.43,392.06Z"/><g class="cls-3"><path class="cls-33" d="M341.85,337.23a1.35,1.35,0,0,0-1.13.07c.83-.49,1.41-.77,2.34-.24l1.09.64,6.26,3.61,14.44,8.33a6,6,0,0,1,3.14,3.42c.49,1.59.18,3.6.18,5.23l0,9c0,.91,0,1.82,0,2.74a2.25,2.25,0,0,1-1.36,2.23c.81-.47.67-1.58.68-2.39,0-1.17,0-2.34,0-3.51,0-3,0-6.07,0-9.11,0-2.15.21-4.22-1.43-5.92a16.77,16.77,0,0,0-3.73-2.35l-12.44-7.18-5.42-3.13A15.06,15.06,0,0,0,341.85,337.23Z"/><path class="cls-9" d="M342.36,337.46c-1.27-.74-2.31-.15-2.31,1.31L340,354.93a5.1,5.1,0,0,0,2.3,4l22.83,13.18c1.27.74,2.31.15,2.31-1.32l.05-16.16a5.07,5.07,0,0,0-2.3-4Z"/></g><path class="cls-15" d="M386.15,379.64s2.8-16.27,4.6-18.14c2.2-2.2,5.82-3.92,9.45-1.24a8.13,8.13,0,0,1,3.1,9.24c-.94,2.48-10.15,23.18-12.91,25.52s-6.54,1.48-7.27-3S386.15,379.64,386.15,379.64Z"/><path class="cls-27" d="M392.07,393S389,397.84,384,396.3s-12-24.95-13.73-26.5c0,0-.77-5.6,4.45-5.8,0,0,12,19.73,13.73,21.85S392.65,390.3,392.07,393Z"/><path class="cls-27" d="M374.89,364.82s-.81-4.88-2.92-6.34-7-2.77-8.29-1.14-.49,8.13.81,8.78a43.27,43.27,0,0,0,4.39,1.62s1.14,2.44,2.6,2.44S374.89,364.82,374.89,364.82Z"/><path class="cls-34" d="M345.31,349.49a2.26,2.26,0,0,1,1,1.78c0,.66-.46.92-1,.59a2.26,2.26,0,0,1-1-1.78C344.28,349.42,344.74,349.16,345.31,349.49Z"/><path class="cls-35" d="M377,349a1.3,1.3,0,0,1,0,.45c-.2,1-.82,3.54-1,4.61s.94,2.87,3.73,3,7.56-.85,9.29-4.09a77.35,77.35,0,0,1,.95-9.76Z"/><path class="cls-27" d="M371,328.72c2-8.43,9-12.93,16.53-10.77,0,0,8.22,1.24,11.54,8.68s-2.39,13.28-6,17c-1.53,1.51-2.69,2.67-3.43,3.41-.26.28-.52.57-.8.82l-.08.08h0a17.31,17.31,0,0,1-7.27,3.94c-3.37.82-7.28.06-9.29-2.31S369,337.15,371,328.72Z"/><path class="cls-11" d="M372.62,320.77s-3.74,1.14-1,6.83,7.31,3.9,7.48,8.61.81,6.66,4.87,8.94-.81,4.55-.81,12.35,7.64,8.94,10.89,6.66.49-4.55,4.71-8.77,8.94-6.18,5.69-12-3.41-5.52-2.92-13.33-3.09-12.67-10.08-14.79S377.33,313.29,372.62,320.77Z"/><path class="cls-8" d="M625.08,690.75a95.38,95.38,0,0,1-47.8-12.85L265.09,481.73a34.17,34.17,0,0,1,.1-59.21l6.81-3.91a95.33,95.33,0,0,1,95.27.21L669.69,611.73c13.37,7.75,22.67,23.7,22.63,38.8,0,10.47-4.65,18.88-13,23.69l-6.75,3.88A95.47,95.47,0,0,1,625.08,690.75Z"/><path class="cls-7" d="M319.45,405.46v1h0A95,95,0,0,1,367,419.23L669.46,612.18c13.2,7.65,22.4,23.42,22.36,38.35,0,10.28-4.56,18.54-12.78,23.26l-6.75,3.88a94.87,94.87,0,0,1-94.73-.18L265.32,481.29a33.67,33.67,0,0,1,.12-58.34l6.81-3.9a94.87,94.87,0,0,1,47.2-12.59v-1m0,0a95.75,95.75,0,0,0-47.7,12.72l-6.81,3.9c-23.15,13.3-23.22,46.68-.12,60.07L577,678.34a95.84,95.84,0,0,0,95.75.19l6.76-3.87c23.16-13.3,13.52-50-9.58-63.35L367.52,418.39a95.73,95.73,0,0,0-48.07-12.93Z"/><path class="cls-9" d="M268.31,435.87h1.43L302.49,417a7.58,7.58,0,0,1,6.8.28l22,12.73a3.4,3.4,0,0,1,.57.47H333v1.86h-.08a2,2,0,0,1-1.09,1.6l-33,19.06a7.61,7.61,0,0,1-6.8-.28L270,440a2.68,2.68,0,0,1-1.6-2.27h-.06Z"/><path class="cls-36" d="M298.82,451.22l33-19.06c1.74-1,1.52-2.77-.49-3.92l-22-12.73a7.59,7.59,0,0,0-6.8-.29l-33,19.06c-1.74,1-1.52,2.77.49,3.93l22,12.73A7.55,7.55,0,0,0,298.82,451.22Z"/><polygon class="cls-9" points="305.22 415.85 328.49 429.27 293.81 449.19 270.48 435.81 305.22 415.85"/><polygon class="cls-36" points="307.21 415.63 308.99 416.66 274.31 436.57 272.47 435.58 307.21 415.63"/><polygon class="cls-36" points="280.74 434.25 282.52 435.29 277.28 438.28 275.43 437.29 280.74 434.25"/><polygon class="cls-36" points="286.5 430.92 288.28 431.95 284.6 434.07 282.75 433.08 286.5 430.92"/><polygon class="cls-36" points="291.1 428.31 292.88 429.34 289.19 431.47 287.35 430.47 291.1 428.31"/><polygon class="cls-36" points="295.67 425.69 297.45 426.72 293.76 428.85 291.92 427.85 295.67 425.69"/><polygon class="cls-36" points="284.66 439.22 286.44 440.25 283.85 441.75 282 440.75 284.66 439.22"/><polygon class="cls-36" points="288.44 437.01 290.22 438.05 287.63 439.54 285.79 438.55 288.44 437.01"/><polygon class="cls-36" points="293.1 434.38 294.88 435.41 291.2 437.54 289.35 436.55 293.1 434.38"/><polygon class="cls-36" points="287.71 440.98 289.49 442.01 286.9 443.51 285.05 442.51 287.71 440.98"/><polygon class="cls-36" points="291.49 438.78 293.27 439.81 290.68 441.31 288.83 440.31 291.49 438.78"/><polygon class="cls-36" points="290.95 442.68 292.73 443.72 290.14 445.21 288.29 444.22 290.95 442.68"/><polygon class="cls-36" points="294.73 440.48 296.51 441.51 293.92 443.01 292.07 442.01 294.73 440.48"/><polygon class="cls-36" points="296.15 436.14 297.93 437.18 294.25 439.31 292.4 438.31 296.15 436.14"/><polygon class="cls-36" points="297.53 431.77 299.31 432.8 295.63 434.93 293.79 433.94 297.53 431.77"/><polygon class="cls-36" points="302.1 429.15 303.88 430.19 300.2 432.31 298.35 431.32 302.1 429.15"/><polygon class="cls-36" points="284.84 435.45 286.62 436.48 280.49 439.99 278.64 439 284.84 435.45"/><polygon class="cls-36" points="289.71 432.63 291.49 433.66 287.81 435.79 285.96 434.79 289.71 432.63"/><polygon class="cls-36" points="294.3 430.01 296.08 431.05 292.4 433.18 290.55 432.18 294.3 430.01"/><polygon class="cls-36" points="298.87 427.4 300.65 428.43 296.97 430.56 295.12 429.56 298.87 427.4"/><path class="cls-9" d="M293.09,447.69l.11-28.05a2.7,2.7,0,0,1,1.37-2.35l33.08-18.94a2.74,2.74,0,0,1,2.87.1h0l1.21.71h-.54a2.6,2.6,0,0,1,.54,1.56l-.11,28.06a2.7,2.7,0,0,1-1.37,2.35l-33.08,18.94a2.51,2.51,0,0,1-.69.18l-.62.64-1.77-1.18h0A2.63,2.63,0,0,1,293.09,447.69Z"/><path class="cls-11" d="M294.57,420.45l-.11,28.05a2.73,2.73,0,0,0,4.08,2.38l33.08-18.94a2.71,2.71,0,0,0,1.37-2.36l.11-28.05a2.72,2.72,0,0,0-4.08-2.37l-33.08,18.93A2.71,2.71,0,0,0,294.57,420.45Z"/><polygon class="cls-8" points="322.47 439.29 330.29 434.78 330.29 431.37 322.47 435.88 322.47 439.29"/><polygon class="cls-8" points="301.17 451.61 308.99 447.09 308.99 443.68 301.17 448.19 301.17 451.61"/><path class="cls-8" d="M312,425.89c0,1.64,1.46,2.12,3.25,1.09s3.25-3.21,3.25-4.84-1.45-2.12-3.25-1.09S312,424.25,312,425.89Z"/><path class="cls-6" d="M241.64,594.45s-1.18,4,2.05,6.17a28,28,0,0,0,7.43,3.71c2.62,1,5,4.44,3.83,6.86S248.09,614,244.46,613s-4.23-4.23-7.66-5.44a12.67,12.67,0,0,1-5.65-3.63c-1-1,1.74-10.2,1.74-10.2l10,1.12"/><path class="cls-11" d="M244.8,494.29s3,20.11,4.85,27.18,8.19,33.15,7.07,38.74-8.56,19.37-10.43,26.07-3.35,12.29-4.84,13-6.33,0-9.31-4.47-.37-1.86-.37-1.86,1.12-11.18,2.23-14.9,6-16,5.59-20.11-8.19-25-13.78-34.64a122.06,122.06,0,0,1-8.94-19.74Z"/><path class="cls-6" d="M224.88,604.88a6.32,6.32,0,0,0,3,5.24c3.23,2.22,3.83,3.63,6.45,4.64s5.05,4.44,3.84,6.86-6.86,2.82-10.49,1.81S223.47,619.2,220,618a12.67,12.67,0,0,1-5.65-3.63c-1-1-.6-5-.6-5l12.3-4"/><path class="cls-11" d="M238.47,499.87s-1.12,16.39-3.35,20.86-2.61,7.82-3.72,14.15-4.85,49.17-4.47,57,.37,16.76,0,17.88-7.45,4.1-13.41,0c0,0-1.12-9.31-1.87-20.11s-.37-25-1.49-38.74-6.7-38.36-6.7-47.68C203.46,503.22,221.34,508.81,238.47,499.87Z"/><path class="cls-21" d="M238.47,499.87s-.21,3.16-.64,7.07A79.34,79.34,0,0,1,223,513.09c-11.73,3.36-12.92,7.83-12.92,18.44s4.43,21.23,3.87,31.85c-.41,7.94-.84,33.08.84,47.11a12.28,12.28,0,0,1-1.24-.74s-1.12-9.31-1.87-20.11-.37-25-1.49-38.74-6.7-38.36-6.7-47.68C203.46,503.22,221.34,508.81,238.47,499.87Z"/><path class="cls-9" d="M253.71,442.74S238.27,430,235.14,429.67c-3.77-.3-8.47,1-9.69,6.32a9.85,9.85,0,0,0,4.44,11c2.84,1.55,31.5,16.37,35.89,16.35s7.2-3.81,4.35-8.5S253.71,442.74,253.71,442.74Z"/><path class="cls-37" d="M225.54,427.12a1.66,1.66,0,0,0,0,.51c.23,1.15,1,4.07,1.12,5.3s-1.08,3.29-4.28,3.38-8.67-1-10.66-4.69a89.59,89.59,0,0,0-1.09-11.2Z"/><path class="cls-6" d="M212.46,427.88s-15.2,12-16.57,15.85-1.19,14.26,2.39,21,3.39,35.74,4.81,40.68,15,5.85,23.24,3.83,21.38-8.94,18.74-18.32c-3.89-13.85-2.69-31.15-2.38-35.56s-.8-15.38-3.2-22.66c-.51-1.54-5.92-3.68-5.92-3.68S228,426.46,212.46,427.88Z"/><path class="cls-8" d="M211.94,429.92c13.22-1.21,19.3,1.06,20.81,1.76a38.77,38.77,0,0,1-.2,9.38c-1,6.25-3.52,23.4-3.52,23.4s-8.15-14.09-13.51-19.89c-3.78-4.09-7.5-7.93-9.38-9.86C209.31,432,211.94,429.92,211.94,429.92Z"/><path class="cls-38" d="M225.54,427.12a1.66,1.66,0,0,0,0,.51c.23,1.15,1,4.07,1.12,5.3s-1.08,3.29-4.28,3.38-8.67-1-10.66-4.69a89.59,89.59,0,0,0-1.09-11.2Z"/><path class="cls-39" d="M235.77,406.07c-.85-9.91-8-16.2-16.92-15,0,0-9.54,0-14.57,7.88s.45,15.47,4,20.27c1.48,2,2.6,3.49,3.3,4.46.26.36.51.73.78,1.06l.07.11h0a19.94,19.94,0,0,0,7.59,5.71c3.68,1.51,8.24,1.31,10.93-1S236.62,416,235.77,406.07Z"/><path class="cls-9" d="M230.88,444.55,225,439.33l-4.71,8.25-4.75-3c5.36,5.81,13.5,19.88,13.5,19.88s2.08-14.31,3.23-21.55Z"/><path class="cls-15" d="M230.47,454.65l-2.62-9.26.4-3.17L225,439.33l-2.29,4,2.62,2.4.72,13.75c1.79,2.89,3,5,3,5S229.69,459.91,230.47,454.65Z"/><path class="cls-11" d="M203.35,397.8a14.4,14.4,0,0,0-1.16,14.1c3.59,7.83,8.1,11.75,9.35,11.75s1.93-.23,1.76-1.21-1.26-4.31-1.26-4.31-5.18-1.41-4.67-4.82,2.47-3.75,4.5-2.5,2.11,2.85,3.16,4.28.9,4.58,1.88,4.41,1.74-1,2-2.56a6.64,6.64,0,0,0-1.07-5.56c-1.58-2.14,1.05-4.91-.44-7.67a18.6,18.6,0,0,0-2.59-3.88s1,2.05,7.35,1.74,9.14.41,11.85-.77,2.61-4.68,1.24-6.15-5-2.66-9.1-4.86-6.74-1.64-12.19-1.19S202.67,393.89,203.35,397.8Z"/><path class="cls-11" d="M218.21,412.17s0,10.17,2.79,11.53,2.69-4.12,7-5.17,7.28-.79,7.16,1.26-1.2,9.24-5,10.93-9.72.8-12.48-.93-2.43-13.92-3.63-16S218.21,412.17,218.21,412.17Z"/><path class="cls-39" d="M265.78,463.3s4.26,2,8.45-2.16,17-27.1,17-27.1a7.35,7.35,0,0,0-6.71-6.15S270,446.61,267,450,260.41,459.59,265.78,463.3Z"/><path class="cls-9" d="M202.42,471s8-18.4,7.35-21.5c-.77-3.69-3.31-7.84-8.78-7.53a9.85,9.85,0,0,0-9.27,7.34c-.7,3.15-5.9,27.74-4.65,31.95s5.67,5.84,9.37,1.79S202.42,471,202.42,471Z"/><path class="cls-39" d="M186.48,478.94s1.23-4.55,7.14-5,34.81,4.55,34.81,4.55a7.34,7.34,0,0,1,.27,9.09s-26.81-1-31.35-.84S185.78,485.43,186.48,478.94Z"/><path class="cls-39" d="M234.75,475.47c1.45-.62,5.6-2.47,6.43-2.67.94.1,1.25,2.39-.31,3.22s-3.73,2.19-3.94,3.12,1.87,3.43,2.8,3.95,8,1.87,8.28,3-1.64,1.63-2.88,1.32a17.15,17.15,0,0,0-2.73-.39,2.6,2.6,0,0,1-1.4,1.25c-1.09.47-1.55.39-1.94.78a4,4,0,0,1-2.57.93c-1.48.16-4.52-1.24-6.54-1.79s-4-1.13-4-1.13l1.81-7.44a1.7,1.7,0,0,1,.88-1.11C230.09,477.77,233.62,476,234.75,475.47Z"/><path class="cls-39" d="M284.56,427.89s1.26-4.19,2.8-5.72a9.75,9.75,0,0,0,2.79-4.47c.56-1.82-.7-6.15.56-6.15s3.07,2.38,2.93,4.19,0,3.63.42,4.05,5.45-2.79,6.57-3.91,4.6-3.76,5.44-2.79.42,1.82-1.12,3.08-5.44,3.76-6.14,4.74,0,.84,1.82-.14,1.67.84,1.25,2.24,1.26,1.53.14,3.07-.14,1-1.39,2.51-1.68,2.38-4.05,2.94a14.83,14.83,0,0,0-6.29,3.35c-1.26,1.25-5.87-.7-5.87-.7Z"/><path class="cls-11" d="M298,457.13l-20.65,11.75s0,.92,0,1.26a1.06,1.06,0,0,0,.53,1L306.58,488a1.08,1.08,0,0,0,1.1,0l20.26-12.34a1.06,1.06,0,0,0,.51-.86c0-.38,0-1.42,0-1.42l-29.37-16.22A1.07,1.07,0,0,0,298,457.13Z"/><path class="cls-9" d="M298,455.79l-20.13,12.14a1.07,1.07,0,0,0,0,1.85l28.7,16.85a1.06,1.06,0,0,0,1.1,0l20.26-12.34a1.07,1.07,0,0,0,0-1.85l-28.83-16.65A1.09,1.09,0,0,0,298,455.79Z"/><path class="cls-8" d="M299,458.94l-16,9.66a.86.86,0,0,0,0,1.47l22.83,13.41a.87.87,0,0,0,.88,0l16.12-9.82a.85.85,0,0,0,0-1.47l-22.94-13.25A.87.87,0,0,0,299,458.94Z"/><polygon class="cls-15" points="300.56 461.66 296.67 473.04 287.83 469.15 300.56 461.66"/><polygon class="cls-15" points="300.56 461.66 312.21 471.52 287.83 469.15 300.56 461.66"/><path class="cls-11" d="M305.48,473.51c-2.09,0-3.8,1.14-3.8,2.55s1.71,2.55,3.8,2.55,3.79-1.15,3.79-2.55S307.57,473.51,305.48,473.51Z"/></g><g class="cls-40"><polygon class="cls-7" points="670.95 643.06 677.16 639.64 677.16 739.79 670.95 743.21 670.95 643.06"/><polygon class="cls-7" points="670.95 643.06 664.8 639.64 664.8 739.74 670.95 743.21 670.95 643.06"/><polygon class="cls-7" points="587.96 690.56 594.28 687.14 594.28 787.29 587.96 790.71 587.96 690.56"/><polygon class="cls-7" points="587.96 690.56 581.92 687.14 581.92 787.24 587.96 790.71 587.96 690.56"/><path class="cls-7" d="M265.29,491.5c-23.1-13.39-23-46.77.13-60.06l6.8-3.91a95.83,95.83,0,0,1,95.77.21l312.16,196.2c23.09,13.4,23,46.77-.13,60.07l-6.76,3.88a95.84,95.84,0,0,1-95.76-.2Z"/><path class="cls-8" d="M628.17,693.66a96.41,96.41,0,0,1-48.31-13L267.64,484.48a35.17,35.17,0,0,1,.15-60.93l6.8-3.9a96.29,96.29,0,0,1,96.27.21L673.32,612.79c13.62,7.9,23.13,24.21,23.09,39.64,0,10.84-4.83,19.56-13.53,24.56l-6.76,3.88A96.5,96.5,0,0,1,628.17,693.66Z"/><path class="cls-7" d="M322.54,407.36a95.73,95.73,0,0,1,48.07,12.93L673.05,613.21c23.09,13.39,32.74,50,9.58,63.35l-6.76,3.88a95.8,95.8,0,0,1-95.75-.2L267.91,484.05c-23.1-13.39-23-46.77.12-60.06l6.81-3.91a95.75,95.75,0,0,1,47.7-12.72m0-1h0a97,97,0,0,0-48.2,12.85l-6.8,3.91a35.67,35.67,0,0,0-.13,61.8L579.58,681.08a96.78,96.78,0,0,0,96.79.22l6.76-3.88c8.86-5.09,13.76-14,13.78-25,0-15.6-9.57-32.09-23.36-40.08l-302.4-192.9a97,97,0,0,0-48.61-13.09Z"/></g><path class="cls-39" d="M416,584.1s28.4-14.21,34-16.56l3.48,4.79S438.6,587,418,595.66Z"/><path class="cls-41" d="M412.48,573.27c1.33,5.31,3.67,6.65,6.83,5.36,8.31-3.4,18.33-8.18,26-9.81a2.44,2.44,0,0,1,1.75.29,9.67,9.67,0,0,1,4.44,5,3,3,0,0,1-.73,3c-4,4-18.71,17.92-35.25,20.76Z"/><path class="cls-6" d="M431.86,713.5c2.19-1.26,4-.28,4,2.2a8.69,8.69,0,0,1-4,6.77c-2.2,1.26-4,.28-4-2.19A8.67,8.67,0,0,1,431.86,713.5Z"/><path class="cls-6" d="M432.54,724.63c-2.3-.25-3.51-1.24-4-2.23l5.61-9.38c1.26.3,3.52,1.37,4.13,2.77Z"/><path class="cls-6" d="M434.68,715.14c2.19-1.26,4-.28,4,2.19a8.66,8.66,0,0,1-4,6.77c-2.19,1.27-4,.29-4-2.19A8.68,8.68,0,0,1,434.68,715.14Z"/><ellipse class="cls-8" cx="434.68" cy="719.62" rx="4.14" ry="2.39" transform="translate(-406.04 719.54) rotate(-58.86)"/><ellipse class="cls-6" cx="389.65" cy="717.35" rx="3.21" ry="5.55" transform="translate(-314.81 304.85) rotate(-31.14)"/><path class="cls-6" d="M389,724c2.3-.24,3.51-1.24,4-2.23l-5.62-9.38c-1.26.31-3.52,1.38-4.13,2.77Z"/><path class="cls-6" d="M386.83,714.51c-2.19-1.27-4-.29-4,2.19a8.69,8.69,0,0,0,4,6.77c2.2,1.26,4,.28,4-2.19A8.64,8.64,0,0,0,386.83,714.51Z"/><path class="cls-8" d="M386.83,715.88c-1.52-.88-2.75-.2-2.75,1.52a6,6,0,0,0,2.75,4.69c1.52.88,2.76.2,2.76-1.52A6,6,0,0,0,386.83,715.88Z"/><path class="cls-6" d="M439.42,740.42c-2.19-1.27-4-.28-4,2.19a8.68,8.68,0,0,0,4,6.77c2.19,1.27,4,.28,4-2.19A8.66,8.66,0,0,0,439.42,740.42Z"/><path class="cls-6" d="M438.73,751.54c2.31-.24,3.51-1.24,4-2.23l-5.62-9.38c-1.25.31-3.51,1.38-4.13,2.77Z"/><path class="cls-6" d="M436.6,742.05c-2.2-1.26-4-.28-4,2.2a8.67,8.67,0,0,0,4,6.77c2.19,1.26,4,.28,4-2.2A8.69,8.69,0,0,0,436.6,742.05Z"/><path class="cls-8" d="M436.6,743.45c-1.51-.87-2.73-.19-2.73,1.51a6,6,0,0,0,2.73,4.66c1.51.87,2.73.19,2.73-1.51A6,6,0,0,0,436.6,743.45Z"/><path class="cls-6" d="M385.31,737.2c2.19-1.26,4-.28,4,2.19a8.66,8.66,0,0,1-4,6.77c-2.19,1.27-4,.29-4-2.19A8.69,8.69,0,0,1,385.31,737.2Z"/><path class="cls-6" d="M386,748.32c-2.3-.24-3.5-1.24-4-2.22l5.62-9.38c1.25.3,3.51,1.37,4.13,2.76Z"/><path class="cls-6" d="M388.13,738.84c2.19-1.27,4-.29,4,2.19a8.68,8.68,0,0,1-4,6.77c-2.19,1.26-4,.28-4-2.19A8.66,8.66,0,0,1,388.13,738.84Z"/><path class="cls-8" d="M388.13,740.06c1.59-.91,2.88-.2,2.88,1.6a6.3,6.3,0,0,1-2.88,4.91c-1.59.92-2.88.21-2.88-1.59A6.3,6.3,0,0,1,388.13,740.06Z"/><path class="cls-39" d="M404.76,572.43c3.75,3.46,7.94,3.67,12.38,2a4.41,4.41,0,0,0,2.72-3.26l4.08-20.86-17.5.44-3.25,16.6A5.53,5.53,0,0,0,404.76,572.43Z"/><path class="cls-39" d="M433.52,551.29c-2,10.32-5.33,17.36-11.52,16.42-6-.92-.75-12.61-4.36-17.1-.8-1-7.62-1.23-8.47-2.23-3.31-3.84,3.06-21.23,11.74-19.53,5.42,1.06,10.88,3,12.89,8.12C434.57,539,433.8,549.9,433.52,551.29Z"/><path class="cls-39" d="M424.41,552.49c-.78,2.92-2,5.2-3.88,4.7s-3.12-5-2.35-7.91,1.63-3.84,3.53-3.33S425.18,549.56,424.41,552.49Z"/><path class="cls-39" d="M425.29,551.37c-.77,2.92-2,5.2-3.88,4.7s-3.73-4.72-3-7.65,2.25-4.09,4.14-3.59S426.06,548.45,425.29,551.37Z"/><path class="cls-15" d="M437.65,711.48c.14-.62-.4-5,1.82-6.86,1.23-1,3.85-3.15,5.71-3.27,3.94-.27,12.69-5.7,15.78-2.3,1.69,1.85,1,5,.69,5.66-1.48,2.83-12.37,9.14-15.19,9.91C442.14,715.81,437.05,714.26,437.65,711.48Z"/><path class="cls-15" d="M464.62,730.9c.14-.62-.4-5,1.81-6.86,1.23-1,3.86-3.15,5.71-3.28,3.95-.27,12.69-5.69,15.79-2.29,1.69,1.85,1,5,.68,5.66-1.47,2.83-12.37,9.13-15.19,9.91C469.1,735.23,464,733.68,464.62,730.9Z"/><path class="cls-39" d="M472,729a6.31,6.31,0,0,0,3.07-4.76c1.41-10.47,7.8-59.31,6.08-69-1.93-10.92-9.95-14.13-15.73-13.81s-4.5,27-4.5,27l5.07,4a53.62,53.62,0,0,0-3.21,14.68c-.61,8.24,4.69,18.07,3.63,39.51C466.28,729,469,730.67,472,729Z"/><path class="cls-39" d="M454.1,656c-.73,20-7.81,48.81-7.81,48.81-2,6.56-6.36,4.41-6.63,1.7-1.59-15.54-1.89-16.42-2-28.13a118,118,0,0,1,2.16-22.26Z"/><path class="cls-6" d="M463.8,640.75l-8,2.89c-8,2.89-53.61,21.19-53.61,21.19L382,654.19c-4.66,36.56,12.37,37.11,21.19,40.28,4.2,1.52,34-7.49,41.39-10.38s18.75-10,18.75-10C471.54,664.84,471.17,651.12,463.8,640.75Z"/><path class="cls-9" d="M405.59,564.25c22.62,6.09,28.83,19.31,28.83,19.31,2.59,34.69,1.74,51.8,1.26,71.3-.05,2.4-4.93,4.5-7.1,5.54-4.17,2-8.41,11.3-17.06,10.26-14.19-1.7-24-8.85-26.85-11.47-1.61-1.49-5.1-5.29-5.26-10.74-.33-11.87-1.13-37.42,2.34-65.25C381.75,578.89,385.71,558.9,405.59,564.25Z"/><g class="cls-42"><path class="cls-6" d="M424.56,579.77c3.45-1,9.45,1.8,11.42,4.81,1.47,1.77,2.92,3.55.1,2.84v39.31c-6.61-8.31-12.54-23.1-17.92-33.15C415.32,588.28,418.8,581.51,424.56,579.77Z"/></g><path class="cls-39" d="M458.24,622.26s29.36-13.15,33.83-17.43l3.28,5s-13.28,17.51-35.16,24Z"/><path class="cls-9" d="M454.69,611.43c1.33,5.3,3.67,6.65,6.83,5.35,8.64-3.53,22.29-6.9,26.9-10a10.09,10.09,0,0,1,5.31,5.47,3,3,0,0,1-.74,3c-4,4-18.7,17.93-35.24,20.77Z"/><path class="cls-9" d="M457.32,617.94c-2.94-9.67-11.7-21.74-21.34-33.36-2-3-8-5.85-11.42-4.81-5.76,1.74-9.24,8.51-6.4,13.81,7.64,14.26,20.73,35.29,43.06,43.66C461.22,637.24,458.63,620.38,457.32,617.94Z"/><path class="cls-39" d="M490.65,606.29s-1-5.08-.33-6.57c.19-.47.56-1.42,2.59-.21.47.28.51-1,4.95-3.14.59-.28,2.64.06,2.78,1.37s2.46,1.67,2.62,2.85.89,1.15,1.59,1.93c.48.52-.24,1.5,0,2a2.67,2.67,0,0,1-.09,1.86c-.79,1.31-6.14,4-9.81,3.84S490.65,606.29,490.65,606.29Z"/><path class="cls-39" d="M449.58,570.34s.43-5.15,1.44-6.42c.32-.4.92-1.21,2.55.5.38.4.77-.84,5.62-1.7.65-.11,2.53.78,2.3,2.07s1.93,2.27,1.77,3.45.54,1.35,1,2.29c.32.62-.64,1.37-.54,2a2.76,2.76,0,0,1-.59,1.76c-1.11,1-7,2.18-10.48,1.07S449.58,570.34,449.58,570.34Z"/><path class="cls-6" d="M381.7,736.2l15.16-11.41a3.32,3.32,0,0,0-.23-5.48l-12.87-8.1s.27-1.63,2.92-1.83c2.45-.19,18.84,6.3,21.28,7.27a13.92,13.92,0,0,1,3.84-.53,15.5,15.5,0,0,1,1.69.1l-.05-.07s17.31-6.92,20.24-6.19a4.29,4.29,0,0,1,3.36,3.15l-11.47,5.76a3.33,3.33,0,0,0-.51,5.64l16.69,12.56a2.81,2.81,0,0,1-.89,4.12h0a2.81,2.81,0,0,1-3.3-.4L418.47,732a18.77,18.77,0,0,0-15.88.07l-16.7,7.9a2.81,2.81,0,0,1-4.19-3.72Z"/><ellipse class="cls-6" cx="411.8" cy="719.56" rx="2.94" ry="1.6"/><rect class="cls-6" x="408.86" y="698.01" width="5.88" height="21.53" transform="translate(823.59 1417.55) rotate(180)"/><path class="cls-15" d="M417.81,691l40.33-14.4s-12.42,15.62-24.9,20.47-22,4.51-29.47,2.77a51.29,51.29,0,0,1-18.89-9.18Z"/><path class="cls-15" d="M368.79,593.57c5.39-2.68,19,2.69,33.56,13.85,10.16,7.8,10.62,17.25,9.7,29.1s-.51,31.48-.51,41.19c0,12.57,10.31,11.87,10.31,11.87-8.78,9.08-21.92,9.23-28.48,6.52C381.5,691.21,369,683,364.81,667c-1.74-6.69-2.88-30-4.28-45.47C359.19,606.85,361.66,597.11,368.79,593.57Z"/><path class="cls-13" d="M441.26,687.82l6.38-2.59a12.91,12.91,0,0,0,8.05-12V639h-4.13v34.27a8.79,8.79,0,0,1-5.47,8.14l-2.56,1a4.12,4.12,0,0,0-2.27,5.37Z"/><path class="cls-13" d="M457.73,647.72c3.85-2,8.77-3.69,6.31-7.39-2.3-3.47-8.16-4.93-13.7-4.16-6.65.92-41.5,24.25-44.11,27.48s-1.85,7.54.92,9.24,5.85,1.54,9.39,0S452.65,650.33,457.73,647.72Z"/><path class="cls-15" d="M457.73,645.18c3.85-2,8.77-3.69,6.31-7.39-2.3-3.47-8.16-4.93-13.7-4.16-6.65.93-41.5,24.25-44.11,27.49s-1.85,7.54.92,9.23,5.85,1.54,9.39,0S452.65,647.8,457.73,645.18Z"/><path class="cls-11" d="M381.72,571c1.8-9.52,10.8-14.92,14.66-18s5.4-13.89,5.4-13.89l.09.08a34.71,34.71,0,0,1,4.46-11.05c2.94-4.61,14.39-6.68,22.12.3,7.76,4.44,14.5-6.94,14.5,1.42,0,13.51-9.79,13.49-12.47,14.23s-3.09,7.37-3.29,9.37c0,0-1.35.61-1.81-1.86s-3.77-5.67-5.28-5c-1.29.6-3.55,2.75-.16,8.28-.42,2.28-.88,4.9-1.35,7.42.86,6.37,5.22,17.5,4.79,23.83-.52,7.46-13.63,16.2-25.2,12.86S379.92,580.53,381.72,571Z"/><polygon class="cls-11" points="651.31 644.76 606.36 671.16 638.02 689.62 683.01 663.15 651.31 644.76"/><polygon class="cls-9" points="608.31 669.11 608.31 670.73 638.57 688.47 681.9 662.88 681.9 661.26 608.31 669.11"/><polygon class="cls-11" points="638.57 686.84 638.57 688.47 681.9 662.88 681.9 661.26 638.57 686.84"/><polygon class="cls-9" points="651.6 643.6 608.31 669.11 638.57 686.84 681.9 661.26 651.6 643.6"/><polygon class="cls-4" points="652.15 645.88 612.18 669.43 628.24 678.84 668.25 655.22 652.15 645.88"/><polygon class="cls-8" points="655.98 663.84 641.1 672.61 650.81 678.3 665.71 669.51 655.98 663.84"/><polygon class="cls-43" points="651.6 607.37 650.35 606.85 650.35 599.65 651.6 600.41 651.6 607.37"/><polygon class="cls-11" points="650.35 599.65 650.35 642.84 607.07 668.29 607.07 625.11 650.35 599.65"/><polygon class="cls-11" points="608.31 625.87 608.31 669.06 607.07 668.29 607.07 625.11 608.31 625.87"/><polygon class="cls-9" points="651.6 600.41 651.6 643.6 608.31 669.06 608.31 625.87 651.6 600.41"/><path class="cls-8" d="M650.45,643.28l-40,23.3a.74.74,0,0,1-1.11-.63V629a.75.75,0,0,1,.37-.64l40-23.4a.74.74,0,0,1,1.11.64v37.07A.72.72,0,0,1,650.45,643.28Z"/><path class="cls-4" d="M618.73,626l-6,3.5a.64.64,0,0,0-.31.54v2.1a.62.62,0,0,0,.94.54l5.92-3.44a.57.57,0,0,0,.28-.48v-2.28A.56.56,0,0,0,618.73,626Z"/><path class="cls-4" d="M620.38,625.31v2.29a.55.55,0,0,0,.83.48l6.43-3.74a.56.56,0,0,0,.28-.48v-2.31a.55.55,0,0,0-.83-.48l-6.43,3.76A.56.56,0,0,0,620.38,625.31Z"/><path class="cls-4" d="M629,620.4v2.35a.5.5,0,0,0,.75.43l8.53-5a.67.67,0,0,0,.34-.58v-2.37a.5.5,0,0,0-.75-.43l-8.54,5A.66.66,0,0,0,629,620.4Z"/><path class="cls-9" d="M647.4,617.75l-34,19.81a.63.63,0,0,1-.94-.55v-2.09a.63.63,0,0,1,.31-.54l34-19.9a.62.62,0,0,1,.94.54v2.19A.63.63,0,0,1,647.4,617.75Z"/><path class="cls-15" d="M647.4,622.66l-34,19.81a.63.63,0,0,1-.94-.54v-2.1a.63.63,0,0,1,.31-.54l34-19.9a.63.63,0,0,1,.94.54v2.19A.63.63,0,0,1,647.4,622.66Z"/><path class="cls-11" d="M620.86,639.46l-8.12,4.75a.62.62,0,0,0-.31.54v2.09a.63.63,0,0,0,.94.55l7.94-4.62a.93.93,0,0,0,.45-.8v-2A.6.6,0,0,0,620.86,639.46Z"/><path class="cls-11" d="M646.77,624.31l-23.68,13.85a.92.92,0,0,0-.47.81v2a.57.57,0,0,0,.85.49l23.93-13.92a.65.65,0,0,0,.31-.55v-2.18A.62.62,0,0,0,646.77,624.31Z"/><path class="cls-15" d="M647.4,632.49l-34,19.81a.63.63,0,0,1-.94-.54v-2.1a.63.63,0,0,1,.31-.54l34-19.9a.63.63,0,0,1,.94.54V632A.63.63,0,0,1,647.4,632.49Z"/><path class="cls-9" d="M639.34,638.93a.29.29,0,0,0-.43-.25L612.74,654a.64.64,0,0,0-.31.54v2.1a.62.62,0,0,0,.94.54l25.5-14.89a1,1,0,0,0,.47-.82Z"/><path class="cls-9" d="M646.77,634.13l-6.17,3.61a1,1,0,0,0-.48.84v2.27a.46.46,0,0,0,.68.4l6.6-3.85a.62.62,0,0,0,.31-.54v-2.18A.63.63,0,0,0,646.77,634.13Z"/><path class="cls-4" d="M647.4,642.32l-34,19.81a.63.63,0,0,1-.94-.54v-2.1a.63.63,0,0,1,.31-.54l34-19.9a.62.62,0,0,1,.94.54v2.19A.63.63,0,0,1,647.4,642.32Z"/><path class="cls-44" d="M630,614.17c.15-.09.27.05.27.32a.82.82,0,0,1-.27.64c-.14.09-.26,0-.26-.32A.85.85,0,0,1,630,614.17Z"/><path class="cls-9" d="M628.45,675.58l1.36.76a.29.29,0,0,1,0,.5l-1.46.86a.53.53,0,0,1-.53,0l-1.34-.76a.29.29,0,0,1,0-.5l1.44-.86A.53.53,0,0,1,628.45,675.58Z"/><path class="cls-9" d="M631.46,673.8l1.37.77a.29.29,0,0,1,0,.5l-1.46.86a.51.51,0,0,1-.53,0l-1.34-.76a.29.29,0,0,1,0-.5l1.44-.86A.53.53,0,0,1,631.46,673.8Z"/><path class="cls-9" d="M634.48,672l1.36.76a.29.29,0,0,1,0,.5l-1.46.86a.53.53,0,0,1-.53,0l-1.34-.77a.28.28,0,0,1,0-.49L634,672A.51.51,0,0,1,634.48,672Z"/><path class="cls-9" d="M655.61,659.59l1.36.77a.29.29,0,0,1,0,.5l-1.46.86a.53.53,0,0,1-.53,0l-1.34-.77a.29.29,0,0,1,0-.5l1.44-.86A.55.55,0,0,1,655.61,659.59Z"/><path class="cls-9" d="M658.63,657.82l1.36.76a.29.29,0,0,1,0,.5l-1.47.86a.53.53,0,0,1-.53,0l-1.33-.77a.28.28,0,0,1,0-.49l1.44-.86A.53.53,0,0,1,658.63,657.82Z"/><path class="cls-9" d="M661.65,656l1.36.77a.29.29,0,0,1,0,.5l-1.46.86a.53.53,0,0,1-.53,0l-1.34-.76a.29.29,0,0,1,0-.5l1.44-.86A.53.53,0,0,1,661.65,656Z"/><path class="cls-9" d="M664.66,654.27,666,655a.29.29,0,0,1,0,.5l-1.46.86a.53.53,0,0,1-.53,0l-1.34-.77a.29.29,0,0,1,0-.5l1.44-.85A.49.49,0,0,1,664.66,654.27Z"/><path class="cls-9" d="M653.1,661.35l1.36.76a.29.29,0,0,1,0,.5l-17,9.8a.53.53,0,0,1-.53,0l-1.34-.77a.29.29,0,0,1,0-.5l17-9.79A.53.53,0,0,1,653.1,661.35Z"/><path class="cls-9" d="M625.43,673.72l1.36.77a.29.29,0,0,1,0,.5l-1.47.86a.51.51,0,0,1-.53,0l-1.33-.76a.29.29,0,0,1,0-.5l1.44-.86A.55.55,0,0,1,625.43,673.72Z"/><path class="cls-9" d="M628.45,672l1.36.76a.29.29,0,0,1,0,.5l-1.46.86a.53.53,0,0,1-.53,0l-1.34-.77a.28.28,0,0,1,0-.49l1.44-.86A.53.53,0,0,1,628.45,672Z"/><path class="cls-9" d="M631.46,670.17l1.37.76a.29.29,0,0,1,0,.5l-1.46.87a.53.53,0,0,1-.53,0l-1.34-.76a.29.29,0,0,1,0-.5l1.44-.86A.51.51,0,0,1,631.46,670.17Z"/><path class="cls-9" d="M634.48,668.39l1.36.77a.29.29,0,0,1,0,.5l-1.46.86a.53.53,0,0,1-.53,0l-1.34-.77a.29.29,0,0,1,0-.5l1.45-.86A.53.53,0,0,1,634.48,668.39Z"/><path class="cls-9" d="M637.5,666.62l1.36.76a.29.29,0,0,1,0,.5l-1.46.86a.53.53,0,0,1-.53,0l-1.34-.76a.29.29,0,0,1,0-.5l1.44-.86A.53.53,0,0,1,637.5,666.62Z"/><path class="cls-9" d="M640.52,664.84l1.36.77a.29.29,0,0,1,0,.5l-1.47.86a.51.51,0,0,1-.52,0l-1.34-.76a.29.29,0,0,1,0-.5l1.44-.86A.55.55,0,0,1,640.52,664.84Z"/><path class="cls-9" d="M643.54,663.07l1.36.76a.29.29,0,0,1,0,.5l-1.47.86a.53.53,0,0,1-.53,0l-1.33-.77a.28.28,0,0,1,0-.49l1.44-.86A.53.53,0,0,1,643.54,663.07Z"/><path class="cls-9" d="M646.56,661.29l1.36.76a.29.29,0,0,1,0,.5l-1.46.87a.53.53,0,0,1-.53,0l-1.34-.76a.29.29,0,0,1,0-.5l1.44-.86A.53.53,0,0,1,646.56,661.29Z"/><path class="cls-9" d="M649.57,659.51l1.36.77a.28.28,0,0,1,0,.5l-1.46.86a.53.53,0,0,1-.53,0l-1.34-.77a.29.29,0,0,1,0-.5l1.44-.86A.53.53,0,0,1,649.57,659.51Z"/><path class="cls-9" d="M652.59,657.74l1.36.76a.29.29,0,0,1,0,.5l-1.46.86a.53.53,0,0,1-.53,0l-1.34-.77a.28.28,0,0,1,0-.49l1.44-.86A.53.53,0,0,1,652.59,657.74Z"/><path class="cls-9" d="M655.61,656l1.36.77a.29.29,0,0,1,0,.5l-1.46.86a.53.53,0,0,1-.53,0l-1.34-.76a.29.29,0,0,1,0-.5l1.44-.86A.53.53,0,0,1,655.61,656Z"/><path class="cls-9" d="M658.63,654.19,660,655a.29.29,0,0,1,0,.5l-1.47.86a.53.53,0,0,1-.53,0l-1.33-.77a.29.29,0,0,1,0-.5l1.44-.85A.51.51,0,0,1,658.63,654.19Z"/><path class="cls-9" d="M661.65,652.41l1.36.76a.29.29,0,0,1,0,.5l-1.46.87a.55.55,0,0,1-.53,0l-1.34-.76a.29.29,0,0,1,0-.5l1.44-.86A.53.53,0,0,1,661.65,652.41Z"/><path class="cls-9" d="M622.41,671.87l1.36.76a.29.29,0,0,1,0,.5l-1.47.86a.51.51,0,0,1-.52,0l-1.34-.77a.28.28,0,0,1,0-.49l1.44-.86A.53.53,0,0,1,622.41,671.87Z"/><path class="cls-9" d="M625.43,670.09l1.36.77a.28.28,0,0,1,0,.49l-1.47.87a.53.53,0,0,1-.53,0l-1.33-.76a.29.29,0,0,1,0-.5l1.44-.86A.53.53,0,0,1,625.43,670.09Z"/><path class="cls-9" d="M628.45,668.32l1.36.76a.29.29,0,0,1,0,.5l-1.46.86a.53.53,0,0,1-.53,0l-1.34-.77a.29.29,0,0,1,0-.5l1.44-.86A.53.53,0,0,1,628.45,668.32Z"/><path class="cls-9" d="M631.46,666.54l1.37.76a.29.29,0,0,1,0,.5l-1.46.86a.53.53,0,0,1-.53,0l-1.34-.76a.29.29,0,0,1,0-.5l1.44-.86A.51.51,0,0,1,631.46,666.54Z"/><path class="cls-9" d="M634.48,664.76l1.36.77a.29.29,0,0,1,0,.5l-1.46.86a.51.51,0,0,1-.53,0l-1.34-.76a.29.29,0,0,1,0-.5l1.45-.86A.53.53,0,0,1,634.48,664.76Z"/><path class="cls-9" d="M637.5,663l1.36.76a.29.29,0,0,1,0,.5l-1.46.86a.53.53,0,0,1-.53,0l-1.34-.77a.28.28,0,0,1,0-.49L637,663A.53.53,0,0,1,637.5,663Z"/><path class="cls-9" d="M640.52,661.21l1.36.76a.29.29,0,0,1,0,.5l-1.47.87a.51.51,0,0,1-.52,0l-1.34-.76a.29.29,0,0,1,0-.5l1.44-.86A.53.53,0,0,1,640.52,661.21Z"/><path class="cls-9" d="M643.54,659.43l1.36.77a.29.29,0,0,1,0,.5l-1.47.86a.53.53,0,0,1-.53,0l-1.33-.77a.29.29,0,0,1,0-.5l1.44-.86A.55.55,0,0,1,643.54,659.43Z"/><path class="cls-9" d="M646.56,657.66l1.36.76a.29.29,0,0,1,0,.5l-1.46.86a.53.53,0,0,1-.53,0l-1.34-.77a.28.28,0,0,1,0-.49l1.44-.86A.53.53,0,0,1,646.56,657.66Z"/><path class="cls-9" d="M649.57,655.88l1.36.77a.28.28,0,0,1,0,.5l-1.46.86a.53.53,0,0,1-.53,0l-1.34-.76a.29.29,0,0,1,0-.5l1.44-.86A.51.51,0,0,1,649.57,655.88Z"/><path class="cls-9" d="M652.59,654.11l1.36.76a.29.29,0,0,1,0,.5l-1.46.86a.53.53,0,0,1-.53,0l-1.34-.77a.28.28,0,0,1,0-.49l1.44-.86A.51.51,0,0,1,652.59,654.11Z"/><path class="cls-9" d="M655.61,652.33l1.36.76a.29.29,0,0,1,0,.5l-1.46.87a.55.55,0,0,1-.53,0l-1.34-.76a.29.29,0,0,1,0-.5l1.44-.86A.53.53,0,0,1,655.61,652.33Z"/><path class="cls-9" d="M658.63,650.55l1.36.77a.29.29,0,0,1,0,.5l-1.47.86a.53.53,0,0,1-.53,0l-1.33-.77a.29.29,0,0,1,0-.5l1.44-.86A.55.55,0,0,1,658.63,650.55Z"/><path class="cls-9" d="M619.39,670l1.36.77a.28.28,0,0,1,0,.49l-1.46.87a.53.53,0,0,1-.53,0l-1.34-.76a.29.29,0,0,1,0-.5l1.44-.86A.53.53,0,0,1,619.39,670Z"/><path class="cls-9" d="M622.41,668.24l1.36.76a.29.29,0,0,1,0,.5l-1.47.86a.51.51,0,0,1-.52,0l-1.34-.77a.29.29,0,0,1,0-.5l1.44-.85A.51.51,0,0,1,622.41,668.24Z"/><path class="cls-9" d="M625.43,666.46l1.36.76a.29.29,0,0,1,0,.5l-1.47.86a.53.53,0,0,1-.53,0l-1.33-.76a.29.29,0,0,1,0-.5l1.44-.86A.53.53,0,0,1,625.43,666.46Z"/><path class="cls-9" d="M628.45,664.68l1.36.77a.29.29,0,0,1,0,.5l-1.46.86a.51.51,0,0,1-.53,0l-1.34-.76a.29.29,0,0,1,0-.5l1.44-.86A.55.55,0,0,1,628.45,664.68Z"/><path class="cls-9" d="M631.46,662.91l1.37.76a.29.29,0,0,1,0,.5l-1.46.86a.53.53,0,0,1-.53,0l-1.34-.77a.28.28,0,0,1,0-.49l1.44-.86A.51.51,0,0,1,631.46,662.91Z"/><path class="cls-9" d="M634.48,661.13l1.36.76a.29.29,0,0,1,0,.5l-1.46.87a.53.53,0,0,1-.53,0l-1.34-.76a.29.29,0,0,1,0-.5l1.45-.86A.51.51,0,0,1,634.48,661.13Z"/><path class="cls-9" d="M637.5,659.35l1.36.77a.29.29,0,0,1,0,.5l-1.46.86a.53.53,0,0,1-.53,0l-1.34-.77a.29.29,0,0,1,0-.5l1.44-.86A.55.55,0,0,1,637.5,659.35Z"/><path class="cls-9" d="M640.52,657.58l1.36.76a.29.29,0,0,1,0,.5l-1.47.86a.51.51,0,0,1-.52,0l-1.34-.76a.29.29,0,0,1,0-.5l1.44-.86A.53.53,0,0,1,640.52,657.58Z"/><path class="cls-9" d="M643.54,655.8l1.36.77a.29.29,0,0,1,0,.5l-1.47.86a.53.53,0,0,1-.53,0l-1.33-.76a.29.29,0,0,1,0-.5l1.44-.86A.53.53,0,0,1,643.54,655.8Z"/><path class="cls-9" d="M646.56,654l1.36.76a.29.29,0,0,1,0,.5l-1.46.86a.53.53,0,0,1-.53,0l-1.34-.77a.28.28,0,0,1,0-.49L646,654A.53.53,0,0,1,646.56,654Z"/><path class="cls-9" d="M649.57,652.25l1.36.76a.28.28,0,0,1,0,.5l-1.46.87a.53.53,0,0,1-.53,0l-1.34-.76a.29.29,0,0,1,0-.5l1.44-.86A.51.51,0,0,1,649.57,652.25Z"/><path class="cls-9" d="M652.59,650.47l1.36.77a.29.29,0,0,1,0,.5l-1.46.86a.53.53,0,0,1-.53,0l-1.34-.77a.29.29,0,0,1,0-.5l1.44-.86A.55.55,0,0,1,652.59,650.47Z"/><path class="cls-9" d="M655.61,648.7l1.36.76a.29.29,0,0,1,0,.5l-1.46.86a.53.53,0,0,1-.53,0l-1.34-.77a.28.28,0,0,1,0-.49l1.44-.86A.53.53,0,0,1,655.61,648.7Z"/><path class="cls-9" d="M616.37,668.32l1.36.76a.28.28,0,0,1,0,.5l-1.46.86a.53.53,0,0,1-.53,0l-1.34-.77a.29.29,0,0,1,0-.5l1.44-.86A.51.51,0,0,1,616.37,668.32Z"/><path class="cls-9" d="M619.39,666.54l1.36.76a.29.29,0,0,1,0,.5l-1.46.86a.53.53,0,0,1-.53,0l-1.34-.76a.29.29,0,0,1,0-.5l1.44-.86A.53.53,0,0,1,619.39,666.54Z"/><path class="cls-9" d="M622.41,664.76l1.36.77a.29.29,0,0,1,0,.5l-1.47.86a.49.49,0,0,1-.52,0l-1.34-.76a.29.29,0,0,1,0-.5l1.44-.86A.55.55,0,0,1,622.41,664.76Z"/><path class="cls-9" d="M625.43,663l1.36.76a.29.29,0,0,1,0,.5l-1.47.86a.53.53,0,0,1-.53,0l-1.33-.77a.28.28,0,0,1,0-.49l1.44-.86A.53.53,0,0,1,625.43,663Z"/><path class="cls-9" d="M628.45,661.21l1.36.76a.29.29,0,0,1,0,.5l-1.46.87a.53.53,0,0,1-.53,0l-1.34-.76a.29.29,0,0,1,0-.5l1.44-.86A.53.53,0,0,1,628.45,661.21Z"/><path class="cls-9" d="M631.46,659.43l1.37.77a.29.29,0,0,1,0,.5l-1.46.86a.53.53,0,0,1-.53,0l-1.34-.77a.29.29,0,0,1,0-.5l1.44-.86A.53.53,0,0,1,631.46,659.43Z"/><path class="cls-9" d="M634.48,657.66l1.36.76a.29.29,0,0,1,0,.5l-1.46.86a.53.53,0,0,1-.53,0l-1.34-.77a.28.28,0,0,1,0-.49l1.45-.86A.51.51,0,0,1,634.48,657.66Z"/><path class="cls-9" d="M637.5,655.88l1.36.77a.29.29,0,0,1,0,.5l-1.46.86a.53.53,0,0,1-.53,0l-1.34-.76a.29.29,0,0,1,0-.5l1.44-.86A.53.53,0,0,1,637.5,655.88Z"/><path class="cls-9" d="M640.52,654.11l1.36.76a.29.29,0,0,1,0,.5l-1.47.86a.51.51,0,0,1-.52,0l-1.34-.77a.28.28,0,0,1,0-.49l1.44-.86A.51.51,0,0,1,640.52,654.11Z"/><path class="cls-9" d="M643.54,652.33l1.36.76a.29.29,0,0,1,0,.5l-1.47.87a.55.55,0,0,1-.53,0l-1.33-.76a.29.29,0,0,1,0-.5l1.44-.86A.53.53,0,0,1,643.54,652.33Z"/><path class="cls-9" d="M646.56,650.55l1.36.77a.29.29,0,0,1,0,.5l-1.46.86a.53.53,0,0,1-.53,0l-1.34-.77a.29.29,0,0,1,0-.5l1.44-.86A.55.55,0,0,1,646.56,650.55Z"/><path class="cls-9" d="M649.57,648.78l1.36.76a.28.28,0,0,1,0,.5l-1.46.86a.53.53,0,0,1-.53,0l-1.34-.77a.28.28,0,0,1,0-.49l1.44-.86A.51.51,0,0,1,649.57,648.78Z"/><path class="cls-9" d="M652.59,647l1.36.77a.29.29,0,0,1,0,.5l-1.46.86a.53.53,0,0,1-.53,0l-1.34-.76a.29.29,0,0,1,0-.5l1.44-.86A.53.53,0,0,1,652.59,647Z"/><circle class="cls-11" cx="698.65" cy="622.67" r="2.21"/><circle class="cls-11" cx="698.65" cy="616.82" r="4.95"/><circle class="cls-11" cx="698.65" cy="608.58" r="6.27"/><path class="cls-11" d="M688.56,600.05a6.09,6.09,0,1,0,6.09-6.09A6.09,6.09,0,0,0,688.56,600.05Z"/><path class="cls-11" d="M682.36,596.19a4.24,4.24,0,1,0,4.23-4.24A4.23,4.23,0,0,0,682.36,596.19Z"/><path class="cls-11" d="M674.12,601.18a3.4,3.4,0,1,1-3.4-3.4A3.4,3.4,0,0,1,674.12,601.18Z"/><path class="cls-11" d="M673,604.81a3.4,3.4,0,1,1-3.4-3.4A3.4,3.4,0,0,1,673,604.81Z"/><circle class="cls-11" cx="674.24" cy="598.74" r="3.1"/><circle class="cls-11" cx="668.62" cy="608.46" r="3.1"/><path class="cls-11" d="M685,597.78a5.13,5.13,0,1,1-5.13-5.13A5.13,5.13,0,0,1,685,597.78Z"/><circle class="cls-11" cx="689.58" cy="594.86" r="2.69"/><path class="cls-11" d="M679.25,594.38a2.93,2.93,0,1,0,2.93-2.93A2.93,2.93,0,0,0,679.25,594.38Z"/><path class="cls-11" d="M697.87,602.73a2.33,2.33,0,1,0,2.33-2.32A2.33,2.33,0,0,0,697.87,602.73Z"/><path class="cls-39" d="M686.05,654.41s-26-13-31.45-15.3c-.52-4.34-1.55-9.74-3-11l-.32,7.52c-.08,1.25-.36,1.8-1.6,2s-1.52-.87-3.43-1.12c-.54,1.89,4.57,6.13,4.57,6.13a105.19,105.19,0,0,0,33.34,23Z"/><path class="cls-6" d="M682.86,649.1c-8-3.29-17.73-7.91-25.18-9.51a2.51,2.51,0,0,0-1.78.27,9.38,9.38,0,0,0-4.3,4.84,2.85,2.85,0,0,0,.7,2.91,88.59,88.59,0,0,0,19,14.54c7.45,4.11,16.18-3.58,12.85-11.4A3,3,0,0,0,682.86,649.1Z"/><path class="cls-6" d="M670.68,780c-2.13-1.22-3.85-.27-3.85,2.13a8.41,8.41,0,0,0,3.85,6.58c2.13,1.22,3.86.27,3.86-2.13A8.44,8.44,0,0,0,670.68,780Z"/><path class="cls-6" d="M670,790.83c2.23-.23,3.4-1.2,3.85-2.16l-5.46-9.11c-1.21.3-3.41,1.34-4,2.69Z"/><path class="cls-6" d="M667.94,781.62c-2.13-1.23-3.85-.27-3.85,2.13a8.4,8.4,0,0,0,3.85,6.57c2.13,1.23,3.86.28,3.86-2.12A8.43,8.43,0,0,0,667.94,781.62Z"/><path class="cls-8" d="M667.94,782.73c-1.58-.92-2.87-.21-2.87,1.59a6.3,6.3,0,0,0,2.87,4.9c1.59.91,2.88.2,2.88-1.59A6.27,6.27,0,0,0,667.94,782.73Z"/><path class="cls-6" d="M711.65,779.42c2.13-1.23,3.86-.28,3.86,2.13a8.42,8.42,0,0,1-3.86,6.57c-2.13,1.23-3.85.27-3.85-2.13A8.41,8.41,0,0,1,711.65,779.42Z"/><path class="cls-6" d="M712.32,790.21c-2.24-.23-3.41-1.2-3.85-2.16l5.45-9.1c1.22.29,3.41,1.33,4,2.68Z"/><path class="cls-6" d="M714.39,781c2.13-1.23,3.86-.28,3.86,2.12a8.43,8.43,0,0,1-3.86,6.58c-2.13,1.22-3.85.27-3.85-2.13A8.4,8.4,0,0,1,714.39,781Z"/><path class="cls-8" d="M714.39,782.34c1.48-.85,2.68-.19,2.68,1.48a5.83,5.83,0,0,1-2.68,4.55c-1.47.85-2.67.19-2.67-1.47A5.85,5.85,0,0,1,714.39,782.34Z"/><path class="cls-6" d="M663.34,806.16c2.13-1.23,3.86-.27,3.86,2.13a8.41,8.41,0,0,1-3.86,6.57c-2.13,1.23-3.85.28-3.85-2.12A8.41,8.41,0,0,1,663.34,806.16Z"/><path class="cls-6" d="M664,817c-2.24-.24-3.41-1.2-3.85-2.16l5.45-9.11c1.22.3,3.41,1.33,4,2.69Z"/><path class="cls-6" d="M666.08,807.75c2.13-1.23,3.86-.28,3.86,2.13a8.42,8.42,0,0,1-3.86,6.57c-2.13,1.23-3.85.28-3.85-2.13A8.41,8.41,0,0,1,666.08,807.75Z"/><path class="cls-8" d="M666.08,809.11c1.47-.85,2.65-.19,2.65,1.46a5.77,5.77,0,0,1-2.65,4.52c-1.46.85-2.65.19-2.65-1.46A5.8,5.8,0,0,1,666.08,809.11Z"/><path class="cls-6" d="M715.87,803c-2.13-1.23-3.85-.27-3.85,2.13a8.41,8.41,0,0,0,3.85,6.57c2.13,1.23,3.86.28,3.86-2.13A8.42,8.42,0,0,0,715.87,803Z"/><path class="cls-6" d="M715.21,813.84c2.23-.24,3.4-1.21,3.85-2.17l-5.46-9.1c-1.22.29-3.41,1.33-4,2.69Z"/><path class="cls-6" d="M713.13,804.63c-2.13-1.23-3.85-.28-3.85,2.13a8.41,8.41,0,0,0,3.85,6.57c2.13,1.23,3.86.27,3.86-2.13A8.42,8.42,0,0,0,713.13,804.63Z"/><path class="cls-8" d="M713.13,805.82c-1.54-.89-2.8-.2-2.8,1.54a6.13,6.13,0,0,0,2.8,4.78c1.55.89,2.8.2,2.8-1.55A6.1,6.1,0,0,0,713.13,805.82Z"/><path class="cls-39" d="M697,643.08c-3.64,3.36-7.71,3.56-12,1.9a4.29,4.29,0,0,1-2.64-3.16l-4-20.26,17,.43,3.15,16.12A5.35,5.35,0,0,1,697,643.08Z"/><path class="cls-39" d="M669.06,622.55c2,10,5.18,16.86,11.19,16,5.85-.89.73-12.24,4.24-16.6.77-1,7.39-1.2,8.22-2.16,3.21-3.74-3-20.62-11.4-19-5.26,1-10.56,2.89-12.51,7.88C668.05,610.58,668.8,621.21,669.06,622.55Z"/><path class="cls-11" d="M671.61,615.5c2.6.7,3.41,7.24,3.6,9.19,0,0,1.32.59,1.76-1.81s3-6.11,4-2.82,3.5,10.2,5,12.26c1,1.34,4.58,2.61,9.27.66a6.88,6.88,0,0,0,4-8c-1.64-6.62,3.51-13.44-3.81-24.91-2.86-4.47-14-6.48-21.48.3C672.07,601.51,660.25,612.46,671.61,615.5Z"/><path class="cls-39" d="M677.92,623.72c.75,2.84,1.92,5,3.76,4.56s3-4.83,2.28-7.67-1.58-3.73-3.42-3.24S677.17,620.88,677.92,623.72Z"/><path class="cls-39" d="M677.06,622.64c.75,2.83,1.92,5.05,3.76,4.56s3.63-4.59,2.88-7.42-2.18-4-4-3.49S676.31,619.8,677.06,622.64Z"/><path class="cls-6" d="M638.75,797.19c0-.61.36-6.54-1.74-8.28-1.16-1-3.64-1.21-5.39-1.33-3.74-.25-12-5.4-15-2.18-1.6,1.76-1,4.76-.64,5.37,1.39,2.68,11.72,8.66,14.39,9.4C634.5,801.29,638.79,801.13,638.75,797.19Z"/><path class="cls-6" d="M665.05,778.07c-.13-.6.38-6.7-1.77-8.48-1.19-1-3.73-1.24-5.53-1.36-3.83-.26-12.32-5.53-15.32-2.23-1.64,1.8-1,4.88-.67,5.49,1.44,2.75,12,8.88,14.75,9.63C660.71,782.28,665.65,780.77,665.05,778.07Z"/><path class="cls-11" d="M627.82,791.64c-.88-6.47-6.73-58.28-5-68.21,1.87-10.6,9.66-13.71,15.27-13.4s4.37,26.18,4.37,26.18l-4.93,3.9a52.17,52.17,0,0,1,3.13,14.25c.58,8-2.5,17.27-1.47,38.09C635.08,796.84,627.89,792.13,627.82,791.64Z"/><path class="cls-11" d="M649.09,724.18c.71,19.46,3.22,47.46,3.22,47.46,1.47,3.24,10.64,4.38,13.22,1.58-1.6-14.44-.58-15.94-.51-27.31a114.65,114.65,0,0,0-2.09-21.61Z"/><path class="cls-11" d="M636.87,710.34s2.8-.93,10.59,1.87,52,20.57,52,20.57l19.61-10.33c4.52,35.49-12,36-20.57,39.11-4.07,1.47-33-7.27-40.18-10.08S636.87,739,636.87,739C628.86,730,629.71,720.41,636.87,710.34Z"/><path class="cls-6" d="M696.18,635.14c-22,5.92-28,18.74-28,18.74-2.52,33.68-1.85,53.08-1.39,72,.05,2.34,6.36,6.78,8.47,7.79,4.05,1.94,6.75,5.77,15.15,4.76,13.77-1.65,23.32-8.59,26.06-11.13,1.57-1.45,5-5.14,5.11-10.43.32-11.52,1.09-36.32-2.27-63.35C719.33,649.36,715.48,629.94,696.18,635.14Z"/><path class="cls-45" d="M677.77,650.2c-3.35-1-9.18,1.76-11.09,4.68-1.43,1.72-2.83,3.44-.1,2.75v38.16c6.42-8.06,12.18-22.42,17.4-32.17C686.74,658.46,683.36,651.9,677.77,650.2Z"/><path class="cls-39" d="M645.07,691.45s-28.5-12.76-32.84-16.91L609,679.42s12.89,17,34.14,23.25Z"/><path class="cls-6" d="M648.51,680.94c-1.28,5.15-3.55,6.46-6.62,5.2-8.39-3.43-22.38-8.84-25.82-10.22a11.3,11.3,0,0,0-5.45,5.84,2.86,2.86,0,0,0,.71,2.9c3.85,3.9,18.16,17.4,34.22,20.16Z"/><path class="cls-6" d="M646,687.26c2.85-9.38,11.35-21.11,20.71-32.38,1.91-2.92,7.74-5.69,11.09-4.68,5.59,1.7,9,8.26,6.21,13.42-7.41,13.84-20.12,34.25-41.8,42.38C642.18,706,644.69,689.63,646,687.26Z"/><path class="cls-39" d="M613.61,676s.93-4.93.32-6.38c-.19-.45-.54-1.37-2.51-.2-.46.27-.5-1-4.81-3-.58-.27-2.57.06-2.7,1.34s-2.39,1.62-2.55,2.76-.86,1.12-1.54,1.87c-.46.5.24,1.46,0,2a2.62,2.62,0,0,0,.09,1.8c.76,1.27,6,3.86,9.52,3.73S613.61,676,613.61,676Z"/><path class="cls-6" d="M719.37,802.07,704.66,791a3.23,3.23,0,0,1,.22-5.32l12.49-7.86s-.26-1.59-2.83-1.78c-2.38-.19-18.29,6.12-20.66,7.06a13.12,13.12,0,0,0-3.72-.51,14.49,14.49,0,0,0-1.64.09l0-.07s-16.8-6.72-19.65-6a4.19,4.19,0,0,0-3.26,3.06l11.14,5.6a3.23,3.23,0,0,1,.49,5.47l-16.2,12.19a2.73,2.73,0,0,0,.86,4h0a2.74,2.74,0,0,0,3.21-.39L683.68,798a18.2,18.2,0,0,1,15.42.06l16.21,7.67a2.73,2.73,0,0,0,4.06-3.61Z"/><path class="cls-6" d="M693,785.91c0,.85-1.28,1.55-2.85,1.55s-2.85-.7-2.85-1.55,1.27-1.55,2.85-1.55S693,785.05,693,785.91Z"/><rect class="cls-6" x="687.31" y="764.99" width="5.7" height="20.9"/><path class="cls-15" d="M684.32,758.19l-39.15-14s12.06,15.16,24.17,19.87,21.37,4.38,28.61,2.69a49.64,49.64,0,0,0,18.34-8.91Z"/><path class="cls-15" d="M739.93,690.75c-1.37,15-4.16,44.14-5.48,50.72C733,749,719.57,758.4,708,763.14c-6.37,2.63-19.12,2.49-27.64-6.33,0,0,10,.68,10-11.53,0-9.42.4-28.47-.5-40s-.45-20.68,9.42-28.25c14.13-10.84,27.35-16,32.58-13.45C738.83,667,741.23,676.5,739.93,690.75Z"/><path class="cls-13" d="M661.55,755.1l-6.19-2.52A12.53,12.53,0,0,1,647.55,741V707.71h4V741a8.52,8.52,0,0,0,5.32,7.9l2.48,1a4,4,0,0,1,2.2,5.22Z"/><path class="cls-13" d="M645.57,716.17c-3.75-1.93-8.51-3.59-6.13-7.18,2.23-3.36,7.92-4.78,13.3-4,6.45.89,40.28,23.54,42.82,26.68s1.8,7.32-.89,9-5.68,1.5-9.12,0S650.5,718.71,645.57,716.17Z"/><path class="cls-15" d="M645.57,713.71c-3.75-1.93-8.51-3.58-6.13-7.18,2.23-3.36,7.92-4.78,13.3-4,6.45.89,40.28,23.54,42.82,26.68s1.8,7.32-.89,9-5.68,1.5-9.12,0S650.5,716.25,645.57,713.71Z"/><g class="cls-3"><path class="cls-9" d="M524.35,573.45a.09.09,0,0,0,0,0,2.16,2.16,0,0,1-.19.37l0,.07a2.07,2.07,0,0,1-.32.35c-.08.07-.19.14-.29.21a2.07,2.07,0,0,1-.24.17l-37.13,21.58a4.72,4.72,0,0,1-.79.35,1.58,1.58,0,0,1-.31.09,2.6,2.6,0,0,1-.4.1,4,4,0,0,1-.48.09s-.08-.56-.12-.55c-.22,0-.45-.53-.67-.53h-.11c-.22,0-.44.55-.66.53,0,0-.07.27-.1.27-.22,0-.44.08-.65,0,0,0-.07,0-.11,0a5.07,5.07,0,0,1-.56-.13s-.06,0-.09,0a3.78,3.78,0,0,1-.61-.28l-23.93-13.8a2,2,0,0,1-1.18-1.65v4.3a2,2,0,0,0,1.18,1.66l23.92,13.81a5.18,5.18,0,0,0,.58.28h0s-.65,0-.62,0-.35.09-.35.12h0c1.07,0,.84,0,.91,0l.47,0,.28,0c.13,0,.35,0,.49.07l.18,0h.41l.46,0h0s-.32-.09-.18-.09h.23c.06,0,.11.06.17,0a3.38,3.38,0,0,0,.45,0h.17l.34,0,.14,0,.4-.1.21,0,.09,0a4.72,4.72,0,0,0,.79-.35L523.24,579l0,0c.07,0,.12-.1.19-.14a2.21,2.21,0,0,0,.29-.22l0,0a3.07,3.07,0,0,0,.25-.26.16.16,0,0,1,0-.07l0-.06.08-.11a1.46,1.46,0,0,0,.1-.23.06.06,0,0,0,0,0l0,0s-.25-.1-.24-.15-.26-.15-.26-.23v0l.3-4.31C524.14,573.18,524.39,573.32,524.35,573.45Z"/><path class="cls-4" d="M523.24,571.39c1.57.91,1.57,2.38,0,3.28l-37.13,21.58a6.21,6.21,0,0,1-5.66,0l-23.93-13.81c-1.56-.9-1.58-2.37,0-3.28l37.13-21.58a6.23,6.23,0,0,1,5.67,0Z"/></g><polygon class="cls-46" points="491.64 568.83 491.61 573.45 489.04 575.7 486.74 575.7 486.74 570.58 491.64 568.83"/><polygon class="cls-47" points="491.61 572.99 491.59 579.52 487.24 582.05 487.25 575.35 491.61 572.99"/><path class="cls-13" d="M486.29,570.89a8.93,8.93,0,0,0-.87-.3l-.72-.18-.69-.12c-.22,0-.45-.06-.67-.07l-.68,0H482l-.77.05a8.89,8.89,0,0,0-.88.13,10.89,10.89,0,0,0-1.31.32,8,8,0,0,0-1.51.67l-.09,0a5.47,5.47,0,0,0-.87.65,4.6,4.6,0,0,0-.43.46,2.71,2.71,0,0,0-.28.41,3.39,3.39,0,0,0-.18.39,1.9,1.9,0,0,0-.11.39,2.73,2.73,0,0,0,0,.4v.06l0,6.87V581a2.91,2.91,0,0,1,.05-.4,1.66,1.66,0,0,1,.11-.38,2.87,2.87,0,0,1,.18-.4,2.71,2.71,0,0,1,.28-.41,4.6,4.6,0,0,1,.43-.46,5.15,5.15,0,0,1,.88-.65l.08,0a8,8,0,0,1,1.51-.67,10.89,10.89,0,0,1,1.31-.32c.29-.05.59-.09.88-.12s.51-.05.77-.06h.71l.68,0,.67.07.69.12.72.18c.29.08.57.18.84.28a8.57,8.57,0,0,1,1,.49l0-6.87A6.43,6.43,0,0,0,486.29,570.89Z"/><g class="cls-3"><path class="cls-2" d="M489.29,578v3c0-1-.68,1.77-2,1l0-6.7C488.62,576.14,489.3,577,489.29,578Z"/><g class="cls-48"><path class="cls-6" d="M489.29,578v3c0-1-.68,1.77-2,1l0-6.87a3.43,3.43,0,0,1,2,2.85"/></g></g><path class="cls-1" d="M495.48,578.05l0,3c0,1.93-1.28,3.85-3.81,5.32l0-3C494.2,581.9,495.47,580,495.48,578.05Z"/><path class="cls-6" d="M495.47,578.17a3.82,3.82,0,0,1-.08.75,5,5,0,0,1-.21.73,6.3,6.3,0,0,1-.35.75,7.17,7.17,0,0,1-.53.78,6.53,6.53,0,0,1-.81.87,9.54,9.54,0,0,1-1.66,1.23l-.17.1v3l.16-.09a9.54,9.54,0,0,0,1.66-1.23,6.53,6.53,0,0,0,.81-.87,7.17,7.17,0,0,0,.53-.78,6.3,6.3,0,0,0,.35-.75,4.79,4.79,0,0,0,.21-.74,3.74,3.74,0,0,0,.08-.75.37.37,0,0,0,0-.11l0-3A.49.49,0,0,1,495.47,578.17Z"/><path class="cls-11" d="M491.61,573c5.13,3,5.15,7.43.05,10.39l-4.37-2.54c2.69-1.56,2.67-3.93,0-5.49Z"/><polygon class="cls-49" points="491.67 581.87 491.65 586.41 487.27 583.88 487.29 583.17 491.67 581.87"/><g class="cls-3"><g class="cls-50"><path class="cls-9" d="M488.74,583.15a18.6,18.6,0,0,1-2.42.6c-.55.1-1.11.17-1.67.23s-1,.08-1.45.1h-.77l0,4.55.77,0c.49,0,1,0,1.45-.09s1.12-.14,1.67-.24a19.17,19.17,0,0,0,2.43-.6,14.26,14.26,0,0,0,2.92-1.28l0-4.54A15.54,15.54,0,0,1,488.74,583.15Z"/></g></g><polygon class="cls-51" points="482.43 584.09 482.41 588.64 482.39 585.05 482.41 580.31 482.43 584.09"/><path class="cls-7" d="M491.67,581.87a18.8,18.8,0,0,1-9.24,2.22l0-3.58a10,10,0,0,0,4.88-1.17Z"/><g class="cls-3"><g class="cls-52"><path class="cls-13" d="M481.86,581.56l-1.29-.07c-.43,0-.85-.09-1.27-.15s-.87-.13-1.3-.22-.92-.21-1.37-.34a15.22,15.22,0,0,1-1.57-.53,13.42,13.42,0,0,1-1.91-.91c-2.58-1.49-3.87-3.45-3.86-5.4l0,6.87c0,2,1.28,4.11,3.86,5.6a14.64,14.64,0,0,0,1.91.92c.51.2,1,.37,1.57.53s.91.24,1.38.33.85.17,1.29.23.84.1,1.27.14.86.06,1.29.07h.57l0-7.08Z"/></g></g><path class="cls-15" d="M491.64,568.83l-4.36,2.53a10.85,10.85,0,0,0-9.8,0c-2.69,1.56-2.68,4.1,0,5.66a10.06,10.06,0,0,0,4.9,1.17l0,3.58a19,19,0,0,1-9.28-2.22c-5.13-3-5.15-7.76-.06-10.72S486.51,565.87,491.64,568.83Z"/><path class="cls-11" d="M515.64,573.67c.36.21.37.54,0,.75a1.42,1.42,0,0,1-1.3,0l-18.5-10.69c-.37-.21-.37-.54,0-.75a1.42,1.42,0,0,1,1.3,0Z"/><path class="cls-11" d="M502.85,568.75a.4.4,0,0,1,0,.76,1.44,1.44,0,0,1-1.31,0L493.7,565c-.37-.21-.36-.55,0-.76a1.42,1.42,0,0,1,1.3,0Z"/><path class="cls-11" d="M505.29,572.48c.36.21.37.54,0,.75a1.44,1.44,0,0,1-1.31,0l-12.29-7.09a.4.4,0,0,1,0-.76,1.42,1.42,0,0,1,1.3,0Z"/><polygon class="cls-8" points="381.69 448.67 345.12 469.93 319.38 455.08 355.96 433.82 381.69 448.67"/><path class="cls-9" d="M350.6,443.38l5.76,3.35,7.29-2.15c-2-2.33-6.95-3.25-11-2.07A9.63,9.63,0,0,0,350.6,443.38Z"/><path class="cls-11" d="M349.29,443.82c-3.87,2.23-3.89,5.85-.05,8.09a15.4,15.4,0,0,0,14,0c3.1-1.79,3.82-4.39,1.85-6.64l-8.81,2.59Z"/></g></g></svg>