<?xml version="1.0" encoding="utf-8"?>
<!-- Generator: Adobe Illustrator 16.0.0, SVG Export Plug-In . SVG Version: 6.00 Build 0)  -->
<!DOCTYPE svg PUBLIC "-//W3C//DTD SVG 1.1//EN" "http://www.w3.org/Graphics/SVG/1.1/DTD/svg11.dtd">
<svg version="1.1" xmlns="http://www.w3.org/2000/svg" xmlns:xlink="http://www.w3.org/1999/xlink" x="0px" y="0px" width="128px"
	 height="128px" viewBox="0 0 128 128" enable-background="new 0 0 128 128" xml:space="preserve">
<g id="facebook">
	<g id="XMLID_69_">
		
			<path id="XMLID_71_" fill="none" stroke="#263238" stroke-width="4" stroke-linecap="round" stroke-linejoin="round" stroke-miterlimit="10" d="
			M70,118V78H54V62h16V42c0-8.836,7.164-16,16-16h16v16H90c-2.211,0-4,1.789-4,4v16h16l-2,16H86v40"/>
		
			<path id="XMLID_70_" fill="none" stroke="#263238" stroke-width="4" stroke-linecap="round" stroke-linejoin="round" stroke-miterlimit="10" d="
			M61.999,118H18c-4.418,0-8-3.582-8-8V18c0-4.418,3.582-8,8-8h92c4.418,0,8,3.582,8,8v92c0,4.418-3.582,8-8,8H86.001"/>
	</g>
</g>
</svg>
